solid OpenSCAD_Model
  facet normal 0 -0 -1
    outer loop
      vertex 1.42109e-14 53.25 -176.8
      vertex 1.62234 52.993 -176.8
      vertex 1.06581e-14 48 -176.8
    endloop
  endfacet
  facet normal 0 0 -1
    outer loop
      vertex -1.62234 52.993 -176.8
      vertex 1.42109e-14 53.25 -176.8
      vertex 1.06581e-14 48 -176.8
    endloop
  endfacet
  facet normal 0 0 -1
    outer loop
      vertex -3.08587 52.2473 -176.8
      vertex -1.62234 52.993 -176.8
      vertex 1.06581e-14 48 -176.8
    endloop
  endfacet
  facet normal 0 0 -1
    outer loop
      vertex -4.24734 51.0859 -176.8
      vertex -3.08587 52.2473 -176.8
      vertex 1.06581e-14 48 -176.8
    endloop
  endfacet
  facet normal 0 0 -1
    outer loop
      vertex -4.99305 49.6223 -176.8
      vertex -4.24734 51.0859 -176.8
      vertex 1.06581e-14 48 -176.8
    endloop
  endfacet
  facet normal 0 0 -1
    outer loop
      vertex -5.25 48 -176.8
      vertex -4.99305 49.6223 -176.8
      vertex 1.06581e-14 48 -176.8
    endloop
  endfacet
  facet normal 0 0 -1
    outer loop
      vertex -4.99305 46.3777 -176.8
      vertex -5.25 48 -176.8
      vertex 1.06581e-14 48 -176.8
    endloop
  endfacet
  facet normal 0 0 -1
    outer loop
      vertex -4.24734 44.9141 -176.8
      vertex -4.99305 46.3777 -176.8
      vertex 1.06581e-14 48 -176.8
    endloop
  endfacet
  facet normal 0 0 -1
    outer loop
      vertex -3.08587 43.7527 -176.8
      vertex -4.24734 44.9141 -176.8
      vertex 1.06581e-14 48 -176.8
    endloop
  endfacet
  facet normal 0 0 -1
    outer loop
      vertex -1.62234 43.007 -176.8
      vertex -3.08587 43.7527 -176.8
      vertex 1.06581e-14 48 -176.8
    endloop
  endfacet
  facet normal 0 0 -1
    outer loop
      vertex 7.10543e-15 42.75 -176.8
      vertex -1.62234 43.007 -176.8
      vertex 1.06581e-14 48 -176.8
    endloop
  endfacet
  facet normal -0 0 -1
    outer loop
      vertex 1.62234 43.007 -176.8
      vertex 7.10543e-15 42.75 -176.8
      vertex 1.06581e-14 48 -176.8
    endloop
  endfacet
  facet normal -0 0 -1
    outer loop
      vertex 3.08587 43.7527 -176.8
      vertex 1.62234 43.007 -176.8
      vertex 1.06581e-14 48 -176.8
    endloop
  endfacet
  facet normal -0 0 -1
    outer loop
      vertex 4.24734 44.9141 -176.8
      vertex 3.08587 43.7527 -176.8
      vertex 1.06581e-14 48 -176.8
    endloop
  endfacet
  facet normal -0 0 -1
    outer loop
      vertex 4.99305 46.3777 -176.8
      vertex 4.24734 44.9141 -176.8
      vertex 1.06581e-14 48 -176.8
    endloop
  endfacet
  facet normal -0 0 -1
    outer loop
      vertex 5.25 48 -176.8
      vertex 4.99305 46.3777 -176.8
      vertex 1.06581e-14 48 -176.8
    endloop
  endfacet
  facet normal 0 -0 -1
    outer loop
      vertex 4.99305 49.6223 -176.8
      vertex 5.25 48 -176.8
      vertex 1.06581e-14 48 -176.8
    endloop
  endfacet
  facet normal 0 -0 -1
    outer loop
      vertex 4.24734 51.0859 -176.8
      vertex 4.99305 49.6223 -176.8
      vertex 1.06581e-14 48 -176.8
    endloop
  endfacet
  facet normal 0 -0 -1
    outer loop
      vertex 3.08587 52.2473 -176.8
      vertex 4.24734 51.0859 -176.8
      vertex 1.06581e-14 48 -176.8
    endloop
  endfacet
  facet normal 0 -0 -1
    outer loop
      vertex 1.62234 52.993 -176.8
      vertex 3.08587 52.2473 -176.8
      vertex 1.06581e-14 48 -176.8
    endloop
  endfacet
endsolid OpenSCAD_Model
