solid OpenSCAD_Model
  facet normal 0.999507 0.0314107 0
    outer loop
      vertex 57 0 230.2
      vertex 56.8875 3.57906 -244.8
      vertex 56.8875 3.57906 230.2
    endloop
  endfacet
  facet normal 0.999507 0.0314107 0
    outer loop
      vertex 56.8875 3.57906 -244.8
      vertex 57 0 230.2
      vertex 57 0 -244.8
    endloop
  endfacet
  facet normal 0.995562 0.0941086 0
    outer loop
      vertex 56.8875 3.57906 230.2
      vertex 56.5505 7.14399 -244.8
      vertex 56.5505 7.14399 230.2
    endloop
  endfacet
  facet normal 0.995562 0.0941086 0
    outer loop
      vertex 56.5505 7.14399 -244.8
      vertex 56.8875 3.57906 230.2
      vertex 56.8875 3.57906 -244.8
    endloop
  endfacet
  facet normal 0.987688 0.156435 0
    outer loop
      vertex 56.5505 7.14399 230.2
      vertex 55.9904 10.6807 -244.8
      vertex 55.9904 10.6807 230.2
    endloop
  endfacet
  facet normal 0.987688 0.156435 0
    outer loop
      vertex 55.9904 10.6807 -244.8
      vertex 56.5505 7.14399 230.2
      vertex 56.5505 7.14399 -244.8
    endloop
  endfacet
  facet normal 0.975917 0.218143 0
    outer loop
      vertex 55.9904 10.6807 230.2
      vertex 55.2092 14.1753 -244.8
      vertex 55.2092 14.1753 230.2
    endloop
  endfacet
  facet normal 0.975917 0.218143 0
    outer loop
      vertex 55.2092 14.1753 -244.8
      vertex 55.9904 10.6807 230.2
      vertex 55.9904 10.6807 -244.8
    endloop
  endfacet
  facet normal 0.960294 0.278991 0
    outer loop
      vertex 55.2092 14.1753 230.2
      vertex 54.2102 17.614 -244.8
      vertex 54.2102 17.614 230.2
    endloop
  endfacet
  facet normal 0.960294 0.278991 0
    outer loop
      vertex 54.2102 17.614 -244.8
      vertex 55.2092 14.1753 230.2
      vertex 55.2092 14.1753 -244.8
    endloop
  endfacet
  facet normal 0.940881 0.338737 0
    outer loop
      vertex 54.2102 17.614 230.2
      vertex 52.9973 20.9831 -244.8
      vertex 52.9973 20.9831 230.2
    endloop
  endfacet
  facet normal 0.940881 0.338737 0
    outer loop
      vertex 52.9973 20.9831 -244.8
      vertex 54.2102 17.614 230.2
      vertex 54.2102 17.614 -244.8
    endloop
  endfacet
  facet normal 0.917754 0.397148 0
    outer loop
      vertex 52.9973 20.9831 230.2
      vertex 51.5751 24.2694 -244.8
      vertex 51.5751 24.2694 230.2
    endloop
  endfacet
  facet normal 0.917754 0.397148 0
    outer loop
      vertex 51.5751 24.2694 -244.8
      vertex 52.9973 20.9831 230.2
      vertex 52.9973 20.9831 -244.8
    endloop
  endfacet
  facet normal 0.891007 0.45399 0
    outer loop
      vertex 51.5751 24.2694 230.2
      vertex 49.9495 27.46 -244.8
      vertex 49.9495 27.46 230.2
    endloop
  endfacet
  facet normal 0.891007 0.45399 0
    outer loop
      vertex 49.9495 27.46 -244.8
      vertex 51.5751 24.2694 230.2
      vertex 51.5751 24.2694 -244.8
    endloop
  endfacet
  facet normal 0.860742 0.509042 0
    outer loop
      vertex 49.9495 27.46 230.2
      vertex 48.1267 30.5421 -244.8
      vertex 48.1267 30.5421 230.2
    endloop
  endfacet
  facet normal 0.860742 0.509042 0
    outer loop
      vertex 48.1267 30.5421 -244.8
      vertex 49.9495 27.46 230.2
      vertex 49.9495 27.46 -244.8
    endloop
  endfacet
  facet normal 0.827081 0.562083 0
    outer loop
      vertex 48.1267 30.5421 230.2
      vertex 46.114 33.5038 -244.8
      vertex 46.114 33.5038 230.2
    endloop
  endfacet
  facet normal 0.827081 0.562083 0
    outer loop
      vertex 46.114 33.5038 -244.8
      vertex 48.1267 30.5421 230.2
      vertex 48.1267 30.5421 -244.8
    endloop
  endfacet
  facet normal 0.790155 0.612907 0
    outer loop
      vertex 46.114 33.5038 230.2
      vertex 43.9193 36.3332 -244.8
      vertex 43.9193 36.3332 230.2
    endloop
  endfacet
  facet normal 0.790155 0.612907 0
    outer loop
      vertex 43.9193 36.3332 -244.8
      vertex 46.114 33.5038 230.2
      vertex 46.114 33.5038 -244.8
    endloop
  endfacet
  facet normal 0.750111 0.661312 0
    outer loop
      vertex 43.9193 36.3332 230.2
      vertex 41.5512 39.0192 -244.8
      vertex 41.5512 39.0192 230.2
    endloop
  endfacet
  facet normal 0.750111 0.661312 0
    outer loop
      vertex 41.5512 39.0192 -244.8
      vertex 43.9193 36.3332 230.2
      vertex 43.9193 36.3332 -244.8
    endloop
  endfacet
  facet normal 0.707107 0.707107 0
    outer loop
      vertex 41.5512 39.0192 230.2
      vertex 39.0192 41.5512 -244.8
      vertex 39.0192 41.5512 230.2
    endloop
  endfacet
  facet normal 0.707107 0.707107 0
    outer loop
      vertex 39.0192 41.5512 -244.8
      vertex 41.5512 39.0192 230.2
      vertex 41.5512 39.0192 -244.8
    endloop
  endfacet
  facet normal 0.661312 0.750111 -0
    outer loop
      vertex 39.0192 41.5512 -244.8
      vertex 36.3332 43.9193 230.2
      vertex 39.0192 41.5512 230.2
    endloop
  endfacet
  facet normal 0.661312 0.750111 0
    outer loop
      vertex 36.3332 43.9193 230.2
      vertex 39.0192 41.5512 -244.8
      vertex 36.3332 43.9193 -244.8
    endloop
  endfacet
  facet normal 0.612907 0.790155 -0
    outer loop
      vertex 36.3332 43.9193 -244.8
      vertex 33.5038 46.114 230.2
      vertex 36.3332 43.9193 230.2
    endloop
  endfacet
  facet normal 0.612907 0.790155 0
    outer loop
      vertex 33.5038 46.114 230.2
      vertex 36.3332 43.9193 -244.8
      vertex 33.5038 46.114 -244.8
    endloop
  endfacet
  facet normal 0.562083 0.827081 -0
    outer loop
      vertex 33.5038 46.114 -244.8
      vertex 30.5421 48.1267 230.2
      vertex 33.5038 46.114 230.2
    endloop
  endfacet
  facet normal 0.562083 0.827081 0
    outer loop
      vertex 30.5421 48.1267 230.2
      vertex 33.5038 46.114 -244.8
      vertex 30.5421 48.1267 -244.8
    endloop
  endfacet
  facet normal 0.509042 0.860742 -0
    outer loop
      vertex 30.5421 48.1267 -244.8
      vertex 27.46 49.9495 230.2
      vertex 30.5421 48.1267 230.2
    endloop
  endfacet
  facet normal 0.509042 0.860742 0
    outer loop
      vertex 27.46 49.9495 230.2
      vertex 30.5421 48.1267 -244.8
      vertex 27.46 49.9495 -244.8
    endloop
  endfacet
  facet normal 0.45399 0.891007 -0
    outer loop
      vertex 27.46 49.9495 -244.8
      vertex 24.2694 51.5751 230.2
      vertex 27.46 49.9495 230.2
    endloop
  endfacet
  facet normal 0.45399 0.891007 0
    outer loop
      vertex 24.2694 51.5751 230.2
      vertex 27.46 49.9495 -244.8
      vertex 24.2694 51.5751 -244.8
    endloop
  endfacet
  facet normal 0.397148 0.917754 -0
    outer loop
      vertex 24.2694 51.5751 -244.8
      vertex 20.9831 52.9973 230.2
      vertex 24.2694 51.5751 230.2
    endloop
  endfacet
  facet normal 0.397148 0.917754 0
    outer loop
      vertex 20.9831 52.9973 230.2
      vertex 24.2694 51.5751 -244.8
      vertex 20.9831 52.9973 -244.8
    endloop
  endfacet
  facet normal 0.338737 0.940881 -0
    outer loop
      vertex 20.9831 52.9973 -244.8
      vertex 17.614 54.2102 230.2
      vertex 20.9831 52.9973 230.2
    endloop
  endfacet
  facet normal 0.338737 0.940881 0
    outer loop
      vertex 17.614 54.2102 230.2
      vertex 20.9831 52.9973 -244.8
      vertex 17.614 54.2102 -244.8
    endloop
  endfacet
  facet normal 0.278991 0.960294 -0
    outer loop
      vertex 17.614 54.2102 -244.8
      vertex 14.1753 55.2092 230.2
      vertex 17.614 54.2102 230.2
    endloop
  endfacet
  facet normal 0.278991 0.960294 0
    outer loop
      vertex 14.1753 55.2092 230.2
      vertex 17.614 54.2102 -244.8
      vertex 14.1753 55.2092 -244.8
    endloop
  endfacet
  facet normal 0.218143 0.975917 -0
    outer loop
      vertex 14.1753 55.2092 -244.8
      vertex 10.6807 55.9904 230.2
      vertex 14.1753 55.2092 230.2
    endloop
  endfacet
  facet normal 0.218143 0.975917 0
    outer loop
      vertex 10.6807 55.9904 230.2
      vertex 14.1753 55.2092 -244.8
      vertex 10.6807 55.9904 -244.8
    endloop
  endfacet
  facet normal 0.156435 0.987688 -0
    outer loop
      vertex 10.6807 55.9904 -244.8
      vertex 7.14399 56.5505 230.2
      vertex 10.6807 55.9904 230.2
    endloop
  endfacet
  facet normal 0.156435 0.987688 0
    outer loop
      vertex 7.14399 56.5505 230.2
      vertex 10.6807 55.9904 -244.8
      vertex 7.14399 56.5505 -244.8
    endloop
  endfacet
  facet normal 0.0941086 0.995562 -0
    outer loop
      vertex 7.14399 56.5505 -244.8
      vertex 3.57906 56.8875 230.2
      vertex 7.14399 56.5505 230.2
    endloop
  endfacet
  facet normal 0.0941086 0.995562 0
    outer loop
      vertex 3.57906 56.8875 230.2
      vertex 7.14399 56.5505 -244.8
      vertex 3.57906 56.8875 -244.8
    endloop
  endfacet
  facet normal 0.0314107 0.999507 -0
    outer loop
      vertex 3.57906 56.8875 -244.8
      vertex 3.49024e-15 57 230.2
      vertex 3.57906 56.8875 230.2
    endloop
  endfacet
  facet normal 0.0314107 0.999507 0
    outer loop
      vertex 3.49024e-15 57 230.2
      vertex 3.57906 56.8875 -244.8
      vertex 3.49024e-15 57 -244.8
    endloop
  endfacet
  facet normal -0.0314107 0.999507 0
    outer loop
      vertex 3.49024e-15 57 -244.8
      vertex -3.57906 56.8875 230.2
      vertex 3.49024e-15 57 230.2
    endloop
  endfacet
  facet normal -0.0314107 0.999507 0
    outer loop
      vertex -3.57906 56.8875 230.2
      vertex 3.49024e-15 57 -244.8
      vertex -3.57906 56.8875 -244.8
    endloop
  endfacet
  facet normal -0.0941086 0.995562 0
    outer loop
      vertex -3.57906 56.8875 -244.8
      vertex -7.14399 56.5505 230.2
      vertex -3.57906 56.8875 230.2
    endloop
  endfacet
  facet normal -0.0941086 0.995562 0
    outer loop
      vertex -7.14399 56.5505 230.2
      vertex -3.57906 56.8875 -244.8
      vertex -7.14399 56.5505 -244.8
    endloop
  endfacet
  facet normal -0.156435 0.987688 0
    outer loop
      vertex -7.14399 56.5505 -244.8
      vertex -10.6807 55.9904 230.2
      vertex -7.14399 56.5505 230.2
    endloop
  endfacet
  facet normal -0.156435 0.987688 0
    outer loop
      vertex -10.6807 55.9904 230.2
      vertex -7.14399 56.5505 -244.8
      vertex -10.6807 55.9904 -244.8
    endloop
  endfacet
  facet normal -0.218143 0.975917 0
    outer loop
      vertex -10.6807 55.9904 -244.8
      vertex -14.1753 55.2092 230.2
      vertex -10.6807 55.9904 230.2
    endloop
  endfacet
  facet normal -0.218143 0.975917 0
    outer loop
      vertex -14.1753 55.2092 230.2
      vertex -10.6807 55.9904 -244.8
      vertex -14.1753 55.2092 -244.8
    endloop
  endfacet
  facet normal -0.278991 0.960294 0
    outer loop
      vertex -14.1753 55.2092 -244.8
      vertex -17.614 54.2102 230.2
      vertex -14.1753 55.2092 230.2
    endloop
  endfacet
  facet normal -0.278991 0.960294 0
    outer loop
      vertex -17.614 54.2102 230.2
      vertex -14.1753 55.2092 -244.8
      vertex -17.614 54.2102 -244.8
    endloop
  endfacet
  facet normal -0.338737 0.940881 0
    outer loop
      vertex -17.614 54.2102 -244.8
      vertex -20.9831 52.9973 230.2
      vertex -17.614 54.2102 230.2
    endloop
  endfacet
  facet normal -0.338737 0.940881 0
    outer loop
      vertex -20.9831 52.9973 230.2
      vertex -17.614 54.2102 -244.8
      vertex -20.9831 52.9973 -244.8
    endloop
  endfacet
  facet normal -0.397148 0.917754 0
    outer loop
      vertex -20.9831 52.9973 -244.8
      vertex -24.2694 51.5751 230.2
      vertex -20.9831 52.9973 230.2
    endloop
  endfacet
  facet normal -0.397148 0.917754 0
    outer loop
      vertex -24.2694 51.5751 230.2
      vertex -20.9831 52.9973 -244.8
      vertex -24.2694 51.5751 -244.8
    endloop
  endfacet
  facet normal -0.45399 0.891007 0
    outer loop
      vertex -24.2694 51.5751 -244.8
      vertex -27.46 49.9495 230.2
      vertex -24.2694 51.5751 230.2
    endloop
  endfacet
  facet normal -0.45399 0.891007 0
    outer loop
      vertex -27.46 49.9495 230.2
      vertex -24.2694 51.5751 -244.8
      vertex -27.46 49.9495 -244.8
    endloop
  endfacet
  facet normal -0.509042 0.860742 0
    outer loop
      vertex -27.46 49.9495 -244.8
      vertex -30.5421 48.1267 230.2
      vertex -27.46 49.9495 230.2
    endloop
  endfacet
  facet normal -0.509042 0.860742 0
    outer loop
      vertex -30.5421 48.1267 230.2
      vertex -27.46 49.9495 -244.8
      vertex -30.5421 48.1267 -244.8
    endloop
  endfacet
  facet normal -0.562083 0.827081 0
    outer loop
      vertex -30.5421 48.1267 -244.8
      vertex -33.5038 46.114 230.2
      vertex -30.5421 48.1267 230.2
    endloop
  endfacet
  facet normal -0.562083 0.827081 0
    outer loop
      vertex -33.5038 46.114 230.2
      vertex -30.5421 48.1267 -244.8
      vertex -33.5038 46.114 -244.8
    endloop
  endfacet
  facet normal -0.612907 0.790155 0
    outer loop
      vertex -33.5038 46.114 -244.8
      vertex -36.3332 43.9193 230.2
      vertex -33.5038 46.114 230.2
    endloop
  endfacet
  facet normal -0.612907 0.790155 0
    outer loop
      vertex -36.3332 43.9193 230.2
      vertex -33.5038 46.114 -244.8
      vertex -36.3332 43.9193 -244.8
    endloop
  endfacet
  facet normal -0.661312 0.750111 0
    outer loop
      vertex -36.3332 43.9193 -244.8
      vertex -39.0192 41.5512 230.2
      vertex -36.3332 43.9193 230.2
    endloop
  endfacet
  facet normal -0.661312 0.750111 0
    outer loop
      vertex -39.0192 41.5512 230.2
      vertex -36.3332 43.9193 -244.8
      vertex -39.0192 41.5512 -244.8
    endloop
  endfacet
  facet normal -0.707107 0.707107 0
    outer loop
      vertex -41.5512 39.0192 -244.8
      vertex -39.0192 41.5512 230.2
      vertex -39.0192 41.5512 -244.8
    endloop
  endfacet
  facet normal -0.707107 0.707107 0
    outer loop
      vertex -39.0192 41.5512 230.2
      vertex -41.5512 39.0192 -244.8
      vertex -41.5512 39.0192 230.2
    endloop
  endfacet
  facet normal -0.750111 0.661312 0
    outer loop
      vertex -43.9193 36.3332 -244.8
      vertex -41.5512 39.0192 230.2
      vertex -41.5512 39.0192 -244.8
    endloop
  endfacet
  facet normal -0.750111 0.661312 0
    outer loop
      vertex -41.5512 39.0192 230.2
      vertex -43.9193 36.3332 -244.8
      vertex -43.9193 36.3332 230.2
    endloop
  endfacet
  facet normal -0.790155 0.612907 0
    outer loop
      vertex -46.114 33.5038 -244.8
      vertex -43.9193 36.3332 230.2
      vertex -43.9193 36.3332 -244.8
    endloop
  endfacet
  facet normal -0.790155 0.612907 0
    outer loop
      vertex -43.9193 36.3332 230.2
      vertex -46.114 33.5038 -244.8
      vertex -46.114 33.5038 230.2
    endloop
  endfacet
  facet normal -0.827081 0.562083 0
    outer loop
      vertex -48.1267 30.5421 -244.8
      vertex -46.114 33.5038 230.2
      vertex -46.114 33.5038 -244.8
    endloop
  endfacet
  facet normal -0.827081 0.562083 0
    outer loop
      vertex -46.114 33.5038 230.2
      vertex -48.1267 30.5421 -244.8
      vertex -48.1267 30.5421 230.2
    endloop
  endfacet
  facet normal -0.860742 0.509042 0
    outer loop
      vertex -49.9495 27.46 -244.8
      vertex -48.1267 30.5421 230.2
      vertex -48.1267 30.5421 -244.8
    endloop
  endfacet
  facet normal -0.860742 0.509042 0
    outer loop
      vertex -48.1267 30.5421 230.2
      vertex -49.9495 27.46 -244.8
      vertex -49.9495 27.46 230.2
    endloop
  endfacet
  facet normal -0.891007 0.45399 0
    outer loop
      vertex -51.5751 24.2694 -244.8
      vertex -49.9495 27.46 230.2
      vertex -49.9495 27.46 -244.8
    endloop
  endfacet
  facet normal -0.891007 0.45399 0
    outer loop
      vertex -49.9495 27.46 230.2
      vertex -51.5751 24.2694 -244.8
      vertex -51.5751 24.2694 230.2
    endloop
  endfacet
  facet normal -0.917754 0.397148 0
    outer loop
      vertex -52.9973 20.9831 -244.8
      vertex -51.5751 24.2694 230.2
      vertex -51.5751 24.2694 -244.8
    endloop
  endfacet
  facet normal -0.917754 0.397148 0
    outer loop
      vertex -51.5751 24.2694 230.2
      vertex -52.9973 20.9831 -244.8
      vertex -52.9973 20.9831 230.2
    endloop
  endfacet
  facet normal -0.940881 0.338737 0
    outer loop
      vertex -54.2102 17.614 -244.8
      vertex -52.9973 20.9831 230.2
      vertex -52.9973 20.9831 -244.8
    endloop
  endfacet
  facet normal -0.940881 0.338737 0
    outer loop
      vertex -52.9973 20.9831 230.2
      vertex -54.2102 17.614 -244.8
      vertex -54.2102 17.614 230.2
    endloop
  endfacet
  facet normal -0.960294 0.278991 0
    outer loop
      vertex -55.2092 14.1753 -244.8
      vertex -54.2102 17.614 230.2
      vertex -54.2102 17.614 -244.8
    endloop
  endfacet
  facet normal -0.960294 0.278991 0
    outer loop
      vertex -54.2102 17.614 230.2
      vertex -55.2092 14.1753 -244.8
      vertex -55.2092 14.1753 230.2
    endloop
  endfacet
  facet normal -0.975917 0.218143 0
    outer loop
      vertex -55.9904 10.6807 -244.8
      vertex -55.2092 14.1753 230.2
      vertex -55.2092 14.1753 -244.8
    endloop
  endfacet
  facet normal -0.975917 0.218143 0
    outer loop
      vertex -55.2092 14.1753 230.2
      vertex -55.9904 10.6807 -244.8
      vertex -55.9904 10.6807 230.2
    endloop
  endfacet
  facet normal -0.987688 0.156435 0
    outer loop
      vertex -56.5505 7.14399 -244.8
      vertex -55.9904 10.6807 230.2
      vertex -55.9904 10.6807 -244.8
    endloop
  endfacet
  facet normal -0.987688 0.156435 0
    outer loop
      vertex -55.9904 10.6807 230.2
      vertex -56.5505 7.14399 -244.8
      vertex -56.5505 7.14399 230.2
    endloop
  endfacet
  facet normal -0.995562 0.0941086 0
    outer loop
      vertex -56.8875 3.57906 -244.8
      vertex -56.5505 7.14399 230.2
      vertex -56.5505 7.14399 -244.8
    endloop
  endfacet
  facet normal -0.995562 0.0941086 0
    outer loop
      vertex -56.5505 7.14399 230.2
      vertex -56.8875 3.57906 -244.8
      vertex -56.8875 3.57906 230.2
    endloop
  endfacet
  facet normal -0.999507 0.0314107 0
    outer loop
      vertex -57 6.98049e-15 -244.8
      vertex -56.8875 3.57906 230.2
      vertex -56.8875 3.57906 -244.8
    endloop
  endfacet
  facet normal -0.999507 0.0314107 0
    outer loop
      vertex -56.8875 3.57906 230.2
      vertex -57 6.98049e-15 -244.8
      vertex -57 6.98049e-15 230.2
    endloop
  endfacet
  facet normal -0.999507 -0.0314107 0
    outer loop
      vertex -56.8875 -3.57906 -244.8
      vertex -57 6.98049e-15 230.2
      vertex -57 6.98049e-15 -244.8
    endloop
  endfacet
  facet normal -0.999507 -0.0314107 0
    outer loop
      vertex -57 6.98049e-15 230.2
      vertex -56.8875 -3.57906 -244.8
      vertex -56.8875 -3.57906 230.2
    endloop
  endfacet
  facet normal -0.995562 -0.0941086 0
    outer loop
      vertex -56.5505 -7.14399 -244.8
      vertex -56.8875 -3.57906 230.2
      vertex -56.8875 -3.57906 -244.8
    endloop
  endfacet
  facet normal -0.995562 -0.0941086 0
    outer loop
      vertex -56.8875 -3.57906 230.2
      vertex -56.5505 -7.14399 -244.8
      vertex -56.5505 -7.14399 230.2
    endloop
  endfacet
  facet normal -0.987688 -0.156435 0
    outer loop
      vertex -55.9904 -10.6807 -244.8
      vertex -56.5505 -7.14399 230.2
      vertex -56.5505 -7.14399 -244.8
    endloop
  endfacet
  facet normal -0.987688 -0.156435 0
    outer loop
      vertex -56.5505 -7.14399 230.2
      vertex -55.9904 -10.6807 -244.8
      vertex -55.9904 -10.6807 230.2
    endloop
  endfacet
  facet normal -0.975917 -0.218143 0
    outer loop
      vertex -55.2092 -14.1753 -244.8
      vertex -55.9904 -10.6807 230.2
      vertex -55.9904 -10.6807 -244.8
    endloop
  endfacet
  facet normal -0.975917 -0.218143 0
    outer loop
      vertex -55.9904 -10.6807 230.2
      vertex -55.2092 -14.1753 -244.8
      vertex -55.2092 -14.1753 230.2
    endloop
  endfacet
  facet normal -0.960294 -0.278991 0
    outer loop
      vertex -54.2102 -17.614 -244.8
      vertex -55.2092 -14.1753 230.2
      vertex -55.2092 -14.1753 -244.8
    endloop
  endfacet
  facet normal -0.960294 -0.278991 0
    outer loop
      vertex -55.2092 -14.1753 230.2
      vertex -54.2102 -17.614 -244.8
      vertex -54.2102 -17.614 230.2
    endloop
  endfacet
  facet normal -0.940881 -0.338737 0
    outer loop
      vertex -52.9973 -20.9831 -244.8
      vertex -54.2102 -17.614 230.2
      vertex -54.2102 -17.614 -244.8
    endloop
  endfacet
  facet normal -0.940881 -0.338737 0
    outer loop
      vertex -54.2102 -17.614 230.2
      vertex -52.9973 -20.9831 -244.8
      vertex -52.9973 -20.9831 230.2
    endloop
  endfacet
  facet normal -0.917754 -0.397148 0
    outer loop
      vertex -51.5751 -24.2694 -244.8
      vertex -52.9973 -20.9831 230.2
      vertex -52.9973 -20.9831 -244.8
    endloop
  endfacet
  facet normal -0.917754 -0.397148 0
    outer loop
      vertex -52.9973 -20.9831 230.2
      vertex -51.5751 -24.2694 -244.8
      vertex -51.5751 -24.2694 230.2
    endloop
  endfacet
  facet normal -0.891007 -0.45399 0
    outer loop
      vertex -49.9495 -27.46 -244.8
      vertex -51.5751 -24.2694 230.2
      vertex -51.5751 -24.2694 -244.8
    endloop
  endfacet
  facet normal -0.891007 -0.45399 0
    outer loop
      vertex -51.5751 -24.2694 230.2
      vertex -49.9495 -27.46 -244.8
      vertex -49.9495 -27.46 230.2
    endloop
  endfacet
  facet normal -0.860742 -0.509042 0
    outer loop
      vertex -48.1267 -30.5421 -244.8
      vertex -49.9495 -27.46 230.2
      vertex -49.9495 -27.46 -244.8
    endloop
  endfacet
  facet normal -0.860742 -0.509042 0
    outer loop
      vertex -49.9495 -27.46 230.2
      vertex -48.1267 -30.5421 -244.8
      vertex -48.1267 -30.5421 230.2
    endloop
  endfacet
  facet normal -0.827081 -0.562083 0
    outer loop
      vertex -46.114 -33.5038 -244.8
      vertex -48.1267 -30.5421 230.2
      vertex -48.1267 -30.5421 -244.8
    endloop
  endfacet
  facet normal -0.827081 -0.562083 0
    outer loop
      vertex -48.1267 -30.5421 230.2
      vertex -46.114 -33.5038 -244.8
      vertex -46.114 -33.5038 230.2
    endloop
  endfacet
  facet normal -0.790155 -0.612907 0
    outer loop
      vertex -43.9193 -36.3332 -244.8
      vertex -46.114 -33.5038 230.2
      vertex -46.114 -33.5038 -244.8
    endloop
  endfacet
  facet normal -0.790155 -0.612907 0
    outer loop
      vertex -46.114 -33.5038 230.2
      vertex -43.9193 -36.3332 -244.8
      vertex -43.9193 -36.3332 230.2
    endloop
  endfacet
  facet normal -0.750111 -0.661312 0
    outer loop
      vertex -41.5512 -39.0192 -244.8
      vertex -43.9193 -36.3332 230.2
      vertex -43.9193 -36.3332 -244.8
    endloop
  endfacet
  facet normal -0.750111 -0.661312 0
    outer loop
      vertex -43.9193 -36.3332 230.2
      vertex -41.5512 -39.0192 -244.8
      vertex -41.5512 -39.0192 230.2
    endloop
  endfacet
  facet normal -0.707107 -0.707107 0
    outer loop
      vertex -39.0192 -41.5512 -244.8
      vertex -41.5512 -39.0192 230.2
      vertex -41.5512 -39.0192 -244.8
    endloop
  endfacet
  facet normal -0.707107 -0.707107 0
    outer loop
      vertex -41.5512 -39.0192 230.2
      vertex -39.0192 -41.5512 -244.8
      vertex -39.0192 -41.5512 230.2
    endloop
  endfacet
  facet normal -0.661312 -0.750111 0
    outer loop
      vertex -39.0192 -41.5512 -244.8
      vertex -36.3332 -43.9193 230.2
      vertex -39.0192 -41.5512 230.2
    endloop
  endfacet
  facet normal -0.661312 -0.750111 -0
    outer loop
      vertex -36.3332 -43.9193 230.2
      vertex -39.0192 -41.5512 -244.8
      vertex -36.3332 -43.9193 -244.8
    endloop
  endfacet
  facet normal -0.612907 -0.790155 0
    outer loop
      vertex -36.3332 -43.9193 -244.8
      vertex -33.5038 -46.114 230.2
      vertex -36.3332 -43.9193 230.2
    endloop
  endfacet
  facet normal -0.612907 -0.790155 -0
    outer loop
      vertex -33.5038 -46.114 230.2
      vertex -36.3332 -43.9193 -244.8
      vertex -33.5038 -46.114 -244.8
    endloop
  endfacet
  facet normal -0.562083 -0.827081 0
    outer loop
      vertex -33.5038 -46.114 -244.8
      vertex -30.5421 -48.1267 230.2
      vertex -33.5038 -46.114 230.2
    endloop
  endfacet
  facet normal -0.562083 -0.827081 -0
    outer loop
      vertex -30.5421 -48.1267 230.2
      vertex -33.5038 -46.114 -244.8
      vertex -30.5421 -48.1267 -244.8
    endloop
  endfacet
  facet normal -0.509042 -0.860742 0
    outer loop
      vertex -30.5421 -48.1267 -244.8
      vertex -27.46 -49.9495 230.2
      vertex -30.5421 -48.1267 230.2
    endloop
  endfacet
  facet normal -0.509042 -0.860742 -0
    outer loop
      vertex -27.46 -49.9495 230.2
      vertex -30.5421 -48.1267 -244.8
      vertex -27.46 -49.9495 -244.8
    endloop
  endfacet
  facet normal -0.45399 -0.891007 0
    outer loop
      vertex -27.46 -49.9495 -244.8
      vertex -24.2694 -51.5751 230.2
      vertex -27.46 -49.9495 230.2
    endloop
  endfacet
  facet normal -0.45399 -0.891007 -0
    outer loop
      vertex -24.2694 -51.5751 230.2
      vertex -27.46 -49.9495 -244.8
      vertex -24.2694 -51.5751 -244.8
    endloop
  endfacet
  facet normal -0.397148 -0.917754 0
    outer loop
      vertex -24.2694 -51.5751 -244.8
      vertex -20.9831 -52.9973 230.2
      vertex -24.2694 -51.5751 230.2
    endloop
  endfacet
  facet normal -0.397148 -0.917754 -0
    outer loop
      vertex -20.9831 -52.9973 230.2
      vertex -24.2694 -51.5751 -244.8
      vertex -20.9831 -52.9973 -244.8
    endloop
  endfacet
  facet normal -0.338737 -0.940881 0
    outer loop
      vertex -20.9831 -52.9973 -244.8
      vertex -17.614 -54.2102 230.2
      vertex -20.9831 -52.9973 230.2
    endloop
  endfacet
  facet normal -0.338737 -0.940881 -0
    outer loop
      vertex -17.614 -54.2102 230.2
      vertex -20.9831 -52.9973 -244.8
      vertex -17.614 -54.2102 -244.8
    endloop
  endfacet
  facet normal -0.278991 -0.960294 0
    outer loop
      vertex -17.614 -54.2102 -244.8
      vertex -14.1753 -55.2092 230.2
      vertex -17.614 -54.2102 230.2
    endloop
  endfacet
  facet normal -0.278991 -0.960294 -0
    outer loop
      vertex -14.1753 -55.2092 230.2
      vertex -17.614 -54.2102 -244.8
      vertex -14.1753 -55.2092 -244.8
    endloop
  endfacet
  facet normal -0.218143 -0.975917 0
    outer loop
      vertex -14.1753 -55.2092 -244.8
      vertex -10.6807 -55.9904 230.2
      vertex -14.1753 -55.2092 230.2
    endloop
  endfacet
  facet normal -0.218143 -0.975917 -0
    outer loop
      vertex -10.6807 -55.9904 230.2
      vertex -14.1753 -55.2092 -244.8
      vertex -10.6807 -55.9904 -244.8
    endloop
  endfacet
  facet normal -0.156435 -0.987688 0
    outer loop
      vertex -10.6807 -55.9904 -244.8
      vertex -7.14399 -56.5505 230.2
      vertex -10.6807 -55.9904 230.2
    endloop
  endfacet
  facet normal -0.156435 -0.987688 -0
    outer loop
      vertex -7.14399 -56.5505 230.2
      vertex -10.6807 -55.9904 -244.8
      vertex -7.14399 -56.5505 -244.8
    endloop
  endfacet
  facet normal -0.0941086 -0.995562 0
    outer loop
      vertex -7.14399 -56.5505 -244.8
      vertex -3.57906 -56.8875 230.2
      vertex -7.14399 -56.5505 230.2
    endloop
  endfacet
  facet normal -0.0941086 -0.995562 -0
    outer loop
      vertex -3.57906 -56.8875 230.2
      vertex -7.14399 -56.5505 -244.8
      vertex -3.57906 -56.8875 -244.8
    endloop
  endfacet
  facet normal -0.0314107 -0.999507 0
    outer loop
      vertex -3.57906 -56.8875 -244.8
      vertex -1.04707e-14 -57 230.2
      vertex -3.57906 -56.8875 230.2
    endloop
  endfacet
  facet normal -0.0314107 -0.999507 -0
    outer loop
      vertex -1.04707e-14 -57 230.2
      vertex -3.57906 -56.8875 -244.8
      vertex -1.04707e-14 -57 -244.8
    endloop
  endfacet
  facet normal 0.0314107 -0.999507 0
    outer loop
      vertex -1.04707e-14 -57 -244.8
      vertex 3.57906 -56.8875 230.2
      vertex -1.04707e-14 -57 230.2
    endloop
  endfacet
  facet normal 0.0314107 -0.999507 0
    outer loop
      vertex 3.57906 -56.8875 230.2
      vertex -1.04707e-14 -57 -244.8
      vertex 3.57906 -56.8875 -244.8
    endloop
  endfacet
  facet normal 0.0941086 -0.995562 0
    outer loop
      vertex 3.57906 -56.8875 -244.8
      vertex 7.14399 -56.5505 230.2
      vertex 3.57906 -56.8875 230.2
    endloop
  endfacet
  facet normal 0.0941086 -0.995562 0
    outer loop
      vertex 7.14399 -56.5505 230.2
      vertex 3.57906 -56.8875 -244.8
      vertex 7.14399 -56.5505 -244.8
    endloop
  endfacet
  facet normal 0.156435 -0.987688 0
    outer loop
      vertex 7.14399 -56.5505 -244.8
      vertex 10.6807 -55.9904 230.2
      vertex 7.14399 -56.5505 230.2
    endloop
  endfacet
  facet normal 0.156435 -0.987688 0
    outer loop
      vertex 10.6807 -55.9904 230.2
      vertex 7.14399 -56.5505 -244.8
      vertex 10.6807 -55.9904 -244.8
    endloop
  endfacet
  facet normal 0.218143 -0.975917 0
    outer loop
      vertex 10.6807 -55.9904 -244.8
      vertex 14.1753 -55.2092 230.2
      vertex 10.6807 -55.9904 230.2
    endloop
  endfacet
  facet normal 0.218143 -0.975917 0
    outer loop
      vertex 14.1753 -55.2092 230.2
      vertex 10.6807 -55.9904 -244.8
      vertex 14.1753 -55.2092 -244.8
    endloop
  endfacet
  facet normal 0.278991 -0.960294 0
    outer loop
      vertex 14.1753 -55.2092 -244.8
      vertex 17.614 -54.2102 230.2
      vertex 14.1753 -55.2092 230.2
    endloop
  endfacet
  facet normal 0.278991 -0.960294 0
    outer loop
      vertex 17.614 -54.2102 230.2
      vertex 14.1753 -55.2092 -244.8
      vertex 17.614 -54.2102 -244.8
    endloop
  endfacet
  facet normal 0.338737 -0.940881 0
    outer loop
      vertex 17.614 -54.2102 -244.8
      vertex 20.9831 -52.9973 230.2
      vertex 17.614 -54.2102 230.2
    endloop
  endfacet
  facet normal 0.338737 -0.940881 0
    outer loop
      vertex 20.9831 -52.9973 230.2
      vertex 17.614 -54.2102 -244.8
      vertex 20.9831 -52.9973 -244.8
    endloop
  endfacet
  facet normal 0.397148 -0.917754 0
    outer loop
      vertex 20.9831 -52.9973 -244.8
      vertex 24.2694 -51.5751 230.2
      vertex 20.9831 -52.9973 230.2
    endloop
  endfacet
  facet normal 0.397148 -0.917754 0
    outer loop
      vertex 24.2694 -51.5751 230.2
      vertex 20.9831 -52.9973 -244.8
      vertex 24.2694 -51.5751 -244.8
    endloop
  endfacet
  facet normal 0.45399 -0.891007 0
    outer loop
      vertex 24.2694 -51.5751 -244.8
      vertex 27.46 -49.9495 230.2
      vertex 24.2694 -51.5751 230.2
    endloop
  endfacet
  facet normal 0.45399 -0.891007 0
    outer loop
      vertex 27.46 -49.9495 230.2
      vertex 24.2694 -51.5751 -244.8
      vertex 27.46 -49.9495 -244.8
    endloop
  endfacet
  facet normal 0.509042 -0.860742 0
    outer loop
      vertex 27.46 -49.9495 -244.8
      vertex 30.5421 -48.1267 230.2
      vertex 27.46 -49.9495 230.2
    endloop
  endfacet
  facet normal 0.509042 -0.860742 0
    outer loop
      vertex 30.5421 -48.1267 230.2
      vertex 27.46 -49.9495 -244.8
      vertex 30.5421 -48.1267 -244.8
    endloop
  endfacet
  facet normal 0.562083 -0.827081 0
    outer loop
      vertex 30.5421 -48.1267 -244.8
      vertex 33.5038 -46.114 230.2
      vertex 30.5421 -48.1267 230.2
    endloop
  endfacet
  facet normal 0.562083 -0.827081 0
    outer loop
      vertex 33.5038 -46.114 230.2
      vertex 30.5421 -48.1267 -244.8
      vertex 33.5038 -46.114 -244.8
    endloop
  endfacet
  facet normal 0.612907 -0.790155 0
    outer loop
      vertex 33.5038 -46.114 -244.8
      vertex 36.3332 -43.9193 230.2
      vertex 33.5038 -46.114 230.2
    endloop
  endfacet
  facet normal 0.612907 -0.790155 0
    outer loop
      vertex 36.3332 -43.9193 230.2
      vertex 33.5038 -46.114 -244.8
      vertex 36.3332 -43.9193 -244.8
    endloop
  endfacet
  facet normal 0.661312 -0.750111 0
    outer loop
      vertex 36.3332 -43.9193 -244.8
      vertex 39.0192 -41.5512 230.2
      vertex 36.3332 -43.9193 230.2
    endloop
  endfacet
  facet normal 0.661312 -0.750111 0
    outer loop
      vertex 39.0192 -41.5512 230.2
      vertex 36.3332 -43.9193 -244.8
      vertex 39.0192 -41.5512 -244.8
    endloop
  endfacet
  facet normal 0.707107 -0.707107 0
    outer loop
      vertex 39.0192 -41.5512 230.2
      vertex 41.5512 -39.0192 -244.8
      vertex 41.5512 -39.0192 230.2
    endloop
  endfacet
  facet normal 0.707107 -0.707107 0
    outer loop
      vertex 41.5512 -39.0192 -244.8
      vertex 39.0192 -41.5512 230.2
      vertex 39.0192 -41.5512 -244.8
    endloop
  endfacet
  facet normal 0.750111 -0.661312 0
    outer loop
      vertex 41.5512 -39.0192 230.2
      vertex 43.9193 -36.3332 -244.8
      vertex 43.9193 -36.3332 230.2
    endloop
  endfacet
  facet normal 0.750111 -0.661312 0
    outer loop
      vertex 43.9193 -36.3332 -244.8
      vertex 41.5512 -39.0192 230.2
      vertex 41.5512 -39.0192 -244.8
    endloop
  endfacet
  facet normal 0.790155 -0.612907 0
    outer loop
      vertex 43.9193 -36.3332 230.2
      vertex 46.114 -33.5038 -244.8
      vertex 46.114 -33.5038 230.2
    endloop
  endfacet
  facet normal 0.790155 -0.612907 0
    outer loop
      vertex 46.114 -33.5038 -244.8
      vertex 43.9193 -36.3332 230.2
      vertex 43.9193 -36.3332 -244.8
    endloop
  endfacet
  facet normal 0.827081 -0.562083 0
    outer loop
      vertex 46.114 -33.5038 230.2
      vertex 48.1267 -30.5421 -244.8
      vertex 48.1267 -30.5421 230.2
    endloop
  endfacet
  facet normal 0.827081 -0.562083 0
    outer loop
      vertex 48.1267 -30.5421 -244.8
      vertex 46.114 -33.5038 230.2
      vertex 46.114 -33.5038 -244.8
    endloop
  endfacet
  facet normal 0.860742 -0.509042 0
    outer loop
      vertex 48.1267 -30.5421 230.2
      vertex 49.9495 -27.46 -244.8
      vertex 49.9495 -27.46 230.2
    endloop
  endfacet
  facet normal 0.860742 -0.509042 0
    outer loop
      vertex 49.9495 -27.46 -244.8
      vertex 48.1267 -30.5421 230.2
      vertex 48.1267 -30.5421 -244.8
    endloop
  endfacet
  facet normal 0.891007 -0.45399 0
    outer loop
      vertex 49.9495 -27.46 230.2
      vertex 51.5751 -24.2694 -244.8
      vertex 51.5751 -24.2694 230.2
    endloop
  endfacet
  facet normal 0.891007 -0.45399 0
    outer loop
      vertex 51.5751 -24.2694 -244.8
      vertex 49.9495 -27.46 230.2
      vertex 49.9495 -27.46 -244.8
    endloop
  endfacet
  facet normal 0.917754 -0.397148 0
    outer loop
      vertex 51.5751 -24.2694 230.2
      vertex 52.9973 -20.9831 -244.8
      vertex 52.9973 -20.9831 230.2
    endloop
  endfacet
  facet normal 0.917754 -0.397148 0
    outer loop
      vertex 52.9973 -20.9831 -244.8
      vertex 51.5751 -24.2694 230.2
      vertex 51.5751 -24.2694 -244.8
    endloop
  endfacet
  facet normal 0.940881 -0.338737 0
    outer loop
      vertex 52.9973 -20.9831 230.2
      vertex 54.2102 -17.614 -244.8
      vertex 54.2102 -17.614 230.2
    endloop
  endfacet
  facet normal 0.940881 -0.338737 0
    outer loop
      vertex 54.2102 -17.614 -244.8
      vertex 52.9973 -20.9831 230.2
      vertex 52.9973 -20.9831 -244.8
    endloop
  endfacet
  facet normal 0.960294 -0.278991 0
    outer loop
      vertex 54.2102 -17.614 230.2
      vertex 55.2092 -14.1753 -244.8
      vertex 55.2092 -14.1753 230.2
    endloop
  endfacet
  facet normal 0.960294 -0.278991 0
    outer loop
      vertex 55.2092 -14.1753 -244.8
      vertex 54.2102 -17.614 230.2
      vertex 54.2102 -17.614 -244.8
    endloop
  endfacet
  facet normal 0.975917 -0.218143 0
    outer loop
      vertex 55.2092 -14.1753 230.2
      vertex 55.9904 -10.6807 -244.8
      vertex 55.9904 -10.6807 230.2
    endloop
  endfacet
  facet normal 0.975917 -0.218143 0
    outer loop
      vertex 55.9904 -10.6807 -244.8
      vertex 55.2092 -14.1753 230.2
      vertex 55.2092 -14.1753 -244.8
    endloop
  endfacet
  facet normal 0.987688 -0.156435 0
    outer loop
      vertex 55.9904 -10.6807 230.2
      vertex 56.5505 -7.14399 -244.8
      vertex 56.5505 -7.14399 230.2
    endloop
  endfacet
  facet normal 0.987688 -0.156435 0
    outer loop
      vertex 56.5505 -7.14399 -244.8
      vertex 55.9904 -10.6807 230.2
      vertex 55.9904 -10.6807 -244.8
    endloop
  endfacet
  facet normal 0.995562 -0.0941086 0
    outer loop
      vertex 56.5505 -7.14399 230.2
      vertex 56.8875 -3.57906 -244.8
      vertex 56.8875 -3.57906 230.2
    endloop
  endfacet
  facet normal 0.995562 -0.0941086 0
    outer loop
      vertex 56.8875 -3.57906 -244.8
      vertex 56.5505 -7.14399 230.2
      vertex 56.5505 -7.14399 -244.8
    endloop
  endfacet
  facet normal 0.999507 -0.0314107 0
    outer loop
      vertex 56.8875 -3.57906 230.2
      vertex 57 0 -244.8
      vertex 57 0 230.2
    endloop
  endfacet
  facet normal 0.999507 -0.0314107 0
    outer loop
      vertex 57 0 -244.8
      vertex 56.8875 -3.57906 230.2
      vertex 56.8875 -3.57906 -244.8
    endloop
  endfacet
  facet normal 0 0 1
    outer loop
      vertex 56.8875 3.57906 230.2
      vertex 56.8875 -3.57906 230.2
      vertex 57 0 230.2
    endloop
  endfacet
  facet normal 0 0 1
    outer loop
      vertex 56.5505 7.14399 230.2
      vertex 56.8875 -3.57906 230.2
      vertex 56.8875 3.57906 230.2
    endloop
  endfacet
  facet normal 0 0 1
    outer loop
      vertex 56.5505 7.14399 230.2
      vertex 56.5505 -7.14399 230.2
      vertex 56.8875 -3.57906 230.2
    endloop
  endfacet
  facet normal 0 0 1
    outer loop
      vertex 55.9904 10.6807 230.2
      vertex 56.5505 -7.14399 230.2
      vertex 56.5505 7.14399 230.2
    endloop
  endfacet
  facet normal 0 0 1
    outer loop
      vertex 55.9904 10.6807 230.2
      vertex 55.9904 -10.6807 230.2
      vertex 56.5505 -7.14399 230.2
    endloop
  endfacet
  facet normal 0 0 1
    outer loop
      vertex 55.2092 14.1753 230.2
      vertex 55.9904 -10.6807 230.2
      vertex 55.9904 10.6807 230.2
    endloop
  endfacet
  facet normal 0 0 1
    outer loop
      vertex 55.2092 14.1753 230.2
      vertex 55.2092 -14.1753 230.2
      vertex 55.9904 -10.6807 230.2
    endloop
  endfacet
  facet normal 0 0 1
    outer loop
      vertex 54.2102 17.614 230.2
      vertex 55.2092 -14.1753 230.2
      vertex 55.2092 14.1753 230.2
    endloop
  endfacet
  facet normal 0 0 1
    outer loop
      vertex 54.2102 17.614 230.2
      vertex 54.2102 -17.614 230.2
      vertex 55.2092 -14.1753 230.2
    endloop
  endfacet
  facet normal 0 0 1
    outer loop
      vertex 52.9973 20.9831 230.2
      vertex 54.2102 -17.614 230.2
      vertex 54.2102 17.614 230.2
    endloop
  endfacet
  facet normal 0 0 1
    outer loop
      vertex 52.9973 20.9831 230.2
      vertex 52.9973 -20.9831 230.2
      vertex 54.2102 -17.614 230.2
    endloop
  endfacet
  facet normal 0 0 1
    outer loop
      vertex 51.5751 24.2694 230.2
      vertex 52.9973 -20.9831 230.2
      vertex 52.9973 20.9831 230.2
    endloop
  endfacet
  facet normal 0 0 1
    outer loop
      vertex 51.5751 24.2694 230.2
      vertex 51.5751 -24.2694 230.2
      vertex 52.9973 -20.9831 230.2
    endloop
  endfacet
  facet normal 0 0 1
    outer loop
      vertex 49.9495 27.46 230.2
      vertex 51.5751 -24.2694 230.2
      vertex 51.5751 24.2694 230.2
    endloop
  endfacet
  facet normal 0 0 1
    outer loop
      vertex 49.9495 27.46 230.2
      vertex 49.9495 -27.46 230.2
      vertex 51.5751 -24.2694 230.2
    endloop
  endfacet
  facet normal 0 0 1
    outer loop
      vertex 48.1267 30.5421 230.2
      vertex 49.9495 -27.46 230.2
      vertex 49.9495 27.46 230.2
    endloop
  endfacet
  facet normal 0 0 1
    outer loop
      vertex 48.1267 30.5421 230.2
      vertex 48.1267 -30.5421 230.2
      vertex 49.9495 -27.46 230.2
    endloop
  endfacet
  facet normal 0 0 1
    outer loop
      vertex 46.114 33.5038 230.2
      vertex 48.1267 -30.5421 230.2
      vertex 48.1267 30.5421 230.2
    endloop
  endfacet
  facet normal 0 0 1
    outer loop
      vertex 46.114 33.5038 230.2
      vertex 46.114 -33.5038 230.2
      vertex 48.1267 -30.5421 230.2
    endloop
  endfacet
  facet normal 0 0 1
    outer loop
      vertex 43.9193 36.3332 230.2
      vertex 46.114 -33.5038 230.2
      vertex 46.114 33.5038 230.2
    endloop
  endfacet
  facet normal 0 0 1
    outer loop
      vertex 43.9193 36.3332 230.2
      vertex 43.9193 -36.3332 230.2
      vertex 46.114 -33.5038 230.2
    endloop
  endfacet
  facet normal 0 0 1
    outer loop
      vertex 41.5512 39.0192 230.2
      vertex 43.9193 -36.3332 230.2
      vertex 43.9193 36.3332 230.2
    endloop
  endfacet
  facet normal 0 0 1
    outer loop
      vertex 41.5512 39.0192 230.2
      vertex 41.5512 -39.0192 230.2
      vertex 43.9193 -36.3332 230.2
    endloop
  endfacet
  facet normal 0 0 1
    outer loop
      vertex 39.0192 41.5512 230.2
      vertex 41.5512 -39.0192 230.2
      vertex 41.5512 39.0192 230.2
    endloop
  endfacet
  facet normal 0 0 1
    outer loop
      vertex 39.0192 41.5512 230.2
      vertex 39.0192 -41.5512 230.2
      vertex 41.5512 -39.0192 230.2
    endloop
  endfacet
  facet normal 0 0 1
    outer loop
      vertex 36.3332 43.9193 230.2
      vertex 39.0192 -41.5512 230.2
      vertex 39.0192 41.5512 230.2
    endloop
  endfacet
  facet normal 0 0 1
    outer loop
      vertex 36.3332 43.9193 230.2
      vertex 36.3332 -43.9193 230.2
      vertex 39.0192 -41.5512 230.2
    endloop
  endfacet
  facet normal 0 0 1
    outer loop
      vertex 33.5038 46.114 230.2
      vertex 36.3332 -43.9193 230.2
      vertex 36.3332 43.9193 230.2
    endloop
  endfacet
  facet normal 0 0 1
    outer loop
      vertex 33.5038 46.114 230.2
      vertex 33.5038 -46.114 230.2
      vertex 36.3332 -43.9193 230.2
    endloop
  endfacet
  facet normal 0 0 1
    outer loop
      vertex 30.5421 48.1267 230.2
      vertex 33.5038 -46.114 230.2
      vertex 33.5038 46.114 230.2
    endloop
  endfacet
  facet normal 0 0 1
    outer loop
      vertex 30.5421 48.1267 230.2
      vertex 30.5421 -48.1267 230.2
      vertex 33.5038 -46.114 230.2
    endloop
  endfacet
  facet normal 0 0 1
    outer loop
      vertex 27.46 49.9495 230.2
      vertex 30.5421 -48.1267 230.2
      vertex 30.5421 48.1267 230.2
    endloop
  endfacet
  facet normal 0 0 1
    outer loop
      vertex 27.46 49.9495 230.2
      vertex 27.46 -49.9495 230.2
      vertex 30.5421 -48.1267 230.2
    endloop
  endfacet
  facet normal 0 0 1
    outer loop
      vertex 24.2694 51.5751 230.2
      vertex 27.46 -49.9495 230.2
      vertex 27.46 49.9495 230.2
    endloop
  endfacet
  facet normal 0 0 1
    outer loop
      vertex 24.2694 51.5751 230.2
      vertex 24.2694 -51.5751 230.2
      vertex 27.46 -49.9495 230.2
    endloop
  endfacet
  facet normal 0 0 1
    outer loop
      vertex 20.9831 52.9973 230.2
      vertex 24.2694 -51.5751 230.2
      vertex 24.2694 51.5751 230.2
    endloop
  endfacet
  facet normal 0 0 1
    outer loop
      vertex 20.9831 52.9973 230.2
      vertex 20.9831 -52.9973 230.2
      vertex 24.2694 -51.5751 230.2
    endloop
  endfacet
  facet normal 0 0 1
    outer loop
      vertex 17.614 54.2102 230.2
      vertex 20.9831 -52.9973 230.2
      vertex 20.9831 52.9973 230.2
    endloop
  endfacet
  facet normal 0 0 1
    outer loop
      vertex 17.614 54.2102 230.2
      vertex 17.614 -54.2102 230.2
      vertex 20.9831 -52.9973 230.2
    endloop
  endfacet
  facet normal 0 0 1
    outer loop
      vertex 14.1753 55.2092 230.2
      vertex 17.614 -54.2102 230.2
      vertex 17.614 54.2102 230.2
    endloop
  endfacet
  facet normal 0 0 1
    outer loop
      vertex 14.1753 55.2092 230.2
      vertex 14.1753 -55.2092 230.2
      vertex 17.614 -54.2102 230.2
    endloop
  endfacet
  facet normal 0 0 1
    outer loop
      vertex 10.6807 55.9904 230.2
      vertex 14.1753 -55.2092 230.2
      vertex 14.1753 55.2092 230.2
    endloop
  endfacet
  facet normal 0 0 1
    outer loop
      vertex 10.6807 55.9904 230.2
      vertex 10.6807 -55.9904 230.2
      vertex 14.1753 -55.2092 230.2
    endloop
  endfacet
  facet normal 0 0 1
    outer loop
      vertex 7.14399 56.5505 230.2
      vertex 10.6807 -55.9904 230.2
      vertex 10.6807 55.9904 230.2
    endloop
  endfacet
  facet normal 0 0 1
    outer loop
      vertex 7.14399 56.5505 230.2
      vertex 7.14399 -56.5505 230.2
      vertex 10.6807 -55.9904 230.2
    endloop
  endfacet
  facet normal 0 0 1
    outer loop
      vertex 3.57906 56.8875 230.2
      vertex 7.14399 -56.5505 230.2
      vertex 7.14399 56.5505 230.2
    endloop
  endfacet
  facet normal 0 0 1
    outer loop
      vertex 3.57906 56.8875 230.2
      vertex 3.57906 -56.8875 230.2
      vertex 7.14399 -56.5505 230.2
    endloop
  endfacet
  facet normal 0 0 1
    outer loop
      vertex 3.49024e-15 57 230.2
      vertex 3.57906 -56.8875 230.2
      vertex 3.57906 56.8875 230.2
    endloop
  endfacet
  facet normal 0 0 1
    outer loop
      vertex 3.49024e-15 57 230.2
      vertex -1.04707e-14 -57 230.2
      vertex 3.57906 -56.8875 230.2
    endloop
  endfacet
  facet normal -0 0 1
    outer loop
      vertex -3.57906 56.8875 230.2
      vertex -1.04707e-14 -57 230.2
      vertex 3.49024e-15 57 230.2
    endloop
  endfacet
  facet normal 0 0 1
    outer loop
      vertex -3.57906 56.8875 230.2
      vertex -3.57906 -56.8875 230.2
      vertex -1.04707e-14 -57 230.2
    endloop
  endfacet
  facet normal -0 0 1
    outer loop
      vertex -7.14399 56.5505 230.2
      vertex -3.57906 -56.8875 230.2
      vertex -3.57906 56.8875 230.2
    endloop
  endfacet
  facet normal 0 0 1
    outer loop
      vertex -7.14399 56.5505 230.2
      vertex -7.14399 -56.5505 230.2
      vertex -3.57906 -56.8875 230.2
    endloop
  endfacet
  facet normal -0 0 1
    outer loop
      vertex -10.6807 55.9904 230.2
      vertex -7.14399 -56.5505 230.2
      vertex -7.14399 56.5505 230.2
    endloop
  endfacet
  facet normal 0 0 1
    outer loop
      vertex -10.6807 55.9904 230.2
      vertex -10.6807 -55.9904 230.2
      vertex -7.14399 -56.5505 230.2
    endloop
  endfacet
  facet normal -0 0 1
    outer loop
      vertex -14.1753 55.2092 230.2
      vertex -10.6807 -55.9904 230.2
      vertex -10.6807 55.9904 230.2
    endloop
  endfacet
  facet normal 0 0 1
    outer loop
      vertex -14.1753 55.2092 230.2
      vertex -14.1753 -55.2092 230.2
      vertex -10.6807 -55.9904 230.2
    endloop
  endfacet
  facet normal -0 0 1
    outer loop
      vertex -17.614 54.2102 230.2
      vertex -14.1753 -55.2092 230.2
      vertex -14.1753 55.2092 230.2
    endloop
  endfacet
  facet normal 0 0 1
    outer loop
      vertex -17.614 54.2102 230.2
      vertex -17.614 -54.2102 230.2
      vertex -14.1753 -55.2092 230.2
    endloop
  endfacet
  facet normal -0 0 1
    outer loop
      vertex -20.9831 52.9973 230.2
      vertex -17.614 -54.2102 230.2
      vertex -17.614 54.2102 230.2
    endloop
  endfacet
  facet normal 0 0 1
    outer loop
      vertex -20.9831 52.9973 230.2
      vertex -20.9831 -52.9973 230.2
      vertex -17.614 -54.2102 230.2
    endloop
  endfacet
  facet normal -0 0 1
    outer loop
      vertex -24.2694 51.5751 230.2
      vertex -20.9831 -52.9973 230.2
      vertex -20.9831 52.9973 230.2
    endloop
  endfacet
  facet normal 0 0 1
    outer loop
      vertex -24.2694 51.5751 230.2
      vertex -24.2694 -51.5751 230.2
      vertex -20.9831 -52.9973 230.2
    endloop
  endfacet
  facet normal -0 0 1
    outer loop
      vertex -27.46 49.9495 230.2
      vertex -24.2694 -51.5751 230.2
      vertex -24.2694 51.5751 230.2
    endloop
  endfacet
  facet normal 0 0 1
    outer loop
      vertex -27.46 49.9495 230.2
      vertex -27.46 -49.9495 230.2
      vertex -24.2694 -51.5751 230.2
    endloop
  endfacet
  facet normal -0 0 1
    outer loop
      vertex -30.5421 48.1267 230.2
      vertex -27.46 -49.9495 230.2
      vertex -27.46 49.9495 230.2
    endloop
  endfacet
  facet normal 0 0 1
    outer loop
      vertex -30.5421 48.1267 230.2
      vertex -30.5421 -48.1267 230.2
      vertex -27.46 -49.9495 230.2
    endloop
  endfacet
  facet normal -0 0 1
    outer loop
      vertex -33.5038 46.114 230.2
      vertex -30.5421 -48.1267 230.2
      vertex -30.5421 48.1267 230.2
    endloop
  endfacet
  facet normal 0 0 1
    outer loop
      vertex -33.5038 46.114 230.2
      vertex -33.5038 -46.114 230.2
      vertex -30.5421 -48.1267 230.2
    endloop
  endfacet
  facet normal -0 0 1
    outer loop
      vertex -36.3332 43.9193 230.2
      vertex -33.5038 -46.114 230.2
      vertex -33.5038 46.114 230.2
    endloop
  endfacet
  facet normal 0 0 1
    outer loop
      vertex -36.3332 43.9193 230.2
      vertex -36.3332 -43.9193 230.2
      vertex -33.5038 -46.114 230.2
    endloop
  endfacet
  facet normal -0 0 1
    outer loop
      vertex -39.0192 41.5512 230.2
      vertex -36.3332 -43.9193 230.2
      vertex -36.3332 43.9193 230.2
    endloop
  endfacet
  facet normal 0 0 1
    outer loop
      vertex -39.0192 41.5512 230.2
      vertex -39.0192 -41.5512 230.2
      vertex -36.3332 -43.9193 230.2
    endloop
  endfacet
  facet normal -0 0 1
    outer loop
      vertex -41.5512 39.0192 230.2
      vertex -39.0192 -41.5512 230.2
      vertex -39.0192 41.5512 230.2
    endloop
  endfacet
  facet normal 0 0 1
    outer loop
      vertex -41.5512 39.0192 230.2
      vertex -41.5512 -39.0192 230.2
      vertex -39.0192 -41.5512 230.2
    endloop
  endfacet
  facet normal -0 0 1
    outer loop
      vertex -43.9193 36.3332 230.2
      vertex -41.5512 -39.0192 230.2
      vertex -41.5512 39.0192 230.2
    endloop
  endfacet
  facet normal 0 0 1
    outer loop
      vertex -43.9193 36.3332 230.2
      vertex -43.9193 -36.3332 230.2
      vertex -41.5512 -39.0192 230.2
    endloop
  endfacet
  facet normal -0 0 1
    outer loop
      vertex -46.114 33.5038 230.2
      vertex -43.9193 -36.3332 230.2
      vertex -43.9193 36.3332 230.2
    endloop
  endfacet
  facet normal 0 0 1
    outer loop
      vertex -46.114 33.5038 230.2
      vertex -46.114 -33.5038 230.2
      vertex -43.9193 -36.3332 230.2
    endloop
  endfacet
  facet normal -0 0 1
    outer loop
      vertex -48.1267 30.5421 230.2
      vertex -46.114 -33.5038 230.2
      vertex -46.114 33.5038 230.2
    endloop
  endfacet
  facet normal 0 0 1
    outer loop
      vertex -48.1267 30.5421 230.2
      vertex -48.1267 -30.5421 230.2
      vertex -46.114 -33.5038 230.2
    endloop
  endfacet
  facet normal -0 0 1
    outer loop
      vertex -49.9495 27.46 230.2
      vertex -48.1267 -30.5421 230.2
      vertex -48.1267 30.5421 230.2
    endloop
  endfacet
  facet normal 0 0 1
    outer loop
      vertex -49.9495 27.46 230.2
      vertex -49.9495 -27.46 230.2
      vertex -48.1267 -30.5421 230.2
    endloop
  endfacet
  facet normal -0 0 1
    outer loop
      vertex -51.5751 24.2694 230.2
      vertex -49.9495 -27.46 230.2
      vertex -49.9495 27.46 230.2
    endloop
  endfacet
  facet normal 0 0 1
    outer loop
      vertex -51.5751 24.2694 230.2
      vertex -51.5751 -24.2694 230.2
      vertex -49.9495 -27.46 230.2
    endloop
  endfacet
  facet normal -0 0 1
    outer loop
      vertex -52.9973 20.9831 230.2
      vertex -51.5751 -24.2694 230.2
      vertex -51.5751 24.2694 230.2
    endloop
  endfacet
  facet normal 0 0 1
    outer loop
      vertex -52.9973 20.9831 230.2
      vertex -52.9973 -20.9831 230.2
      vertex -51.5751 -24.2694 230.2
    endloop
  endfacet
  facet normal -0 0 1
    outer loop
      vertex -54.2102 17.614 230.2
      vertex -52.9973 -20.9831 230.2
      vertex -52.9973 20.9831 230.2
    endloop
  endfacet
  facet normal 0 0 1
    outer loop
      vertex -54.2102 17.614 230.2
      vertex -54.2102 -17.614 230.2
      vertex -52.9973 -20.9831 230.2
    endloop
  endfacet
  facet normal -0 0 1
    outer loop
      vertex -55.2092 14.1753 230.2
      vertex -54.2102 -17.614 230.2
      vertex -54.2102 17.614 230.2
    endloop
  endfacet
  facet normal 0 0 1
    outer loop
      vertex -55.2092 14.1753 230.2
      vertex -55.2092 -14.1753 230.2
      vertex -54.2102 -17.614 230.2
    endloop
  endfacet
  facet normal -0 0 1
    outer loop
      vertex -55.9904 10.6807 230.2
      vertex -55.2092 -14.1753 230.2
      vertex -55.2092 14.1753 230.2
    endloop
  endfacet
  facet normal 0 0 1
    outer loop
      vertex -55.9904 10.6807 230.2
      vertex -55.9904 -10.6807 230.2
      vertex -55.2092 -14.1753 230.2
    endloop
  endfacet
  facet normal -0 0 1
    outer loop
      vertex -56.5505 7.14399 230.2
      vertex -55.9904 -10.6807 230.2
      vertex -55.9904 10.6807 230.2
    endloop
  endfacet
  facet normal 0 0 1
    outer loop
      vertex -56.5505 7.14399 230.2
      vertex -56.5505 -7.14399 230.2
      vertex -55.9904 -10.6807 230.2
    endloop
  endfacet
  facet normal -0 0 1
    outer loop
      vertex -56.8875 3.57906 230.2
      vertex -56.5505 -7.14399 230.2
      vertex -56.5505 7.14399 230.2
    endloop
  endfacet
  facet normal 0 0 1
    outer loop
      vertex -56.8875 3.57906 230.2
      vertex -56.8875 -3.57906 230.2
      vertex -56.5505 -7.14399 230.2
    endloop
  endfacet
  facet normal 0 -0 1
    outer loop
      vertex -56.8875 -3.57906 230.2
      vertex -56.8875 3.57906 230.2
      vertex -57 6.98049e-15 230.2
    endloop
  endfacet
  facet normal 0 0 -1
    outer loop
      vertex 56.8875 -3.57906 -244.8
      vertex 56.8875 3.57906 -244.8
      vertex 57 0 -244.8
    endloop
  endfacet
  facet normal 0 0 -1
    outer loop
      vertex 56.5505 -7.14399 -244.8
      vertex 56.8875 3.57906 -244.8
      vertex 56.8875 -3.57906 -244.8
    endloop
  endfacet
  facet normal 0 0 -1
    outer loop
      vertex 56.5505 -7.14399 -244.8
      vertex 56.5505 7.14399 -244.8
      vertex 56.8875 3.57906 -244.8
    endloop
  endfacet
  facet normal 0 0 -1
    outer loop
      vertex 55.9904 -10.6807 -244.8
      vertex 56.5505 7.14399 -244.8
      vertex 56.5505 -7.14399 -244.8
    endloop
  endfacet
  facet normal 0 0 -1
    outer loop
      vertex 55.9904 -10.6807 -244.8
      vertex 55.9904 10.6807 -244.8
      vertex 56.5505 7.14399 -244.8
    endloop
  endfacet
  facet normal 0 0 -1
    outer loop
      vertex 55.2092 -14.1753 -244.8
      vertex 55.9904 10.6807 -244.8
      vertex 55.9904 -10.6807 -244.8
    endloop
  endfacet
  facet normal 0 0 -1
    outer loop
      vertex 55.2092 -14.1753 -244.8
      vertex 55.2092 14.1753 -244.8
      vertex 55.9904 10.6807 -244.8
    endloop
  endfacet
  facet normal 0 0 -1
    outer loop
      vertex 54.2102 -17.614 -244.8
      vertex 55.2092 14.1753 -244.8
      vertex 55.2092 -14.1753 -244.8
    endloop
  endfacet
  facet normal 0 0 -1
    outer loop
      vertex 54.2102 -17.614 -244.8
      vertex 54.2102 17.614 -244.8
      vertex 55.2092 14.1753 -244.8
    endloop
  endfacet
  facet normal 0 0 -1
    outer loop
      vertex 52.9973 -20.9831 -244.8
      vertex 54.2102 17.614 -244.8
      vertex 54.2102 -17.614 -244.8
    endloop
  endfacet
  facet normal 0 0 -1
    outer loop
      vertex 52.9973 -20.9831 -244.8
      vertex 52.9973 20.9831 -244.8
      vertex 54.2102 17.614 -244.8
    endloop
  endfacet
  facet normal 0 0 -1
    outer loop
      vertex 51.5751 -24.2694 -244.8
      vertex 52.9973 20.9831 -244.8
      vertex 52.9973 -20.9831 -244.8
    endloop
  endfacet
  facet normal 0 0 -1
    outer loop
      vertex 51.5751 -24.2694 -244.8
      vertex 51.5751 24.2694 -244.8
      vertex 52.9973 20.9831 -244.8
    endloop
  endfacet
  facet normal 0 0 -1
    outer loop
      vertex 49.9495 -27.46 -244.8
      vertex 51.5751 24.2694 -244.8
      vertex 51.5751 -24.2694 -244.8
    endloop
  endfacet
  facet normal 0 0 -1
    outer loop
      vertex 49.9495 -27.46 -244.8
      vertex 49.9495 27.46 -244.8
      vertex 51.5751 24.2694 -244.8
    endloop
  endfacet
  facet normal 0 0 -1
    outer loop
      vertex 48.1267 -30.5421 -244.8
      vertex 49.9495 27.46 -244.8
      vertex 49.9495 -27.46 -244.8
    endloop
  endfacet
  facet normal 0 0 -1
    outer loop
      vertex 48.1267 -30.5421 -244.8
      vertex 48.1267 30.5421 -244.8
      vertex 49.9495 27.46 -244.8
    endloop
  endfacet
  facet normal 0 0 -1
    outer loop
      vertex 46.114 -33.5038 -244.8
      vertex 48.1267 30.5421 -244.8
      vertex 48.1267 -30.5421 -244.8
    endloop
  endfacet
  facet normal 0 0 -1
    outer loop
      vertex 46.114 -33.5038 -244.8
      vertex 46.114 33.5038 -244.8
      vertex 48.1267 30.5421 -244.8
    endloop
  endfacet
  facet normal 0 0 -1
    outer loop
      vertex 43.9193 -36.3332 -244.8
      vertex 46.114 33.5038 -244.8
      vertex 46.114 -33.5038 -244.8
    endloop
  endfacet
  facet normal 0 0 -1
    outer loop
      vertex 43.9193 -36.3332 -244.8
      vertex 43.9193 36.3332 -244.8
      vertex 46.114 33.5038 -244.8
    endloop
  endfacet
  facet normal 0 0 -1
    outer loop
      vertex 41.5512 -39.0192 -244.8
      vertex 43.9193 36.3332 -244.8
      vertex 43.9193 -36.3332 -244.8
    endloop
  endfacet
  facet normal 0 0 -1
    outer loop
      vertex 41.5512 -39.0192 -244.8
      vertex 41.5512 39.0192 -244.8
      vertex 43.9193 36.3332 -244.8
    endloop
  endfacet
  facet normal 0 0 -1
    outer loop
      vertex 39.0192 -41.5512 -244.8
      vertex 41.5512 39.0192 -244.8
      vertex 41.5512 -39.0192 -244.8
    endloop
  endfacet
  facet normal 0 0 -1
    outer loop
      vertex 39.0192 -41.5512 -244.8
      vertex 39.0192 41.5512 -244.8
      vertex 41.5512 39.0192 -244.8
    endloop
  endfacet
  facet normal 0 0 -1
    outer loop
      vertex 36.3332 -43.9193 -244.8
      vertex 39.0192 41.5512 -244.8
      vertex 39.0192 -41.5512 -244.8
    endloop
  endfacet
  facet normal 0 0 -1
    outer loop
      vertex 36.3332 -43.9193 -244.8
      vertex 36.3332 43.9193 -244.8
      vertex 39.0192 41.5512 -244.8
    endloop
  endfacet
  facet normal 0 0 -1
    outer loop
      vertex 33.5038 -46.114 -244.8
      vertex 36.3332 43.9193 -244.8
      vertex 36.3332 -43.9193 -244.8
    endloop
  endfacet
  facet normal 0 0 -1
    outer loop
      vertex 33.5038 -46.114 -244.8
      vertex 33.5038 46.114 -244.8
      vertex 36.3332 43.9193 -244.8
    endloop
  endfacet
  facet normal 0 0 -1
    outer loop
      vertex 30.5421 -48.1267 -244.8
      vertex 33.5038 46.114 -244.8
      vertex 33.5038 -46.114 -244.8
    endloop
  endfacet
  facet normal 0 0 -1
    outer loop
      vertex 30.5421 -48.1267 -244.8
      vertex 30.5421 48.1267 -244.8
      vertex 33.5038 46.114 -244.8
    endloop
  endfacet
  facet normal 0 0 -1
    outer loop
      vertex 27.46 -49.9495 -244.8
      vertex 30.5421 48.1267 -244.8
      vertex 30.5421 -48.1267 -244.8
    endloop
  endfacet
  facet normal 0 0 -1
    outer loop
      vertex 27.46 -49.9495 -244.8
      vertex 27.46 49.9495 -244.8
      vertex 30.5421 48.1267 -244.8
    endloop
  endfacet
  facet normal 0 0 -1
    outer loop
      vertex 24.2694 -51.5751 -244.8
      vertex 27.46 49.9495 -244.8
      vertex 27.46 -49.9495 -244.8
    endloop
  endfacet
  facet normal 0 0 -1
    outer loop
      vertex 24.2694 -51.5751 -244.8
      vertex 24.2694 51.5751 -244.8
      vertex 27.46 49.9495 -244.8
    endloop
  endfacet
  facet normal 0 0 -1
    outer loop
      vertex 20.9831 -52.9973 -244.8
      vertex 24.2694 51.5751 -244.8
      vertex 24.2694 -51.5751 -244.8
    endloop
  endfacet
  facet normal 0 0 -1
    outer loop
      vertex 20.9831 -52.9973 -244.8
      vertex 20.9831 52.9973 -244.8
      vertex 24.2694 51.5751 -244.8
    endloop
  endfacet
  facet normal 0 0 -1
    outer loop
      vertex 17.614 -54.2102 -244.8
      vertex 20.9831 52.9973 -244.8
      vertex 20.9831 -52.9973 -244.8
    endloop
  endfacet
  facet normal 0 0 -1
    outer loop
      vertex 17.614 -54.2102 -244.8
      vertex 17.614 54.2102 -244.8
      vertex 20.9831 52.9973 -244.8
    endloop
  endfacet
  facet normal 0 0 -1
    outer loop
      vertex 14.1753 -55.2092 -244.8
      vertex 17.614 54.2102 -244.8
      vertex 17.614 -54.2102 -244.8
    endloop
  endfacet
  facet normal 0 0 -1
    outer loop
      vertex 14.1753 -55.2092 -244.8
      vertex 14.1753 55.2092 -244.8
      vertex 17.614 54.2102 -244.8
    endloop
  endfacet
  facet normal 0 0 -1
    outer loop
      vertex 10.6807 -55.9904 -244.8
      vertex 14.1753 55.2092 -244.8
      vertex 14.1753 -55.2092 -244.8
    endloop
  endfacet
  facet normal 0 0 -1
    outer loop
      vertex 10.6807 -55.9904 -244.8
      vertex 10.6807 55.9904 -244.8
      vertex 14.1753 55.2092 -244.8
    endloop
  endfacet
  facet normal 0 0 -1
    outer loop
      vertex 7.14399 -56.5505 -244.8
      vertex 10.6807 55.9904 -244.8
      vertex 10.6807 -55.9904 -244.8
    endloop
  endfacet
  facet normal 0 0 -1
    outer loop
      vertex 7.14399 -56.5505 -244.8
      vertex 7.14399 56.5505 -244.8
      vertex 10.6807 55.9904 -244.8
    endloop
  endfacet
  facet normal 0 0 -1
    outer loop
      vertex 3.57906 -56.8875 -244.8
      vertex 7.14399 56.5505 -244.8
      vertex 7.14399 -56.5505 -244.8
    endloop
  endfacet
  facet normal 0 0 -1
    outer loop
      vertex 3.57906 -56.8875 -244.8
      vertex 3.57906 56.8875 -244.8
      vertex 7.14399 56.5505 -244.8
    endloop
  endfacet
  facet normal 0 0 -1
    outer loop
      vertex 3.57906 -56.8875 -244.8
      vertex 3.49024e-15 57 -244.8
      vertex 3.57906 56.8875 -244.8
    endloop
  endfacet
  facet normal 0 0 -1
    outer loop
      vertex -1.04707e-14 -57 -244.8
      vertex 3.49024e-15 57 -244.8
      vertex 3.57906 -56.8875 -244.8
    endloop
  endfacet
  facet normal 0 0 -1
    outer loop
      vertex -3.57906 -56.8875 -244.8
      vertex 3.49024e-15 57 -244.8
      vertex -1.04707e-14 -57 -244.8
    endloop
  endfacet
  facet normal 0 0 -1
    outer loop
      vertex -3.57906 -56.8875 -244.8
      vertex -3.57906 56.8875 -244.8
      vertex 3.49024e-15 57 -244.8
    endloop
  endfacet
  facet normal 0 0 -1
    outer loop
      vertex -7.14399 -56.5505 -244.8
      vertex -3.57906 56.8875 -244.8
      vertex -3.57906 -56.8875 -244.8
    endloop
  endfacet
  facet normal 0 0 -1
    outer loop
      vertex -7.14399 -56.5505 -244.8
      vertex -7.14399 56.5505 -244.8
      vertex -3.57906 56.8875 -244.8
    endloop
  endfacet
  facet normal 0 0 -1
    outer loop
      vertex -10.6807 -55.9904 -244.8
      vertex -7.14399 56.5505 -244.8
      vertex -7.14399 -56.5505 -244.8
    endloop
  endfacet
  facet normal 0 0 -1
    outer loop
      vertex -10.6807 -55.9904 -244.8
      vertex -10.6807 55.9904 -244.8
      vertex -7.14399 56.5505 -244.8
    endloop
  endfacet
  facet normal 0 0 -1
    outer loop
      vertex -14.1753 -55.2092 -244.8
      vertex -10.6807 55.9904 -244.8
      vertex -10.6807 -55.9904 -244.8
    endloop
  endfacet
  facet normal 0 0 -1
    outer loop
      vertex -14.1753 -55.2092 -244.8
      vertex -14.1753 55.2092 -244.8
      vertex -10.6807 55.9904 -244.8
    endloop
  endfacet
  facet normal 0 0 -1
    outer loop
      vertex -17.614 -54.2102 -244.8
      vertex -14.1753 55.2092 -244.8
      vertex -14.1753 -55.2092 -244.8
    endloop
  endfacet
  facet normal 0 0 -1
    outer loop
      vertex -17.614 -54.2102 -244.8
      vertex -17.614 54.2102 -244.8
      vertex -14.1753 55.2092 -244.8
    endloop
  endfacet
  facet normal 0 0 -1
    outer loop
      vertex -20.9831 -52.9973 -244.8
      vertex -17.614 54.2102 -244.8
      vertex -17.614 -54.2102 -244.8
    endloop
  endfacet
  facet normal 0 0 -1
    outer loop
      vertex -20.9831 -52.9973 -244.8
      vertex -20.9831 52.9973 -244.8
      vertex -17.614 54.2102 -244.8
    endloop
  endfacet
  facet normal 0 0 -1
    outer loop
      vertex -24.2694 -51.5751 -244.8
      vertex -20.9831 52.9973 -244.8
      vertex -20.9831 -52.9973 -244.8
    endloop
  endfacet
  facet normal 0 0 -1
    outer loop
      vertex -24.2694 -51.5751 -244.8
      vertex -24.2694 51.5751 -244.8
      vertex -20.9831 52.9973 -244.8
    endloop
  endfacet
  facet normal 0 0 -1
    outer loop
      vertex -27.46 -49.9495 -244.8
      vertex -24.2694 51.5751 -244.8
      vertex -24.2694 -51.5751 -244.8
    endloop
  endfacet
  facet normal 0 0 -1
    outer loop
      vertex -27.46 -49.9495 -244.8
      vertex -27.46 49.9495 -244.8
      vertex -24.2694 51.5751 -244.8
    endloop
  endfacet
  facet normal 0 0 -1
    outer loop
      vertex -30.5421 -48.1267 -244.8
      vertex -27.46 49.9495 -244.8
      vertex -27.46 -49.9495 -244.8
    endloop
  endfacet
  facet normal 0 0 -1
    outer loop
      vertex -30.5421 -48.1267 -244.8
      vertex -30.5421 48.1267 -244.8
      vertex -27.46 49.9495 -244.8
    endloop
  endfacet
  facet normal 0 0 -1
    outer loop
      vertex -33.5038 -46.114 -244.8
      vertex -30.5421 48.1267 -244.8
      vertex -30.5421 -48.1267 -244.8
    endloop
  endfacet
  facet normal 0 0 -1
    outer loop
      vertex -33.5038 -46.114 -244.8
      vertex -33.5038 46.114 -244.8
      vertex -30.5421 48.1267 -244.8
    endloop
  endfacet
  facet normal 0 0 -1
    outer loop
      vertex -36.3332 -43.9193 -244.8
      vertex -33.5038 46.114 -244.8
      vertex -33.5038 -46.114 -244.8
    endloop
  endfacet
  facet normal 0 0 -1
    outer loop
      vertex -36.3332 -43.9193 -244.8
      vertex -36.3332 43.9193 -244.8
      vertex -33.5038 46.114 -244.8
    endloop
  endfacet
  facet normal 0 0 -1
    outer loop
      vertex -39.0192 -41.5512 -244.8
      vertex -36.3332 43.9193 -244.8
      vertex -36.3332 -43.9193 -244.8
    endloop
  endfacet
  facet normal 0 0 -1
    outer loop
      vertex -39.0192 -41.5512 -244.8
      vertex -39.0192 41.5512 -244.8
      vertex -36.3332 43.9193 -244.8
    endloop
  endfacet
  facet normal 0 0 -1
    outer loop
      vertex -41.5512 -39.0192 -244.8
      vertex -39.0192 41.5512 -244.8
      vertex -39.0192 -41.5512 -244.8
    endloop
  endfacet
  facet normal 0 0 -1
    outer loop
      vertex -41.5512 -39.0192 -244.8
      vertex -41.5512 39.0192 -244.8
      vertex -39.0192 41.5512 -244.8
    endloop
  endfacet
  facet normal 0 0 -1
    outer loop
      vertex -43.9193 -36.3332 -244.8
      vertex -41.5512 39.0192 -244.8
      vertex -41.5512 -39.0192 -244.8
    endloop
  endfacet
  facet normal 0 0 -1
    outer loop
      vertex -43.9193 -36.3332 -244.8
      vertex -43.9193 36.3332 -244.8
      vertex -41.5512 39.0192 -244.8
    endloop
  endfacet
  facet normal 0 0 -1
    outer loop
      vertex -46.114 -33.5038 -244.8
      vertex -43.9193 36.3332 -244.8
      vertex -43.9193 -36.3332 -244.8
    endloop
  endfacet
  facet normal 0 0 -1
    outer loop
      vertex -46.114 -33.5038 -244.8
      vertex -46.114 33.5038 -244.8
      vertex -43.9193 36.3332 -244.8
    endloop
  endfacet
  facet normal 0 0 -1
    outer loop
      vertex -48.1267 -30.5421 -244.8
      vertex -46.114 33.5038 -244.8
      vertex -46.114 -33.5038 -244.8
    endloop
  endfacet
  facet normal 0 0 -1
    outer loop
      vertex -48.1267 -30.5421 -244.8
      vertex -48.1267 30.5421 -244.8
      vertex -46.114 33.5038 -244.8
    endloop
  endfacet
  facet normal 0 0 -1
    outer loop
      vertex -49.9495 -27.46 -244.8
      vertex -48.1267 30.5421 -244.8
      vertex -48.1267 -30.5421 -244.8
    endloop
  endfacet
  facet normal 0 0 -1
    outer loop
      vertex -49.9495 -27.46 -244.8
      vertex -49.9495 27.46 -244.8
      vertex -48.1267 30.5421 -244.8
    endloop
  endfacet
  facet normal 0 0 -1
    outer loop
      vertex -51.5751 -24.2694 -244.8
      vertex -49.9495 27.46 -244.8
      vertex -49.9495 -27.46 -244.8
    endloop
  endfacet
  facet normal 0 0 -1
    outer loop
      vertex -51.5751 -24.2694 -244.8
      vertex -51.5751 24.2694 -244.8
      vertex -49.9495 27.46 -244.8
    endloop
  endfacet
  facet normal 0 0 -1
    outer loop
      vertex -52.9973 -20.9831 -244.8
      vertex -51.5751 24.2694 -244.8
      vertex -51.5751 -24.2694 -244.8
    endloop
  endfacet
  facet normal 0 0 -1
    outer loop
      vertex -52.9973 -20.9831 -244.8
      vertex -52.9973 20.9831 -244.8
      vertex -51.5751 24.2694 -244.8
    endloop
  endfacet
  facet normal 0 0 -1
    outer loop
      vertex -54.2102 -17.614 -244.8
      vertex -52.9973 20.9831 -244.8
      vertex -52.9973 -20.9831 -244.8
    endloop
  endfacet
  facet normal 0 0 -1
    outer loop
      vertex -54.2102 -17.614 -244.8
      vertex -54.2102 17.614 -244.8
      vertex -52.9973 20.9831 -244.8
    endloop
  endfacet
  facet normal 0 0 -1
    outer loop
      vertex -55.2092 -14.1753 -244.8
      vertex -54.2102 17.614 -244.8
      vertex -54.2102 -17.614 -244.8
    endloop
  endfacet
  facet normal 0 0 -1
    outer loop
      vertex -55.2092 -14.1753 -244.8
      vertex -55.2092 14.1753 -244.8
      vertex -54.2102 17.614 -244.8
    endloop
  endfacet
  facet normal 0 0 -1
    outer loop
      vertex -55.9904 -10.6807 -244.8
      vertex -55.2092 14.1753 -244.8
      vertex -55.2092 -14.1753 -244.8
    endloop
  endfacet
  facet normal 0 0 -1
    outer loop
      vertex -55.9904 -10.6807 -244.8
      vertex -55.9904 10.6807 -244.8
      vertex -55.2092 14.1753 -244.8
    endloop
  endfacet
  facet normal 0 0 -1
    outer loop
      vertex -56.5505 -7.14399 -244.8
      vertex -55.9904 10.6807 -244.8
      vertex -55.9904 -10.6807 -244.8
    endloop
  endfacet
  facet normal 0 0 -1
    outer loop
      vertex -56.5505 -7.14399 -244.8
      vertex -56.5505 7.14399 -244.8
      vertex -55.9904 10.6807 -244.8
    endloop
  endfacet
  facet normal 0 0 -1
    outer loop
      vertex -56.8875 -3.57906 -244.8
      vertex -56.5505 7.14399 -244.8
      vertex -56.5505 -7.14399 -244.8
    endloop
  endfacet
  facet normal 0 0 -1
    outer loop
      vertex -56.8875 -3.57906 -244.8
      vertex -56.8875 3.57906 -244.8
      vertex -56.5505 7.14399 -244.8
    endloop
  endfacet
  facet normal 0 -0 -1
    outer loop
      vertex -56.8875 3.57906 -244.8
      vertex -56.8875 -3.57906 -244.8
      vertex -57 6.98049e-15 -244.8
    endloop
  endfacet
endsolid OpenSCAD_Model
