solid OpenSCAD_Model
  facet normal 0.994522 0.104529 0
    outer loop
      vertex 75 0 246.2
      vertex 73.3611 15.5934 -263.8
      vertex 73.3611 15.5934 246.2
    endloop
  endfacet
  facet normal 0.994522 0.104529 0
    outer loop
      vertex 73.3611 15.5934 -263.8
      vertex 75 0 246.2
      vertex 75 0 -263.8
    endloop
  endfacet
  facet normal 0.951057 0.309017 0
    outer loop
      vertex 73.3611 15.5934 246.2
      vertex 68.5159 30.5052 -263.8
      vertex 68.5159 30.5052 246.2
    endloop
  endfacet
  facet normal 0.951057 0.309017 0
    outer loop
      vertex 68.5159 30.5052 -263.8
      vertex 73.3611 15.5934 246.2
      vertex 73.3611 15.5934 -263.8
    endloop
  endfacet
  facet normal 0.866025 0.5 0
    outer loop
      vertex 68.5159 30.5052 246.2
      vertex 60.6763 44.0839 -263.8
      vertex 60.6763 44.0839 246.2
    endloop
  endfacet
  facet normal 0.866025 0.5 0
    outer loop
      vertex 60.6763 44.0839 -263.8
      vertex 68.5159 30.5052 246.2
      vertex 68.5159 30.5052 -263.8
    endloop
  endfacet
  facet normal 0.743145 0.669131 0
    outer loop
      vertex 60.6763 44.0839 246.2
      vertex 50.1848 55.7359 -263.8
      vertex 50.1848 55.7359 246.2
    endloop
  endfacet
  facet normal 0.743145 0.669131 0
    outer loop
      vertex 50.1848 55.7359 -263.8
      vertex 60.6763 44.0839 246.2
      vertex 60.6763 44.0839 -263.8
    endloop
  endfacet
  facet normal 0.587785 0.809017 -0
    outer loop
      vertex 50.1848 55.7359 -263.8
      vertex 37.5 64.9519 246.2
      vertex 50.1848 55.7359 246.2
    endloop
  endfacet
  facet normal 0.587785 0.809017 0
    outer loop
      vertex 37.5 64.9519 246.2
      vertex 50.1848 55.7359 -263.8
      vertex 37.5 64.9519 -263.8
    endloop
  endfacet
  facet normal 0.406737 0.913545 -0
    outer loop
      vertex 37.5 64.9519 -263.8
      vertex 23.1763 71.3292 246.2
      vertex 37.5 64.9519 246.2
    endloop
  endfacet
  facet normal 0.406737 0.913545 0
    outer loop
      vertex 23.1763 71.3292 246.2
      vertex 37.5 64.9519 -263.8
      vertex 23.1763 71.3292 -263.8
    endloop
  endfacet
  facet normal 0.207912 0.978148 -0
    outer loop
      vertex 23.1763 71.3292 -263.8
      vertex 7.83963 74.5891 246.2
      vertex 23.1763 71.3292 246.2
    endloop
  endfacet
  facet normal 0.207912 0.978148 0
    outer loop
      vertex 7.83963 74.5891 246.2
      vertex 23.1763 71.3292 -263.8
      vertex 7.83963 74.5891 -263.8
    endloop
  endfacet
  facet normal 0 1 -0
    outer loop
      vertex 7.83963 74.5891 -263.8
      vertex -7.83963 74.5891 246.2
      vertex 7.83963 74.5891 246.2
    endloop
  endfacet
  facet normal 0 1 0
    outer loop
      vertex -7.83963 74.5891 246.2
      vertex 7.83963 74.5891 -263.8
      vertex -7.83963 74.5891 -263.8
    endloop
  endfacet
  facet normal -0.207912 0.978148 0
    outer loop
      vertex -7.83963 74.5891 -263.8
      vertex -23.1763 71.3292 246.2
      vertex -7.83963 74.5891 246.2
    endloop
  endfacet
  facet normal -0.207912 0.978148 0
    outer loop
      vertex -23.1763 71.3292 246.2
      vertex -7.83963 74.5891 -263.8
      vertex -23.1763 71.3292 -263.8
    endloop
  endfacet
  facet normal -0.406737 0.913545 0
    outer loop
      vertex -23.1763 71.3292 -263.8
      vertex -37.5 64.9519 246.2
      vertex -23.1763 71.3292 246.2
    endloop
  endfacet
  facet normal -0.406737 0.913545 0
    outer loop
      vertex -37.5 64.9519 246.2
      vertex -23.1763 71.3292 -263.8
      vertex -37.5 64.9519 -263.8
    endloop
  endfacet
  facet normal -0.587785 0.809017 0
    outer loop
      vertex -37.5 64.9519 -263.8
      vertex -50.1848 55.7359 246.2
      vertex -37.5 64.9519 246.2
    endloop
  endfacet
  facet normal -0.587785 0.809017 0
    outer loop
      vertex -50.1848 55.7359 246.2
      vertex -37.5 64.9519 -263.8
      vertex -50.1848 55.7359 -263.8
    endloop
  endfacet
  facet normal -0.743145 0.669131 0
    outer loop
      vertex -60.6763 44.0839 -263.8
      vertex -50.1848 55.7359 246.2
      vertex -50.1848 55.7359 -263.8
    endloop
  endfacet
  facet normal -0.743145 0.669131 0
    outer loop
      vertex -50.1848 55.7359 246.2
      vertex -60.6763 44.0839 -263.8
      vertex -60.6763 44.0839 246.2
    endloop
  endfacet
  facet normal -0.866025 0.5 0
    outer loop
      vertex -68.5159 30.5052 -263.8
      vertex -60.6763 44.0839 246.2
      vertex -60.6763 44.0839 -263.8
    endloop
  endfacet
  facet normal -0.866025 0.5 0
    outer loop
      vertex -60.6763 44.0839 246.2
      vertex -68.5159 30.5052 -263.8
      vertex -68.5159 30.5052 246.2
    endloop
  endfacet
  facet normal -0.951057 0.309017 0
    outer loop
      vertex -73.3611 15.5934 -263.8
      vertex -68.5159 30.5052 246.2
      vertex -68.5159 30.5052 -263.8
    endloop
  endfacet
  facet normal -0.951057 0.309017 0
    outer loop
      vertex -68.5159 30.5052 246.2
      vertex -73.3611 15.5934 -263.8
      vertex -73.3611 15.5934 246.2
    endloop
  endfacet
  facet normal -0.994522 0.104529 0
    outer loop
      vertex -75 4.24915e-14 -263.8
      vertex -73.3611 15.5934 246.2
      vertex -73.3611 15.5934 -263.8
    endloop
  endfacet
  facet normal -0.994522 0.104529 0
    outer loop
      vertex -73.3611 15.5934 246.2
      vertex -75 4.24915e-14 -263.8
      vertex -75 4.24915e-14 246.2
    endloop
  endfacet
  facet normal -0.994522 -0.104529 0
    outer loop
      vertex -73.3611 -15.5934 -263.8
      vertex -75 4.24915e-14 246.2
      vertex -75 4.24915e-14 -263.8
    endloop
  endfacet
  facet normal -0.994522 -0.104529 0
    outer loop
      vertex -75 4.24915e-14 246.2
      vertex -73.3611 -15.5934 -263.8
      vertex -73.3611 -15.5934 246.2
    endloop
  endfacet
  facet normal -0.951057 -0.309017 0
    outer loop
      vertex -68.5159 -30.5052 -263.8
      vertex -73.3611 -15.5934 246.2
      vertex -73.3611 -15.5934 -263.8
    endloop
  endfacet
  facet normal -0.951057 -0.309017 0
    outer loop
      vertex -73.3611 -15.5934 246.2
      vertex -68.5159 -30.5052 -263.8
      vertex -68.5159 -30.5052 246.2
    endloop
  endfacet
  facet normal -0.866025 -0.5 0
    outer loop
      vertex -60.6763 -44.0839 -263.8
      vertex -68.5159 -30.5052 246.2
      vertex -68.5159 -30.5052 -263.8
    endloop
  endfacet
  facet normal -0.866025 -0.5 0
    outer loop
      vertex -68.5159 -30.5052 246.2
      vertex -60.6763 -44.0839 -263.8
      vertex -60.6763 -44.0839 246.2
    endloop
  endfacet
  facet normal -0.743145 -0.669131 0
    outer loop
      vertex -50.1848 -55.7359 -263.8
      vertex -60.6763 -44.0839 246.2
      vertex -60.6763 -44.0839 -263.8
    endloop
  endfacet
  facet normal -0.743145 -0.669131 0
    outer loop
      vertex -60.6763 -44.0839 246.2
      vertex -50.1848 -55.7359 -263.8
      vertex -50.1848 -55.7359 246.2
    endloop
  endfacet
  facet normal -0.587785 -0.809017 0
    outer loop
      vertex -50.1848 -55.7359 -263.8
      vertex -37.5 -64.9519 246.2
      vertex -50.1848 -55.7359 246.2
    endloop
  endfacet
  facet normal -0.587785 -0.809017 -0
    outer loop
      vertex -37.5 -64.9519 246.2
      vertex -50.1848 -55.7359 -263.8
      vertex -37.5 -64.9519 -263.8
    endloop
  endfacet
  facet normal -0.406737 -0.913545 0
    outer loop
      vertex -37.5 -64.9519 -263.8
      vertex -23.1763 -71.3292 246.2
      vertex -37.5 -64.9519 246.2
    endloop
  endfacet
  facet normal -0.406737 -0.913545 -0
    outer loop
      vertex -23.1763 -71.3292 246.2
      vertex -37.5 -64.9519 -263.8
      vertex -23.1763 -71.3292 -263.8
    endloop
  endfacet
  facet normal -0.207912 -0.978148 0
    outer loop
      vertex -23.1763 -71.3292 -263.8
      vertex -7.83963 -74.5891 246.2
      vertex -23.1763 -71.3292 246.2
    endloop
  endfacet
  facet normal -0.207912 -0.978148 -0
    outer loop
      vertex -7.83963 -74.5891 246.2
      vertex -23.1763 -71.3292 -263.8
      vertex -7.83963 -74.5891 -263.8
    endloop
  endfacet
  facet normal 0 -1 0
    outer loop
      vertex -7.83963 -74.5891 -263.8
      vertex 7.83963 -74.5891 246.2
      vertex -7.83963 -74.5891 246.2
    endloop
  endfacet
  facet normal 0 -1 -0
    outer loop
      vertex 7.83963 -74.5891 246.2
      vertex -7.83963 -74.5891 -263.8
      vertex 7.83963 -74.5891 -263.8
    endloop
  endfacet
  facet normal 0.207912 -0.978148 0
    outer loop
      vertex 7.83963 -74.5891 -263.8
      vertex 23.1763 -71.3292 246.2
      vertex 7.83963 -74.5891 246.2
    endloop
  endfacet
  facet normal 0.207912 -0.978148 0
    outer loop
      vertex 23.1763 -71.3292 246.2
      vertex 7.83963 -74.5891 -263.8
      vertex 23.1763 -71.3292 -263.8
    endloop
  endfacet
  facet normal 0.406737 -0.913545 0
    outer loop
      vertex 23.1763 -71.3292 -263.8
      vertex 37.5 -64.9519 246.2
      vertex 23.1763 -71.3292 246.2
    endloop
  endfacet
  facet normal 0.406737 -0.913545 0
    outer loop
      vertex 37.5 -64.9519 246.2
      vertex 23.1763 -71.3292 -263.8
      vertex 37.5 -64.9519 -263.8
    endloop
  endfacet
  facet normal 0.587785 -0.809017 0
    outer loop
      vertex 37.5 -64.9519 -263.8
      vertex 50.1848 -55.7359 246.2
      vertex 37.5 -64.9519 246.2
    endloop
  endfacet
  facet normal 0.587785 -0.809017 0
    outer loop
      vertex 50.1848 -55.7359 246.2
      vertex 37.5 -64.9519 -263.8
      vertex 50.1848 -55.7359 -263.8
    endloop
  endfacet
  facet normal 0.743145 -0.669131 0
    outer loop
      vertex 50.1848 -55.7359 246.2
      vertex 60.6763 -44.0839 -263.8
      vertex 60.6763 -44.0839 246.2
    endloop
  endfacet
  facet normal 0.743145 -0.669131 0
    outer loop
      vertex 60.6763 -44.0839 -263.8
      vertex 50.1848 -55.7359 246.2
      vertex 50.1848 -55.7359 -263.8
    endloop
  endfacet
  facet normal 0.866025 -0.5 0
    outer loop
      vertex 60.6763 -44.0839 246.2
      vertex 68.5159 -30.5052 -263.8
      vertex 68.5159 -30.5052 246.2
    endloop
  endfacet
  facet normal 0.866025 -0.5 0
    outer loop
      vertex 68.5159 -30.5052 -263.8
      vertex 60.6763 -44.0839 246.2
      vertex 60.6763 -44.0839 -263.8
    endloop
  endfacet
  facet normal 0.951057 -0.309017 0
    outer loop
      vertex 68.5159 -30.5052 246.2
      vertex 73.3611 -15.5934 -263.8
      vertex 73.3611 -15.5934 246.2
    endloop
  endfacet
  facet normal 0.951057 -0.309017 0
    outer loop
      vertex 73.3611 -15.5934 -263.8
      vertex 68.5159 -30.5052 246.2
      vertex 68.5159 -30.5052 -263.8
    endloop
  endfacet
  facet normal 0.994522 -0.104529 0
    outer loop
      vertex 73.3611 -15.5934 246.2
      vertex 75 0 -263.8
      vertex 75 0 246.2
    endloop
  endfacet
  facet normal 0.994522 -0.104529 0
    outer loop
      vertex 75 0 -263.8
      vertex 73.3611 -15.5934 246.2
      vertex 73.3611 -15.5934 -263.8
    endloop
  endfacet
  facet normal 0 0 1
    outer loop
      vertex 73.3611 15.5934 246.2
      vertex 73.3611 -15.5934 246.2
      vertex 75 0 246.2
    endloop
  endfacet
  facet normal 0 0 1
    outer loop
      vertex 68.5159 30.5052 246.2
      vertex 73.3611 -15.5934 246.2
      vertex 73.3611 15.5934 246.2
    endloop
  endfacet
  facet normal 0 0 1
    outer loop
      vertex 68.5159 30.5052 246.2
      vertex 68.5159 -30.5052 246.2
      vertex 73.3611 -15.5934 246.2
    endloop
  endfacet
  facet normal 0 0 1
    outer loop
      vertex 60.6763 44.0839 246.2
      vertex 68.5159 -30.5052 246.2
      vertex 68.5159 30.5052 246.2
    endloop
  endfacet
  facet normal 0 0 1
    outer loop
      vertex 60.6763 44.0839 246.2
      vertex 60.6763 -44.0839 246.2
      vertex 68.5159 -30.5052 246.2
    endloop
  endfacet
  facet normal 0 0 1
    outer loop
      vertex 50.1848 55.7359 246.2
      vertex 60.6763 -44.0839 246.2
      vertex 60.6763 44.0839 246.2
    endloop
  endfacet
  facet normal 0 0 1
    outer loop
      vertex 50.1848 55.7359 246.2
      vertex 50.1848 -55.7359 246.2
      vertex 60.6763 -44.0839 246.2
    endloop
  endfacet
  facet normal 0 0 1
    outer loop
      vertex 37.5 64.9519 246.2
      vertex 50.1848 -55.7359 246.2
      vertex 50.1848 55.7359 246.2
    endloop
  endfacet
  facet normal 0 0 1
    outer loop
      vertex 37.5 64.9519 246.2
      vertex 37.5 -64.9519 246.2
      vertex 50.1848 -55.7359 246.2
    endloop
  endfacet
  facet normal 0 0 1
    outer loop
      vertex 23.1763 71.3292 246.2
      vertex 37.5 -64.9519 246.2
      vertex 37.5 64.9519 246.2
    endloop
  endfacet
  facet normal 0 0 1
    outer loop
      vertex 23.1763 71.3292 246.2
      vertex 23.1763 -71.3292 246.2
      vertex 37.5 -64.9519 246.2
    endloop
  endfacet
  facet normal 0 0 1
    outer loop
      vertex 7.83963 74.5891 246.2
      vertex 23.1763 -71.3292 246.2
      vertex 23.1763 71.3292 246.2
    endloop
  endfacet
  facet normal 0 0 1
    outer loop
      vertex 7.83963 74.5891 246.2
      vertex 7.83963 -74.5891 246.2
      vertex 23.1763 -71.3292 246.2
    endloop
  endfacet
  facet normal -0 0 1
    outer loop
      vertex -7.83963 74.5891 246.2
      vertex 7.83963 -74.5891 246.2
      vertex 7.83963 74.5891 246.2
    endloop
  endfacet
  facet normal 0 0 1
    outer loop
      vertex -7.83963 74.5891 246.2
      vertex -7.83963 -74.5891 246.2
      vertex 7.83963 -74.5891 246.2
    endloop
  endfacet
  facet normal -0 0 1
    outer loop
      vertex -23.1763 71.3292 246.2
      vertex -7.83963 -74.5891 246.2
      vertex -7.83963 74.5891 246.2
    endloop
  endfacet
  facet normal 0 0 1
    outer loop
      vertex -23.1763 71.3292 246.2
      vertex -23.1763 -71.3292 246.2
      vertex -7.83963 -74.5891 246.2
    endloop
  endfacet
  facet normal -0 0 1
    outer loop
      vertex -37.5 64.9519 246.2
      vertex -23.1763 -71.3292 246.2
      vertex -23.1763 71.3292 246.2
    endloop
  endfacet
  facet normal 0 0 1
    outer loop
      vertex -37.5 64.9519 246.2
      vertex -37.5 -64.9519 246.2
      vertex -23.1763 -71.3292 246.2
    endloop
  endfacet
  facet normal -0 0 1
    outer loop
      vertex -50.1848 55.7359 246.2
      vertex -37.5 -64.9519 246.2
      vertex -37.5 64.9519 246.2
    endloop
  endfacet
  facet normal 0 0 1
    outer loop
      vertex -50.1848 55.7359 246.2
      vertex -50.1848 -55.7359 246.2
      vertex -37.5 -64.9519 246.2
    endloop
  endfacet
  facet normal -0 0 1
    outer loop
      vertex -60.6763 44.0839 246.2
      vertex -50.1848 -55.7359 246.2
      vertex -50.1848 55.7359 246.2
    endloop
  endfacet
  facet normal 0 0 1
    outer loop
      vertex -60.6763 44.0839 246.2
      vertex -60.6763 -44.0839 246.2
      vertex -50.1848 -55.7359 246.2
    endloop
  endfacet
  facet normal -0 0 1
    outer loop
      vertex -68.5159 30.5052 246.2
      vertex -60.6763 -44.0839 246.2
      vertex -60.6763 44.0839 246.2
    endloop
  endfacet
  facet normal 0 0 1
    outer loop
      vertex -68.5159 30.5052 246.2
      vertex -68.5159 -30.5052 246.2
      vertex -60.6763 -44.0839 246.2
    endloop
  endfacet
  facet normal -0 0 1
    outer loop
      vertex -73.3611 15.5934 246.2
      vertex -68.5159 -30.5052 246.2
      vertex -68.5159 30.5052 246.2
    endloop
  endfacet
  facet normal 0 0 1
    outer loop
      vertex -73.3611 15.5934 246.2
      vertex -73.3611 -15.5934 246.2
      vertex -68.5159 -30.5052 246.2
    endloop
  endfacet
  facet normal 0 -0 1
    outer loop
      vertex -73.3611 -15.5934 246.2
      vertex -73.3611 15.5934 246.2
      vertex -75 4.24915e-14 246.2
    endloop
  endfacet
  facet normal 0 0 -1
    outer loop
      vertex 73.3611 -15.5934 -263.8
      vertex 73.3611 15.5934 -263.8
      vertex 75 0 -263.8
    endloop
  endfacet
  facet normal 0 0 -1
    outer loop
      vertex 68.5159 -30.5052 -263.8
      vertex 73.3611 15.5934 -263.8
      vertex 73.3611 -15.5934 -263.8
    endloop
  endfacet
  facet normal 0 0 -1
    outer loop
      vertex 68.5159 -30.5052 -263.8
      vertex 68.5159 30.5052 -263.8
      vertex 73.3611 15.5934 -263.8
    endloop
  endfacet
  facet normal 0 0 -1
    outer loop
      vertex 60.6763 -44.0839 -263.8
      vertex 68.5159 30.5052 -263.8
      vertex 68.5159 -30.5052 -263.8
    endloop
  endfacet
  facet normal 0 0 -1
    outer loop
      vertex 60.6763 -44.0839 -263.8
      vertex 60.6763 44.0839 -263.8
      vertex 68.5159 30.5052 -263.8
    endloop
  endfacet
  facet normal 0 0 -1
    outer loop
      vertex 50.1848 -55.7359 -263.8
      vertex 60.6763 44.0839 -263.8
      vertex 60.6763 -44.0839 -263.8
    endloop
  endfacet
  facet normal 0 0 -1
    outer loop
      vertex 50.1848 -55.7359 -263.8
      vertex 50.1848 55.7359 -263.8
      vertex 60.6763 44.0839 -263.8
    endloop
  endfacet
  facet normal 0 0 -1
    outer loop
      vertex 37.5 -64.9519 -263.8
      vertex 50.1848 55.7359 -263.8
      vertex 50.1848 -55.7359 -263.8
    endloop
  endfacet
  facet normal 0 0 -1
    outer loop
      vertex 37.5 -64.9519 -263.8
      vertex 37.5 64.9519 -263.8
      vertex 50.1848 55.7359 -263.8
    endloop
  endfacet
  facet normal 0 0 -1
    outer loop
      vertex 23.1763 -71.3292 -263.8
      vertex 37.5 64.9519 -263.8
      vertex 37.5 -64.9519 -263.8
    endloop
  endfacet
  facet normal 0 0 -1
    outer loop
      vertex 23.1763 -71.3292 -263.8
      vertex 23.1763 71.3292 -263.8
      vertex 37.5 64.9519 -263.8
    endloop
  endfacet
  facet normal 0 0 -1
    outer loop
      vertex 7.83963 -74.5891 -263.8
      vertex 23.1763 71.3292 -263.8
      vertex 23.1763 -71.3292 -263.8
    endloop
  endfacet
  facet normal 0 0 -1
    outer loop
      vertex 7.83963 -74.5891 -263.8
      vertex 7.83963 74.5891 -263.8
      vertex 23.1763 71.3292 -263.8
    endloop
  endfacet
  facet normal 0 0 -1
    outer loop
      vertex -7.83963 -74.5891 -263.8
      vertex 7.83963 74.5891 -263.8
      vertex 7.83963 -74.5891 -263.8
    endloop
  endfacet
  facet normal 0 0 -1
    outer loop
      vertex -7.83963 -74.5891 -263.8
      vertex -7.83963 74.5891 -263.8
      vertex 7.83963 74.5891 -263.8
    endloop
  endfacet
  facet normal 0 0 -1
    outer loop
      vertex -23.1763 -71.3292 -263.8
      vertex -7.83963 74.5891 -263.8
      vertex -7.83963 -74.5891 -263.8
    endloop
  endfacet
  facet normal 0 0 -1
    outer loop
      vertex -23.1763 -71.3292 -263.8
      vertex -23.1763 71.3292 -263.8
      vertex -7.83963 74.5891 -263.8
    endloop
  endfacet
  facet normal 0 0 -1
    outer loop
      vertex -37.5 -64.9519 -263.8
      vertex -23.1763 71.3292 -263.8
      vertex -23.1763 -71.3292 -263.8
    endloop
  endfacet
  facet normal 0 0 -1
    outer loop
      vertex -37.5 -64.9519 -263.8
      vertex -37.5 64.9519 -263.8
      vertex -23.1763 71.3292 -263.8
    endloop
  endfacet
  facet normal 0 0 -1
    outer loop
      vertex -50.1848 -55.7359 -263.8
      vertex -37.5 64.9519 -263.8
      vertex -37.5 -64.9519 -263.8
    endloop
  endfacet
  facet normal 0 0 -1
    outer loop
      vertex -50.1848 -55.7359 -263.8
      vertex -50.1848 55.7359 -263.8
      vertex -37.5 64.9519 -263.8
    endloop
  endfacet
  facet normal 0 0 -1
    outer loop
      vertex -60.6763 -44.0839 -263.8
      vertex -50.1848 55.7359 -263.8
      vertex -50.1848 -55.7359 -263.8
    endloop
  endfacet
  facet normal 0 0 -1
    outer loop
      vertex -60.6763 -44.0839 -263.8
      vertex -60.6763 44.0839 -263.8
      vertex -50.1848 55.7359 -263.8
    endloop
  endfacet
  facet normal 0 0 -1
    outer loop
      vertex -68.5159 -30.5052 -263.8
      vertex -60.6763 44.0839 -263.8
      vertex -60.6763 -44.0839 -263.8
    endloop
  endfacet
  facet normal 0 0 -1
    outer loop
      vertex -68.5159 -30.5052 -263.8
      vertex -68.5159 30.5052 -263.8
      vertex -60.6763 44.0839 -263.8
    endloop
  endfacet
  facet normal 0 0 -1
    outer loop
      vertex -73.3611 -15.5934 -263.8
      vertex -68.5159 30.5052 -263.8
      vertex -68.5159 -30.5052 -263.8
    endloop
  endfacet
  facet normal 0 0 -1
    outer loop
      vertex -73.3611 -15.5934 -263.8
      vertex -73.3611 15.5934 -263.8
      vertex -68.5159 30.5052 -263.8
    endloop
  endfacet
  facet normal 0 -0 -1
    outer loop
      vertex -73.3611 15.5934 -263.8
      vertex -73.3611 -15.5934 -263.8
      vertex -75 4.24915e-14 -263.8
    endloop
  endfacet
endsolid OpenSCAD_Model
