solid Exported from Blender-2.77 (sub 0)
facet normal 0.000000 0.000000 -1.000000
outer loop
vertex -0.195089 0.980786 -2.000000
vertex 0.000000 1.000000 -2.000000
vertex 0.195090 0.980785 -2.000000
endloop
endfacet
facet normal 0.000000 0.000000 -1.000000
outer loop
vertex 0.195090 0.980785 -2.000000
vertex 0.382683 0.923880 -2.000000
vertex 0.555570 0.831470 -2.000000
endloop
endfacet
facet normal 0.000000 0.000000 -1.000000
outer loop
vertex 0.555570 0.831470 -2.000000
vertex 0.707107 0.707107 -2.000000
vertex 0.831470 0.555570 -2.000000
endloop
endfacet
facet normal 0.000000 0.000000 -1.000000
outer loop
vertex 0.831470 0.555570 -2.000000
vertex 0.923880 0.382683 -2.000000
vertex 0.980785 0.195090 -2.000000
endloop
endfacet
facet normal 0.000000 0.000000 -1.000000
outer loop
vertex 0.980785 0.195090 -2.000000
vertex 1.000000 0.000000 -2.000000
vertex 0.980785 -0.195090 -2.000000
endloop
endfacet
facet normal 0.000000 0.000000 -1.000000
outer loop
vertex 0.980785 -0.195090 -2.000000
vertex 0.923880 -0.382683 -2.000000
vertex 0.831470 -0.555570 -2.000000
endloop
endfacet
facet normal 0.000000 0.000000 -1.000000
outer loop
vertex 0.831470 -0.555570 -2.000000
vertex 0.707107 -0.707107 -2.000000
vertex 0.555570 -0.831470 -2.000000
endloop
endfacet
facet normal 0.000000 0.000000 -1.000000
outer loop
vertex 0.555570 -0.831470 -2.000000
vertex 0.382683 -0.923880 -2.000000
vertex 0.195090 -0.980785 -2.000000
endloop
endfacet
facet normal 0.000000 0.000000 -1.000000
outer loop
vertex 0.195090 -0.980785 -2.000000
vertex -0.000000 -1.000000 -2.000000
vertex -0.195091 -0.980785 -2.000000
endloop
endfacet
facet normal 0.000000 0.000000 -1.000000
outer loop
vertex -0.195091 -0.980785 -2.000000
vertex -0.382684 -0.923879 -2.000000
vertex -0.555571 -0.831469 -2.000000
endloop
endfacet
facet normal 0.000000 0.000000 -1.000000
outer loop
vertex -0.555571 -0.831469 -2.000000
vertex -0.707107 -0.707106 -2.000000
vertex -0.831470 -0.555570 -2.000000
endloop
endfacet
facet normal 0.000000 0.000000 -1.000000
outer loop
vertex -0.831470 -0.555570 -2.000000
vertex -0.923880 -0.382683 -2.000000
vertex -0.980785 -0.195089 -2.000000
endloop
endfacet
facet normal -0.000008 0.000000 -1.000000
outer loop
vertex -0.980785 -0.195089 -2.000000
vertex -1.000000 0.000001 -2.000000
vertex -0.980785 0.195091 -2.000000
endloop
endfacet
facet normal 0.000008 0.000000 -1.000000
outer loop
vertex -0.980785 0.195091 -2.000000
vertex -0.923879 0.382684 -2.000000
vertex -0.831469 0.555571 -2.000000
endloop
endfacet
facet normal 0.000000 0.000000 -1.000000
outer loop
vertex -0.831469 0.555571 -2.000000
vertex -0.707106 0.707108 -2.000000
vertex -0.555569 0.831470 -2.000000
endloop
endfacet
facet normal 0.000000 0.000000 -1.000000
outer loop
vertex -0.555569 0.831470 -2.000000
vertex -0.382682 0.923880 -2.000000
vertex -0.195089 0.980786 -2.000000
endloop
endfacet
facet normal 0.000000 0.000000 -1.000000
outer loop
vertex -0.195089 0.980786 -2.000000
vertex 0.195090 0.980785 -2.000000
vertex 0.555570 0.831470 -2.000000
endloop
endfacet
facet normal 0.000000 0.000000 -1.000000
outer loop
vertex 0.555570 0.831470 -2.000000
vertex 0.831470 0.555570 -2.000000
vertex 0.980785 0.195090 -2.000000
endloop
endfacet
facet normal 0.000000 0.000000 -1.000000
outer loop
vertex 0.980785 0.195090 -2.000000
vertex 0.980785 -0.195090 -2.000000
vertex 0.831470 -0.555570 -2.000000
endloop
endfacet
facet normal 0.000000 0.000000 -1.000000
outer loop
vertex 0.831470 -0.555570 -2.000000
vertex 0.555570 -0.831470 -2.000000
vertex 0.195090 -0.980785 -2.000000
endloop
endfacet
facet normal 0.000000 0.000000 -1.000000
outer loop
vertex 0.195090 -0.980785 -2.000000
vertex -0.195091 -0.980785 -2.000000
vertex -0.555571 -0.831469 -2.000000
endloop
endfacet
facet normal 0.000000 0.000000 -1.000000
outer loop
vertex -0.555571 -0.831469 -2.000000
vertex -0.831470 -0.555570 -2.000000
vertex -0.980785 -0.195089 -2.000000
endloop
endfacet
facet normal 0.000000 0.000000 -1.000000
outer loop
vertex -0.980785 -0.195089 -2.000000
vertex -0.980785 0.195091 -2.000000
vertex -0.831469 0.555571 -2.000000
endloop
endfacet
facet normal 0.000000 0.000000 -1.000000
outer loop
vertex -0.831469 0.555571 -2.000000
vertex -0.555569 0.831470 -2.000000
vertex -0.195089 0.980786 -2.000000
endloop
endfacet
facet normal 0.000000 0.000000 -1.000000
outer loop
vertex -0.195089 0.980786 -2.000000
vertex 0.555570 0.831470 -2.000000
vertex 0.980785 0.195090 -2.000000
endloop
endfacet
facet normal 0.000000 0.000000 -1.000000
outer loop
vertex 0.980785 0.195090 -2.000000
vertex 0.831470 -0.555570 -2.000000
vertex 0.195090 -0.980785 -2.000000
endloop
endfacet
facet normal 0.000000 0.000000 -1.000000
outer loop
vertex 0.195090 -0.980785 -2.000000
vertex -0.555571 -0.831469 -2.000000
vertex -0.980785 -0.195089 -2.000000
endloop
endfacet
facet normal 0.000001 0.000000 -1.000000
outer loop
vertex -0.980785 -0.195089 -2.000000
vertex -0.831469 0.555571 -2.000000
vertex -0.195089 0.980786 -2.000000
endloop
endfacet
facet normal 0.000000 0.000000 -1.000000
outer loop
vertex -0.195089 0.980786 -2.000000
vertex 0.980785 0.195090 -2.000000
vertex 0.195090 -0.980785 -2.000000
endloop
endfacet
facet normal 0.000000 0.000000 -1.000000
outer loop
vertex 0.195090 -0.980785 -2.000000
vertex -0.980785 -0.195089 -2.000000
vertex -0.195089 0.980786 -2.000000
endloop
endfacet
endsolid Exported from Blender-2.77 (sub 0)
