solid OpenSCAD_Model
  facet normal 0 0.999699 -0.0245414
    outer loop
      vertex 3 0.998795 -0.0490677
      vertex 1 1 0
      vertex 3 1 0
    endloop
  endfacet
  facet normal 0 0.999699 -0.0245414
    outer loop
      vertex 1 1 0
      vertex 3 0.998795 -0.0490677
      vertex 0.998795 0.998795 -0.0490677
    endloop
  endfacet
  facet normal 0.999699 0 -0.0245414
    outer loop
      vertex 1 1 0
      vertex 0.998795 4 -0.0490677
      vertex 1 4 0
    endloop
  endfacet
  facet normal 0.999699 0 -0.0245414
    outer loop
      vertex 0.998795 4 -0.0490677
      vertex 1 1 0
      vertex 0.998795 0.998795 -0.0490677
    endloop
  endfacet
  facet normal -0 0.999699 0.0245414
    outer loop
      vertex 1 1 0
      vertex 3 0.998795 0.0490677
      vertex 3 1 0
    endloop
  endfacet
  facet normal 0 0.999699 0.0245414
    outer loop
      vertex 3 0.998795 0.0490677
      vertex 1 1 0
      vertex 0.998795 0.998795 0.0490677
    endloop
  endfacet
  facet normal -0 0.99729 0.0735646
    outer loop
      vertex 0.998795 0.998795 0.0490677
      vertex 3 0.995185 0.0980171
      vertex 3 0.998795 0.0490677
    endloop
  endfacet
  facet normal 0 0.99729 0.0735646
    outer loop
      vertex 3 0.995185 0.0980171
      vertex 0.998795 0.998795 0.0490677
      vertex 0.995185 0.995185 0.0980171
    endloop
  endfacet
  facet normal -0 0.99248 0.122411
    outer loop
      vertex 0.995185 0.995185 0.0980171
      vertex 3 0.989177 0.14673
      vertex 3 0.995185 0.0980171
    endloop
  endfacet
  facet normal 0 0.99248 0.122411
    outer loop
      vertex 3 0.989177 0.14673
      vertex 0.995185 0.995185 0.0980171
      vertex 0.989177 0.989177 0.14673
    endloop
  endfacet
  facet normal -0 0.985278 0.170962
    outer loop
      vertex 0.989177 0.989177 0.14673
      vertex 3 0.980785 0.19509
      vertex 3 0.989177 0.14673
    endloop
  endfacet
  facet normal 0 0.985278 0.170962
    outer loop
      vertex 3 0.980785 0.19509
      vertex 0.989177 0.989177 0.14673
      vertex 0.980785 0.980785 0.19509
    endloop
  endfacet
  facet normal -0 0.975702 0.219101
    outer loop
      vertex 0.980785 0.980785 0.19509
      vertex 3 0.970031 0.24298
      vertex 3 0.980785 0.19509
    endloop
  endfacet
  facet normal 0 0.975702 0.219101
    outer loop
      vertex 3 0.970031 0.24298
      vertex 0.980785 0.980785 0.19509
      vertex 0.970031 0.970031 0.24298
    endloop
  endfacet
  facet normal -0 0.963776 0.266713
    outer loop
      vertex 0.970031 0.970031 0.24298
      vertex 3 0.95694 0.290285
      vertex 3 0.970031 0.24298
    endloop
  endfacet
  facet normal 0 0.963776 0.266713
    outer loop
      vertex 3 0.95694 0.290285
      vertex 0.970031 0.970031 0.24298
      vertex 0.95694 0.95694 0.290285
    endloop
  endfacet
  facet normal -0 0.949528 0.313682
    outer loop
      vertex 0.95694 0.95694 0.290285
      vertex 3 0.941544 0.33689
      vertex 3 0.95694 0.290285
    endloop
  endfacet
  facet normal 0 0.949528 0.313682
    outer loop
      vertex 3 0.941544 0.33689
      vertex 0.95694 0.95694 0.290285
      vertex 0.941544 0.941544 0.33689
    endloop
  endfacet
  facet normal -0 0.932993 0.359895
    outer loop
      vertex 0.941544 0.941544 0.33689
      vertex 3 0.92388 0.382683
      vertex 3 0.941544 0.33689
    endloop
  endfacet
  facet normal 0 0.932993 0.359895
    outer loop
      vertex 3 0.92388 0.382683
      vertex 0.941544 0.941544 0.33689
      vertex 0.92388 0.92388 0.382683
    endloop
  endfacet
  facet normal -0 0.91421 0.40524
    outer loop
      vertex 0.92388 0.92388 0.382683
      vertex 3 0.903989 0.427555
      vertex 3 0.92388 0.382683
    endloop
  endfacet
  facet normal 0 0.91421 0.40524
    outer loop
      vertex 3 0.903989 0.427555
      vertex 0.92388 0.92388 0.382683
      vertex 0.903989 0.903989 0.427555
    endloop
  endfacet
  facet normal -0 0.893224 0.449611
    outer loop
      vertex 0.903989 0.903989 0.427555
      vertex 3 0.881921 0.471397
      vertex 3 0.903989 0.427555
    endloop
  endfacet
  facet normal 0 0.893224 0.449611
    outer loop
      vertex 3 0.881921 0.471397
      vertex 0.903989 0.903989 0.427555
      vertex 0.881921 0.881921 0.471397
    endloop
  endfacet
  facet normal -0 0.870087 0.492899
    outer loop
      vertex 0.881921 0.881921 0.471397
      vertex 3 0.857729 0.514103
      vertex 3 0.881921 0.471397
    endloop
  endfacet
  facet normal 0 0.870087 0.492899
    outer loop
      vertex 3 0.857729 0.514103
      vertex 0.881921 0.881921 0.471397
      vertex 0.857729 0.857729 0.514103
    endloop
  endfacet
  facet normal -0 0.844853 0.534998
    outer loop
      vertex 0.857729 0.857729 0.514103
      vertex 3 0.83147 0.55557
      vertex 3 0.857729 0.514103
    endloop
  endfacet
  facet normal 0 0.844853 0.534998
    outer loop
      vertex 3 0.83147 0.55557
      vertex 0.857729 0.857729 0.514103
      vertex 0.83147 0.83147 0.55557
    endloop
  endfacet
  facet normal -0 0.817585 0.575808
    outer loop
      vertex 0.83147 0.83147 0.55557
      vertex 3 0.803208 0.595699
      vertex 3 0.83147 0.55557
    endloop
  endfacet
  facet normal 0 0.817585 0.575808
    outer loop
      vertex 3 0.803208 0.595699
      vertex 0.83147 0.83147 0.55557
      vertex 0.803208 0.803208 0.595699
    endloop
  endfacet
  facet normal -0 0.788346 0.615232
    outer loop
      vertex 0.803208 0.803208 0.595699
      vertex 3 0.77301 0.634393
      vertex 3 0.803208 0.595699
    endloop
  endfacet
  facet normal 0 0.788346 0.615232
    outer loop
      vertex 3 0.77301 0.634393
      vertex 0.803208 0.803208 0.595699
      vertex 0.77301 0.77301 0.634393
    endloop
  endfacet
  facet normal -0 0.757209 0.653172
    outer loop
      vertex 0.77301 0.77301 0.634393
      vertex 3 0.740951 0.671559
      vertex 3 0.77301 0.634393
    endloop
  endfacet
  facet normal 0 0.757209 0.653172
    outer loop
      vertex 3 0.740951 0.671559
      vertex 0.77301 0.77301 0.634393
      vertex 0.740951 0.740951 0.671559
    endloop
  endfacet
  facet normal -0 0.724247 0.689541
    outer loop
      vertex 0.740951 0.740951 0.671559
      vertex 3 0.707107 0.707107
      vertex 3 0.740951 0.671559
    endloop
  endfacet
  facet normal 0 0.724247 0.689541
    outer loop
      vertex 3 0.707107 0.707107
      vertex 0.740951 0.740951 0.671559
      vertex 0.707107 0.707107 0.707107
    endloop
  endfacet
  facet normal -0 0.689541 0.724247
    outer loop
      vertex 0.707107 0.707107 0.707107
      vertex 3 0.671559 0.740951
      vertex 3 0.707107 0.707107
    endloop
  endfacet
  facet normal 0 0.689541 0.724247
    outer loop
      vertex 3 0.671559 0.740951
      vertex 0.707107 0.707107 0.707107
      vertex 0.671559 0.671559 0.740951
    endloop
  endfacet
  facet normal -0 0.653172 0.757209
    outer loop
      vertex 0.671559 0.671559 0.740951
      vertex 3 0.634393 0.77301
      vertex 3 0.671559 0.740951
    endloop
  endfacet
  facet normal 0 0.653172 0.757209
    outer loop
      vertex 3 0.634393 0.77301
      vertex 0.671559 0.671559 0.740951
      vertex 0.634393 0.634393 0.77301
    endloop
  endfacet
  facet normal -0 0.615232 0.788346
    outer loop
      vertex 0.634393 0.634393 0.77301
      vertex 3 0.595699 0.803208
      vertex 3 0.634393 0.77301
    endloop
  endfacet
  facet normal 0 0.615232 0.788346
    outer loop
      vertex 3 0.595699 0.803208
      vertex 0.634393 0.634393 0.77301
      vertex 0.595699 0.595699 0.803208
    endloop
  endfacet
  facet normal -0 0.575808 0.817585
    outer loop
      vertex 0.595699 0.595699 0.803208
      vertex 3 0.55557 0.83147
      vertex 3 0.595699 0.803208
    endloop
  endfacet
  facet normal 0 0.575808 0.817585
    outer loop
      vertex 3 0.55557 0.83147
      vertex 0.595699 0.595699 0.803208
      vertex 0.55557 0.55557 0.83147
    endloop
  endfacet
  facet normal -0 0.534998 0.844853
    outer loop
      vertex 0.55557 0.55557 0.83147
      vertex 3 0.514103 0.857729
      vertex 3 0.55557 0.83147
    endloop
  endfacet
  facet normal 0 0.534998 0.844853
    outer loop
      vertex 3 0.514103 0.857729
      vertex 0.55557 0.55557 0.83147
      vertex 0.514103 0.514103 0.857729
    endloop
  endfacet
  facet normal -0 0.492899 0.870087
    outer loop
      vertex 0.514103 0.514103 0.857729
      vertex 3 0.471397 0.881921
      vertex 3 0.514103 0.857729
    endloop
  endfacet
  facet normal 0 0.492899 0.870087
    outer loop
      vertex 3 0.471397 0.881921
      vertex 0.514103 0.514103 0.857729
      vertex 0.471397 0.471397 0.881921
    endloop
  endfacet
  facet normal -0 0.449611 0.893224
    outer loop
      vertex 0.471397 0.471397 0.881921
      vertex 3 0.427555 0.903989
      vertex 3 0.471397 0.881921
    endloop
  endfacet
  facet normal 0 0.449611 0.893224
    outer loop
      vertex 3 0.427555 0.903989
      vertex 0.471397 0.471397 0.881921
      vertex 0.427555 0.427555 0.903989
    endloop
  endfacet
  facet normal -0 0.40524 0.91421
    outer loop
      vertex 0.427555 0.427555 0.903989
      vertex 3 0.382683 0.92388
      vertex 3 0.427555 0.903989
    endloop
  endfacet
  facet normal 0 0.40524 0.91421
    outer loop
      vertex 3 0.382683 0.92388
      vertex 0.427555 0.427555 0.903989
      vertex 0.382683 0.382683 0.92388
    endloop
  endfacet
  facet normal -0 0.359895 0.932993
    outer loop
      vertex 0.382683 0.382683 0.92388
      vertex 3 0.33689 0.941544
      vertex 3 0.382683 0.92388
    endloop
  endfacet
  facet normal 0 0.359895 0.932993
    outer loop
      vertex 3 0.33689 0.941544
      vertex 0.382683 0.382683 0.92388
      vertex 0.33689 0.33689 0.941544
    endloop
  endfacet
  facet normal -0 0.313682 0.949528
    outer loop
      vertex 0.33689 0.33689 0.941544
      vertex 3 0.290285 0.95694
      vertex 3 0.33689 0.941544
    endloop
  endfacet
  facet normal 0 0.313682 0.949528
    outer loop
      vertex 3 0.290285 0.95694
      vertex 0.33689 0.33689 0.941544
      vertex 0.290285 0.290285 0.95694
    endloop
  endfacet
  facet normal -0 0.266713 0.963776
    outer loop
      vertex 0.290285 0.290285 0.95694
      vertex 3 0.24298 0.970031
      vertex 3 0.290285 0.95694
    endloop
  endfacet
  facet normal 0 0.266713 0.963776
    outer loop
      vertex 3 0.24298 0.970031
      vertex 0.290285 0.290285 0.95694
      vertex 0.24298 0.24298 0.970031
    endloop
  endfacet
  facet normal -0 0.219101 0.975702
    outer loop
      vertex 0.24298 0.24298 0.970031
      vertex 3 0.19509 0.980785
      vertex 3 0.24298 0.970031
    endloop
  endfacet
  facet normal 0 0.219101 0.975702
    outer loop
      vertex 3 0.19509 0.980785
      vertex 0.24298 0.24298 0.970031
      vertex 0.19509 0.19509 0.980785
    endloop
  endfacet
  facet normal -0 0.170962 0.985278
    outer loop
      vertex 0.19509 0.19509 0.980785
      vertex 3 0.14673 0.989177
      vertex 3 0.19509 0.980785
    endloop
  endfacet
  facet normal 0 0.170962 0.985278
    outer loop
      vertex 3 0.14673 0.989177
      vertex 0.19509 0.19509 0.980785
      vertex 0.14673 0.14673 0.989177
    endloop
  endfacet
  facet normal -0 0.122411 0.99248
    outer loop
      vertex 0.14673 0.14673 0.989177
      vertex 3 0.0980171 0.995185
      vertex 3 0.14673 0.989177
    endloop
  endfacet
  facet normal 0 0.122411 0.99248
    outer loop
      vertex 3 0.0980171 0.995185
      vertex 0.14673 0.14673 0.989177
      vertex 0.0980171 0.0980171 0.995185
    endloop
  endfacet
  facet normal -0 0.0735646 0.99729
    outer loop
      vertex 0.0980171 0.0980171 0.995185
      vertex 3 0.0490677 0.998795
      vertex 3 0.0980171 0.995185
    endloop
  endfacet
  facet normal 0 0.0735646 0.99729
    outer loop
      vertex 3 0.0490677 0.998795
      vertex 0.0980171 0.0980171 0.995185
      vertex 0.0490677 0.0490677 0.998795
    endloop
  endfacet
  facet normal -0 0.0245414 0.999699
    outer loop
      vertex 0.0490677 0.0490677 0.998795
      vertex 3 0 1
      vertex 3 0.0490677 0.998795
    endloop
  endfacet
  facet normal 0 0.0245414 0.999699
    outer loop
      vertex 3 0 1
      vertex 0.0490677 0.0490677 0.998795
      vertex 0 0 1
    endloop
  endfacet
  facet normal 0 -0.0245414 0.999699
    outer loop
      vertex 0 0 1
      vertex 3 -0.0490677 0.998795
      vertex 3 0 1
    endloop
  endfacet
  facet normal 0 -0.0245414 0.999699
    outer loop
      vertex 3 -0.0490677 0.998795
      vertex 0 0 1
      vertex -0.0490677 -0.0490677 0.998795
    endloop
  endfacet
  facet normal 0 -0.0735646 0.99729
    outer loop
      vertex -0.0490677 -0.0490677 0.998795
      vertex 3 -0.0980171 0.995185
      vertex 3 -0.0490677 0.998795
    endloop
  endfacet
  facet normal 0 -0.0735646 0.99729
    outer loop
      vertex 3 -0.0980171 0.995185
      vertex -0.0490677 -0.0490677 0.998795
      vertex -0.0980171 -0.0980171 0.995185
    endloop
  endfacet
  facet normal 0 -0.122411 0.99248
    outer loop
      vertex -0.0980171 -0.0980171 0.995185
      vertex 3 -0.14673 0.989177
      vertex 3 -0.0980171 0.995185
    endloop
  endfacet
  facet normal 0 -0.122411 0.99248
    outer loop
      vertex 3 -0.14673 0.989177
      vertex -0.0980171 -0.0980171 0.995185
      vertex -0.14673 -0.14673 0.989177
    endloop
  endfacet
  facet normal 0 -0.170962 0.985278
    outer loop
      vertex -0.14673 -0.14673 0.989177
      vertex 3 -0.19509 0.980785
      vertex 3 -0.14673 0.989177
    endloop
  endfacet
  facet normal 0 -0.170962 0.985278
    outer loop
      vertex 3 -0.19509 0.980785
      vertex -0.14673 -0.14673 0.989177
      vertex -0.19509 -0.19509 0.980785
    endloop
  endfacet
  facet normal 0 -0.219101 0.975702
    outer loop
      vertex -0.19509 -0.19509 0.980785
      vertex 3 -0.24298 0.970031
      vertex 3 -0.19509 0.980785
    endloop
  endfacet
  facet normal 0 -0.219101 0.975702
    outer loop
      vertex 3 -0.24298 0.970031
      vertex -0.19509 -0.19509 0.980785
      vertex -0.24298 -0.24298 0.970031
    endloop
  endfacet
  facet normal 0 -0.266713 0.963776
    outer loop
      vertex -0.24298 -0.24298 0.970031
      vertex 3 -0.290285 0.95694
      vertex 3 -0.24298 0.970031
    endloop
  endfacet
  facet normal 0 -0.266713 0.963776
    outer loop
      vertex 3 -0.290285 0.95694
      vertex -0.24298 -0.24298 0.970031
      vertex -0.290285 -0.290285 0.95694
    endloop
  endfacet
  facet normal 0 -0.313682 0.949528
    outer loop
      vertex -0.290285 -0.290285 0.95694
      vertex 3 -0.33689 0.941544
      vertex 3 -0.290285 0.95694
    endloop
  endfacet
  facet normal 0 -0.313682 0.949528
    outer loop
      vertex 3 -0.33689 0.941544
      vertex -0.290285 -0.290285 0.95694
      vertex -0.33689 -0.33689 0.941544
    endloop
  endfacet
  facet normal 0 -0.359895 0.932993
    outer loop
      vertex -0.33689 -0.33689 0.941544
      vertex 3 -0.382683 0.92388
      vertex 3 -0.33689 0.941544
    endloop
  endfacet
  facet normal 0 -0.359895 0.932993
    outer loop
      vertex 3 -0.382683 0.92388
      vertex -0.33689 -0.33689 0.941544
      vertex -0.382683 -0.382683 0.92388
    endloop
  endfacet
  facet normal 0 -0.40524 0.91421
    outer loop
      vertex -0.382683 -0.382683 0.92388
      vertex 3 -0.427555 0.903989
      vertex 3 -0.382683 0.92388
    endloop
  endfacet
  facet normal 0 -0.40524 0.91421
    outer loop
      vertex 3 -0.427555 0.903989
      vertex -0.382683 -0.382683 0.92388
      vertex -0.427555 -0.427555 0.903989
    endloop
  endfacet
  facet normal 0 -0.449611 0.893224
    outer loop
      vertex -0.427555 -0.427555 0.903989
      vertex 3 -0.471397 0.881921
      vertex 3 -0.427555 0.903989
    endloop
  endfacet
  facet normal 0 -0.449611 0.893224
    outer loop
      vertex 3 -0.471397 0.881921
      vertex -0.427555 -0.427555 0.903989
      vertex -0.471397 -0.471397 0.881921
    endloop
  endfacet
  facet normal 0 -0.492899 0.870087
    outer loop
      vertex -0.471397 -0.471397 0.881921
      vertex 3 -0.514103 0.857729
      vertex 3 -0.471397 0.881921
    endloop
  endfacet
  facet normal 0 -0.492899 0.870087
    outer loop
      vertex 3 -0.514103 0.857729
      vertex -0.471397 -0.471397 0.881921
      vertex -0.514103 -0.514103 0.857729
    endloop
  endfacet
  facet normal 0 -0.534998 0.844853
    outer loop
      vertex -0.514103 -0.514103 0.857729
      vertex 3 -0.55557 0.83147
      vertex 3 -0.514103 0.857729
    endloop
  endfacet
  facet normal 0 -0.534998 0.844853
    outer loop
      vertex 3 -0.55557 0.83147
      vertex -0.514103 -0.514103 0.857729
      vertex -0.55557 -0.55557 0.83147
    endloop
  endfacet
  facet normal 0 -0.575808 0.817585
    outer loop
      vertex -0.55557 -0.55557 0.83147
      vertex 3 -0.595699 0.803208
      vertex 3 -0.55557 0.83147
    endloop
  endfacet
  facet normal 0 -0.575808 0.817585
    outer loop
      vertex 3 -0.595699 0.803208
      vertex -0.55557 -0.55557 0.83147
      vertex -0.595699 -0.595699 0.803208
    endloop
  endfacet
  facet normal 0 -0.615232 0.788346
    outer loop
      vertex -0.595699 -0.595699 0.803208
      vertex 3 -0.634393 0.77301
      vertex 3 -0.595699 0.803208
    endloop
  endfacet
  facet normal 0 -0.615232 0.788346
    outer loop
      vertex 3 -0.634393 0.77301
      vertex -0.595699 -0.595699 0.803208
      vertex -0.634393 -0.634393 0.77301
    endloop
  endfacet
  facet normal 0 -0.653172 0.757209
    outer loop
      vertex -0.634393 -0.634393 0.77301
      vertex 3 -0.671559 0.740951
      vertex 3 -0.634393 0.77301
    endloop
  endfacet
  facet normal 0 -0.653172 0.757209
    outer loop
      vertex 3 -0.671559 0.740951
      vertex -0.634393 -0.634393 0.77301
      vertex -0.671559 -0.671559 0.740951
    endloop
  endfacet
  facet normal 0 -0.689541 0.724247
    outer loop
      vertex -0.671559 -0.671559 0.740951
      vertex 3 -0.707107 0.707107
      vertex 3 -0.671559 0.740951
    endloop
  endfacet
  facet normal 0 -0.689541 0.724247
    outer loop
      vertex 3 -0.707107 0.707107
      vertex -0.671559 -0.671559 0.740951
      vertex -0.707107 -0.707107 0.707107
    endloop
  endfacet
  facet normal 0 -0.724247 0.689541
    outer loop
      vertex 3 -0.740951 0.671559
      vertex -0.707107 -0.707107 0.707107
      vertex -0.740951 -0.740951 0.671559
    endloop
  endfacet
  facet normal 0 -0.724247 0.689541
    outer loop
      vertex -0.707107 -0.707107 0.707107
      vertex 3 -0.740951 0.671559
      vertex 3 -0.707107 0.707107
    endloop
  endfacet
  facet normal 0 -0.757209 0.653172
    outer loop
      vertex 3 -0.77301 0.634393
      vertex -0.740951 -0.740951 0.671559
      vertex -0.77301 -0.77301 0.634393
    endloop
  endfacet
  facet normal 0 -0.757209 0.653172
    outer loop
      vertex -0.740951 -0.740951 0.671559
      vertex 3 -0.77301 0.634393
      vertex 3 -0.740951 0.671559
    endloop
  endfacet
  facet normal 0 -0.788346 0.615232
    outer loop
      vertex 3 -0.803208 0.595699
      vertex -0.77301 -0.77301 0.634393
      vertex -0.803208 -0.803208 0.595699
    endloop
  endfacet
  facet normal 0 -0.788346 0.615232
    outer loop
      vertex -0.77301 -0.77301 0.634393
      vertex 3 -0.803208 0.595699
      vertex 3 -0.77301 0.634393
    endloop
  endfacet
  facet normal 0 -0.817585 0.575808
    outer loop
      vertex 3 -0.83147 0.55557
      vertex -0.803208 -0.803208 0.595699
      vertex -0.83147 -0.83147 0.55557
    endloop
  endfacet
  facet normal 0 -0.817585 0.575808
    outer loop
      vertex -0.803208 -0.803208 0.595699
      vertex 3 -0.83147 0.55557
      vertex 3 -0.803208 0.595699
    endloop
  endfacet
  facet normal 0 -0.844853 0.534998
    outer loop
      vertex 3 -0.857729 0.514103
      vertex -0.83147 -0.83147 0.55557
      vertex -0.857729 -0.857729 0.514103
    endloop
  endfacet
  facet normal 0 -0.844853 0.534998
    outer loop
      vertex -0.83147 -0.83147 0.55557
      vertex 3 -0.857729 0.514103
      vertex 3 -0.83147 0.55557
    endloop
  endfacet
  facet normal 0 -0.870087 0.492899
    outer loop
      vertex 3 -0.881921 0.471397
      vertex -0.857729 -0.857729 0.514103
      vertex -0.881921 -0.881921 0.471397
    endloop
  endfacet
  facet normal 0 -0.870087 0.492899
    outer loop
      vertex -0.857729 -0.857729 0.514103
      vertex 3 -0.881921 0.471397
      vertex 3 -0.857729 0.514103
    endloop
  endfacet
  facet normal 0 -0.893224 0.449611
    outer loop
      vertex 3 -0.903989 0.427555
      vertex -0.881921 -0.881921 0.471397
      vertex -0.903989 -0.903989 0.427555
    endloop
  endfacet
  facet normal 0 -0.893224 0.449611
    outer loop
      vertex -0.881921 -0.881921 0.471397
      vertex 3 -0.903989 0.427555
      vertex 3 -0.881921 0.471397
    endloop
  endfacet
  facet normal 0 -0.91421 0.40524
    outer loop
      vertex 3 -0.92388 0.382683
      vertex -0.903989 -0.903989 0.427555
      vertex -0.92388 -0.92388 0.382683
    endloop
  endfacet
  facet normal 0 -0.91421 0.40524
    outer loop
      vertex -0.903989 -0.903989 0.427555
      vertex 3 -0.92388 0.382683
      vertex 3 -0.903989 0.427555
    endloop
  endfacet
  facet normal 0 -0.932993 0.359895
    outer loop
      vertex 3 -0.941544 0.33689
      vertex -0.92388 -0.92388 0.382683
      vertex -0.941544 -0.941544 0.33689
    endloop
  endfacet
  facet normal 0 -0.932993 0.359895
    outer loop
      vertex -0.92388 -0.92388 0.382683
      vertex 3 -0.941544 0.33689
      vertex 3 -0.92388 0.382683
    endloop
  endfacet
  facet normal 0 -0.949528 0.313682
    outer loop
      vertex 3 -0.95694 0.290285
      vertex -0.941544 -0.941544 0.33689
      vertex -0.95694 -0.95694 0.290285
    endloop
  endfacet
  facet normal 0 -0.949528 0.313682
    outer loop
      vertex -0.941544 -0.941544 0.33689
      vertex 3 -0.95694 0.290285
      vertex 3 -0.941544 0.33689
    endloop
  endfacet
  facet normal 0 -0.963776 0.266713
    outer loop
      vertex 3 -0.970031 0.24298
      vertex -0.95694 -0.95694 0.290285
      vertex -0.970031 -0.970031 0.24298
    endloop
  endfacet
  facet normal 0 -0.963776 0.266713
    outer loop
      vertex -0.95694 -0.95694 0.290285
      vertex 3 -0.970031 0.24298
      vertex 3 -0.95694 0.290285
    endloop
  endfacet
  facet normal 0 -0.975702 0.219101
    outer loop
      vertex 3 -0.980785 0.19509
      vertex -0.970031 -0.970031 0.24298
      vertex -0.980785 -0.980785 0.19509
    endloop
  endfacet
  facet normal 0 -0.975702 0.219101
    outer loop
      vertex -0.970031 -0.970031 0.24298
      vertex 3 -0.980785 0.19509
      vertex 3 -0.970031 0.24298
    endloop
  endfacet
  facet normal 0 -0.985278 0.170962
    outer loop
      vertex 3 -0.989177 0.14673
      vertex -0.980785 -0.980785 0.19509
      vertex -0.989177 -0.989177 0.14673
    endloop
  endfacet
  facet normal 0 -0.985278 0.170962
    outer loop
      vertex -0.980785 -0.980785 0.19509
      vertex 3 -0.989177 0.14673
      vertex 3 -0.980785 0.19509
    endloop
  endfacet
  facet normal 0 -0.99248 0.122411
    outer loop
      vertex 3 -0.995185 0.0980171
      vertex -0.989177 -0.989177 0.14673
      vertex -0.995185 -0.995185 0.0980171
    endloop
  endfacet
  facet normal 0 -0.99248 0.122411
    outer loop
      vertex -0.989177 -0.989177 0.14673
      vertex 3 -0.995185 0.0980171
      vertex 3 -0.989177 0.14673
    endloop
  endfacet
  facet normal 0 -0.99729 0.0735646
    outer loop
      vertex 3 -0.998795 0.0490677
      vertex -0.995185 -0.995185 0.0980171
      vertex -0.998795 -0.998795 0.0490677
    endloop
  endfacet
  facet normal 0 -0.99729 0.0735646
    outer loop
      vertex -0.995185 -0.995185 0.0980171
      vertex 3 -0.998795 0.0490677
      vertex 3 -0.995185 0.0980171
    endloop
  endfacet
  facet normal 0 -0.999699 0.0245414
    outer loop
      vertex 3 -1 -0
      vertex -0.998795 -0.998795 0.0490677
      vertex -1 -1 -0
    endloop
  endfacet
  facet normal 0 -0.999699 0.0245414
    outer loop
      vertex -0.998795 -0.998795 0.0490677
      vertex 3 -1 -0
      vertex 3 -0.998795 0.0490677
    endloop
  endfacet
  facet normal 0 -0.999699 -0.0245414
    outer loop
      vertex -0.998795 -0.998795 -0.0490677
      vertex 3 -1 -0
      vertex -1 -1 -0
    endloop
  endfacet
  facet normal 0 -0.999699 -0.0245414
    outer loop
      vertex 3 -1 -0
      vertex -0.998795 -0.998795 -0.0490677
      vertex 3 -0.998795 -0.0490677
    endloop
  endfacet
  facet normal 0 -0.99729 -0.0735646
    outer loop
      vertex -0.995185 -0.995185 -0.0980171
      vertex 3 -0.998795 -0.0490677
      vertex -0.998795 -0.998795 -0.0490677
    endloop
  endfacet
  facet normal 0 -0.99729 -0.0735646
    outer loop
      vertex 3 -0.998795 -0.0490677
      vertex -0.995185 -0.995185 -0.0980171
      vertex 3 -0.995185 -0.0980171
    endloop
  endfacet
  facet normal 0 -0.99248 -0.122411
    outer loop
      vertex -0.989177 -0.989177 -0.14673
      vertex 3 -0.995185 -0.0980171
      vertex -0.995185 -0.995185 -0.0980171
    endloop
  endfacet
  facet normal 0 -0.99248 -0.122411
    outer loop
      vertex 3 -0.995185 -0.0980171
      vertex -0.989177 -0.989177 -0.14673
      vertex 3 -0.989177 -0.14673
    endloop
  endfacet
  facet normal 0 -0.985278 -0.170962
    outer loop
      vertex -0.980785 -0.980785 -0.19509
      vertex 3 -0.989177 -0.14673
      vertex -0.989177 -0.989177 -0.14673
    endloop
  endfacet
  facet normal 0 -0.985278 -0.170962
    outer loop
      vertex 3 -0.989177 -0.14673
      vertex -0.980785 -0.980785 -0.19509
      vertex 3 -0.980785 -0.19509
    endloop
  endfacet
  facet normal 0 -0.975702 -0.219101
    outer loop
      vertex -0.970031 -0.970031 -0.24298
      vertex 3 -0.980785 -0.19509
      vertex -0.980785 -0.980785 -0.19509
    endloop
  endfacet
  facet normal 0 -0.975702 -0.219101
    outer loop
      vertex 3 -0.980785 -0.19509
      vertex -0.970031 -0.970031 -0.24298
      vertex 3 -0.970031 -0.24298
    endloop
  endfacet
  facet normal 0 -0.963776 -0.266713
    outer loop
      vertex -0.95694 -0.95694 -0.290285
      vertex 3 -0.970031 -0.24298
      vertex -0.970031 -0.970031 -0.24298
    endloop
  endfacet
  facet normal 0 -0.963776 -0.266713
    outer loop
      vertex 3 -0.970031 -0.24298
      vertex -0.95694 -0.95694 -0.290285
      vertex 3 -0.95694 -0.290285
    endloop
  endfacet
  facet normal 0 -0.949528 -0.313682
    outer loop
      vertex -0.941544 -0.941544 -0.33689
      vertex 3 -0.95694 -0.290285
      vertex -0.95694 -0.95694 -0.290285
    endloop
  endfacet
  facet normal 0 -0.949528 -0.313682
    outer loop
      vertex 3 -0.95694 -0.290285
      vertex -0.941544 -0.941544 -0.33689
      vertex 3 -0.941544 -0.33689
    endloop
  endfacet
  facet normal 0 -0.932993 -0.359895
    outer loop
      vertex -0.92388 -0.92388 -0.382683
      vertex 3 -0.941544 -0.33689
      vertex -0.941544 -0.941544 -0.33689
    endloop
  endfacet
  facet normal 0 -0.932993 -0.359895
    outer loop
      vertex 3 -0.941544 -0.33689
      vertex -0.92388 -0.92388 -0.382683
      vertex 3 -0.92388 -0.382683
    endloop
  endfacet
  facet normal 0 -0.91421 -0.40524
    outer loop
      vertex -0.903989 -0.903989 -0.427555
      vertex 3 -0.92388 -0.382683
      vertex -0.92388 -0.92388 -0.382683
    endloop
  endfacet
  facet normal 0 -0.91421 -0.40524
    outer loop
      vertex 3 -0.92388 -0.382683
      vertex -0.903989 -0.903989 -0.427555
      vertex 3 -0.903989 -0.427555
    endloop
  endfacet
  facet normal 0 -0.893224 -0.449611
    outer loop
      vertex -0.881921 -0.881921 -0.471397
      vertex 3 -0.903989 -0.427555
      vertex -0.903989 -0.903989 -0.427555
    endloop
  endfacet
  facet normal 0 -0.893224 -0.449611
    outer loop
      vertex 3 -0.903989 -0.427555
      vertex -0.881921 -0.881921 -0.471397
      vertex 3 -0.881921 -0.471397
    endloop
  endfacet
  facet normal 0 -0.870087 -0.492899
    outer loop
      vertex -0.857729 -0.857729 -0.514103
      vertex 3 -0.881921 -0.471397
      vertex -0.881921 -0.881921 -0.471397
    endloop
  endfacet
  facet normal 0 -0.870087 -0.492899
    outer loop
      vertex 3 -0.881921 -0.471397
      vertex -0.857729 -0.857729 -0.514103
      vertex 3 -0.857729 -0.514103
    endloop
  endfacet
  facet normal 0 -0.844853 -0.534998
    outer loop
      vertex -0.83147 -0.83147 -0.55557
      vertex 3 -0.857729 -0.514103
      vertex -0.857729 -0.857729 -0.514103
    endloop
  endfacet
  facet normal 0 -0.844853 -0.534998
    outer loop
      vertex 3 -0.857729 -0.514103
      vertex -0.83147 -0.83147 -0.55557
      vertex 3 -0.83147 -0.55557
    endloop
  endfacet
  facet normal 0 -0.817585 -0.575808
    outer loop
      vertex -0.803208 -0.803208 -0.595699
      vertex 3 -0.83147 -0.55557
      vertex -0.83147 -0.83147 -0.55557
    endloop
  endfacet
  facet normal 0 -0.817585 -0.575808
    outer loop
      vertex 3 -0.83147 -0.55557
      vertex -0.803208 -0.803208 -0.595699
      vertex 3 -0.803208 -0.595699
    endloop
  endfacet
  facet normal 0 -0.788346 -0.615232
    outer loop
      vertex -0.77301 -0.77301 -0.634393
      vertex 3 -0.803208 -0.595699
      vertex -0.803208 -0.803208 -0.595699
    endloop
  endfacet
  facet normal 0 -0.788346 -0.615232
    outer loop
      vertex 3 -0.803208 -0.595699
      vertex -0.77301 -0.77301 -0.634393
      vertex 3 -0.77301 -0.634393
    endloop
  endfacet
  facet normal 0 -0.757209 -0.653172
    outer loop
      vertex -0.740951 -0.740951 -0.671559
      vertex 3 -0.77301 -0.634393
      vertex -0.77301 -0.77301 -0.634393
    endloop
  endfacet
  facet normal 0 -0.757209 -0.653172
    outer loop
      vertex 3 -0.77301 -0.634393
      vertex -0.740951 -0.740951 -0.671559
      vertex 3 -0.740951 -0.671559
    endloop
  endfacet
  facet normal 0 -0.724247 -0.689541
    outer loop
      vertex -0.707107 -0.707107 -0.707107
      vertex 3 -0.740951 -0.671559
      vertex -0.740951 -0.740951 -0.671559
    endloop
  endfacet
  facet normal 0 -0.724247 -0.689541
    outer loop
      vertex 3 -0.740951 -0.671559
      vertex -0.707107 -0.707107 -0.707107
      vertex 3 -0.707107 -0.707107
    endloop
  endfacet
  facet normal 0 -0.689541 -0.724247
    outer loop
      vertex 3 -0.707107 -0.707107
      vertex -0.671559 -0.671559 -0.740951
      vertex 3 -0.671559 -0.740951
    endloop
  endfacet
  facet normal 0 -0.689541 -0.724247
    outer loop
      vertex -0.671559 -0.671559 -0.740951
      vertex 3 -0.707107 -0.707107
      vertex -0.707107 -0.707107 -0.707107
    endloop
  endfacet
  facet normal 0 -0.653172 -0.757209
    outer loop
      vertex 3 -0.671559 -0.740951
      vertex -0.634393 -0.634393 -0.77301
      vertex 3 -0.634393 -0.77301
    endloop
  endfacet
  facet normal 0 -0.653172 -0.757209
    outer loop
      vertex -0.634393 -0.634393 -0.77301
      vertex 3 -0.671559 -0.740951
      vertex -0.671559 -0.671559 -0.740951
    endloop
  endfacet
  facet normal 0 -0.615232 -0.788346
    outer loop
      vertex 3 -0.634393 -0.77301
      vertex -0.595699 -0.595699 -0.803208
      vertex 3 -0.595699 -0.803208
    endloop
  endfacet
  facet normal 0 -0.615232 -0.788346
    outer loop
      vertex -0.595699 -0.595699 -0.803208
      vertex 3 -0.634393 -0.77301
      vertex -0.634393 -0.634393 -0.77301
    endloop
  endfacet
  facet normal 0 -0.575808 -0.817585
    outer loop
      vertex 3 -0.595699 -0.803208
      vertex -0.55557 -0.55557 -0.83147
      vertex 3 -0.55557 -0.83147
    endloop
  endfacet
  facet normal 0 -0.575808 -0.817585
    outer loop
      vertex -0.55557 -0.55557 -0.83147
      vertex 3 -0.595699 -0.803208
      vertex -0.595699 -0.595699 -0.803208
    endloop
  endfacet
  facet normal 0 -0.534998 -0.844853
    outer loop
      vertex 3 -0.55557 -0.83147
      vertex -0.514103 -0.514103 -0.857729
      vertex 3 -0.514103 -0.857729
    endloop
  endfacet
  facet normal 0 -0.534998 -0.844853
    outer loop
      vertex -0.514103 -0.514103 -0.857729
      vertex 3 -0.55557 -0.83147
      vertex -0.55557 -0.55557 -0.83147
    endloop
  endfacet
  facet normal 0 -0.492899 -0.870087
    outer loop
      vertex 3 -0.514103 -0.857729
      vertex -0.471397 -0.471397 -0.881921
      vertex 3 -0.471397 -0.881921
    endloop
  endfacet
  facet normal 0 -0.492899 -0.870087
    outer loop
      vertex -0.471397 -0.471397 -0.881921
      vertex 3 -0.514103 -0.857729
      vertex -0.514103 -0.514103 -0.857729
    endloop
  endfacet
  facet normal 0 -0.449611 -0.893224
    outer loop
      vertex 3 -0.471397 -0.881921
      vertex -0.427555 -0.427555 -0.903989
      vertex 3 -0.427555 -0.903989
    endloop
  endfacet
  facet normal 0 -0.449611 -0.893224
    outer loop
      vertex -0.427555 -0.427555 -0.903989
      vertex 3 -0.471397 -0.881921
      vertex -0.471397 -0.471397 -0.881921
    endloop
  endfacet
  facet normal 0 -0.40524 -0.91421
    outer loop
      vertex 3 -0.427555 -0.903989
      vertex -0.382683 -0.382683 -0.92388
      vertex 3 -0.382683 -0.92388
    endloop
  endfacet
  facet normal 0 -0.40524 -0.91421
    outer loop
      vertex -0.382683 -0.382683 -0.92388
      vertex 3 -0.427555 -0.903989
      vertex -0.427555 -0.427555 -0.903989
    endloop
  endfacet
  facet normal 0 -0.359895 -0.932993
    outer loop
      vertex 3 -0.382683 -0.92388
      vertex -0.33689 -0.33689 -0.941544
      vertex 3 -0.33689 -0.941544
    endloop
  endfacet
  facet normal 0 -0.359895 -0.932993
    outer loop
      vertex -0.33689 -0.33689 -0.941544
      vertex 3 -0.382683 -0.92388
      vertex -0.382683 -0.382683 -0.92388
    endloop
  endfacet
  facet normal 0 -0.313682 -0.949528
    outer loop
      vertex 3 -0.33689 -0.941544
      vertex -0.290285 -0.290285 -0.95694
      vertex 3 -0.290285 -0.95694
    endloop
  endfacet
  facet normal 0 -0.313682 -0.949528
    outer loop
      vertex -0.290285 -0.290285 -0.95694
      vertex 3 -0.33689 -0.941544
      vertex -0.33689 -0.33689 -0.941544
    endloop
  endfacet
  facet normal 0 -0.266713 -0.963776
    outer loop
      vertex 3 -0.290285 -0.95694
      vertex -0.24298 -0.24298 -0.970031
      vertex 3 -0.24298 -0.970031
    endloop
  endfacet
  facet normal 0 -0.266713 -0.963776
    outer loop
      vertex -0.24298 -0.24298 -0.970031
      vertex 3 -0.290285 -0.95694
      vertex -0.290285 -0.290285 -0.95694
    endloop
  endfacet
  facet normal 0 -0.219101 -0.975702
    outer loop
      vertex 3 -0.24298 -0.970031
      vertex -0.19509 -0.19509 -0.980785
      vertex 3 -0.19509 -0.980785
    endloop
  endfacet
  facet normal 0 -0.219101 -0.975702
    outer loop
      vertex -0.19509 -0.19509 -0.980785
      vertex 3 -0.24298 -0.970031
      vertex -0.24298 -0.24298 -0.970031
    endloop
  endfacet
  facet normal 0 -0.170962 -0.985278
    outer loop
      vertex 3 -0.19509 -0.980785
      vertex -0.14673 -0.14673 -0.989177
      vertex 3 -0.14673 -0.989177
    endloop
  endfacet
  facet normal 0 -0.170962 -0.985278
    outer loop
      vertex -0.14673 -0.14673 -0.989177
      vertex 3 -0.19509 -0.980785
      vertex -0.19509 -0.19509 -0.980785
    endloop
  endfacet
  facet normal 0 -0.122411 -0.99248
    outer loop
      vertex 3 -0.14673 -0.989177
      vertex -0.0980171 -0.0980171 -0.995185
      vertex 3 -0.0980171 -0.995185
    endloop
  endfacet
  facet normal 0 -0.122411 -0.99248
    outer loop
      vertex -0.0980171 -0.0980171 -0.995185
      vertex 3 -0.14673 -0.989177
      vertex -0.14673 -0.14673 -0.989177
    endloop
  endfacet
  facet normal 0 -0.0735646 -0.99729
    outer loop
      vertex 3 -0.0980171 -0.995185
      vertex -0.0490677 -0.0490677 -0.998795
      vertex 3 -0.0490677 -0.998795
    endloop
  endfacet
  facet normal 0 -0.0735646 -0.99729
    outer loop
      vertex -0.0490677 -0.0490677 -0.998795
      vertex 3 -0.0980171 -0.995185
      vertex -0.0980171 -0.0980171 -0.995185
    endloop
  endfacet
  facet normal 0 -0.0245414 -0.999699
    outer loop
      vertex 3 -0.0490677 -0.998795
      vertex -0 -0 -1
      vertex 3 -0 -1
    endloop
  endfacet
  facet normal 0 -0.0245414 -0.999699
    outer loop
      vertex -0 -0 -1
      vertex 3 -0.0490677 -0.998795
      vertex -0.0490677 -0.0490677 -0.998795
    endloop
  endfacet
  facet normal 0 0.0245414 -0.999699
    outer loop
      vertex 3 -0 -1
      vertex 0.0490677 0.0490677 -0.998795
      vertex 3 0.0490677 -0.998795
    endloop
  endfacet
  facet normal 0 0.0245414 -0.999699
    outer loop
      vertex 0.0490677 0.0490677 -0.998795
      vertex 3 -0 -1
      vertex -0 -0 -1
    endloop
  endfacet
  facet normal 0 0.0735646 -0.99729
    outer loop
      vertex 3 0.0490677 -0.998795
      vertex 0.0980171 0.0980171 -0.995185
      vertex 3 0.0980171 -0.995185
    endloop
  endfacet
  facet normal 0 0.0735646 -0.99729
    outer loop
      vertex 0.0980171 0.0980171 -0.995185
      vertex 3 0.0490677 -0.998795
      vertex 0.0490677 0.0490677 -0.998795
    endloop
  endfacet
  facet normal 0 0.122411 -0.99248
    outer loop
      vertex 3 0.0980171 -0.995185
      vertex 0.14673 0.14673 -0.989177
      vertex 3 0.14673 -0.989177
    endloop
  endfacet
  facet normal 0 0.122411 -0.99248
    outer loop
      vertex 0.14673 0.14673 -0.989177
      vertex 3 0.0980171 -0.995185
      vertex 0.0980171 0.0980171 -0.995185
    endloop
  endfacet
  facet normal 0 0.170962 -0.985278
    outer loop
      vertex 3 0.14673 -0.989177
      vertex 0.19509 0.19509 -0.980785
      vertex 3 0.19509 -0.980785
    endloop
  endfacet
  facet normal 0 0.170962 -0.985278
    outer loop
      vertex 0.19509 0.19509 -0.980785
      vertex 3 0.14673 -0.989177
      vertex 0.14673 0.14673 -0.989177
    endloop
  endfacet
  facet normal 0 0.219101 -0.975702
    outer loop
      vertex 3 0.19509 -0.980785
      vertex 0.24298 0.24298 -0.970031
      vertex 3 0.24298 -0.970031
    endloop
  endfacet
  facet normal 0 0.219101 -0.975702
    outer loop
      vertex 0.24298 0.24298 -0.970031
      vertex 3 0.19509 -0.980785
      vertex 0.19509 0.19509 -0.980785
    endloop
  endfacet
  facet normal 0 0.266713 -0.963776
    outer loop
      vertex 3 0.24298 -0.970031
      vertex 0.290285 0.290285 -0.95694
      vertex 3 0.290285 -0.95694
    endloop
  endfacet
  facet normal 0 0.266713 -0.963776
    outer loop
      vertex 0.290285 0.290285 -0.95694
      vertex 3 0.24298 -0.970031
      vertex 0.24298 0.24298 -0.970031
    endloop
  endfacet
  facet normal 0 0.313682 -0.949528
    outer loop
      vertex 3 0.290285 -0.95694
      vertex 0.33689 0.33689 -0.941544
      vertex 3 0.33689 -0.941544
    endloop
  endfacet
  facet normal 0 0.313682 -0.949528
    outer loop
      vertex 0.33689 0.33689 -0.941544
      vertex 3 0.290285 -0.95694
      vertex 0.290285 0.290285 -0.95694
    endloop
  endfacet
  facet normal 0 0.359895 -0.932993
    outer loop
      vertex 3 0.33689 -0.941544
      vertex 0.382683 0.382683 -0.92388
      vertex 3 0.382683 -0.92388
    endloop
  endfacet
  facet normal 0 0.359895 -0.932993
    outer loop
      vertex 0.382683 0.382683 -0.92388
      vertex 3 0.33689 -0.941544
      vertex 0.33689 0.33689 -0.941544
    endloop
  endfacet
  facet normal 0 0.40524 -0.91421
    outer loop
      vertex 3 0.382683 -0.92388
      vertex 0.427555 0.427555 -0.903989
      vertex 3 0.427555 -0.903989
    endloop
  endfacet
  facet normal 0 0.40524 -0.91421
    outer loop
      vertex 0.427555 0.427555 -0.903989
      vertex 3 0.382683 -0.92388
      vertex 0.382683 0.382683 -0.92388
    endloop
  endfacet
  facet normal 0 0.449611 -0.893224
    outer loop
      vertex 3 0.427555 -0.903989
      vertex 0.471397 0.471397 -0.881921
      vertex 3 0.471397 -0.881921
    endloop
  endfacet
  facet normal 0 0.449611 -0.893224
    outer loop
      vertex 0.471397 0.471397 -0.881921
      vertex 3 0.427555 -0.903989
      vertex 0.427555 0.427555 -0.903989
    endloop
  endfacet
  facet normal 0 0.492899 -0.870087
    outer loop
      vertex 3 0.471397 -0.881921
      vertex 0.514103 0.514103 -0.857729
      vertex 3 0.514103 -0.857729
    endloop
  endfacet
  facet normal 0 0.492899 -0.870087
    outer loop
      vertex 0.514103 0.514103 -0.857729
      vertex 3 0.471397 -0.881921
      vertex 0.471397 0.471397 -0.881921
    endloop
  endfacet
  facet normal 0 0.534998 -0.844853
    outer loop
      vertex 3 0.514103 -0.857729
      vertex 0.55557 0.55557 -0.83147
      vertex 3 0.55557 -0.83147
    endloop
  endfacet
  facet normal 0 0.534998 -0.844853
    outer loop
      vertex 0.55557 0.55557 -0.83147
      vertex 3 0.514103 -0.857729
      vertex 0.514103 0.514103 -0.857729
    endloop
  endfacet
  facet normal 0 0.575808 -0.817585
    outer loop
      vertex 3 0.55557 -0.83147
      vertex 0.595699 0.595699 -0.803208
      vertex 3 0.595699 -0.803208
    endloop
  endfacet
  facet normal 0 0.575808 -0.817585
    outer loop
      vertex 0.595699 0.595699 -0.803208
      vertex 3 0.55557 -0.83147
      vertex 0.55557 0.55557 -0.83147
    endloop
  endfacet
  facet normal 0 0.615232 -0.788346
    outer loop
      vertex 3 0.595699 -0.803208
      vertex 0.634393 0.634393 -0.77301
      vertex 3 0.634393 -0.77301
    endloop
  endfacet
  facet normal 0 0.615232 -0.788346
    outer loop
      vertex 0.634393 0.634393 -0.77301
      vertex 3 0.595699 -0.803208
      vertex 0.595699 0.595699 -0.803208
    endloop
  endfacet
  facet normal 0 0.653172 -0.757209
    outer loop
      vertex 3 0.634393 -0.77301
      vertex 0.671559 0.671559 -0.740951
      vertex 3 0.671559 -0.740951
    endloop
  endfacet
  facet normal 0 0.653172 -0.757209
    outer loop
      vertex 0.671559 0.671559 -0.740951
      vertex 3 0.634393 -0.77301
      vertex 0.634393 0.634393 -0.77301
    endloop
  endfacet
  facet normal 0 0.689541 -0.724247
    outer loop
      vertex 3 0.671559 -0.740951
      vertex 0.707107 0.707107 -0.707107
      vertex 3 0.707107 -0.707107
    endloop
  endfacet
  facet normal 0 0.689541 -0.724247
    outer loop
      vertex 0.707107 0.707107 -0.707107
      vertex 3 0.671559 -0.740951
      vertex 0.671559 0.671559 -0.740951
    endloop
  endfacet
  facet normal 0 0.724247 -0.689541
    outer loop
      vertex 3 0.707107 -0.707107
      vertex 0.740951 0.740951 -0.671559
      vertex 3 0.740951 -0.671559
    endloop
  endfacet
  facet normal 0 0.724247 -0.689541
    outer loop
      vertex 0.740951 0.740951 -0.671559
      vertex 3 0.707107 -0.707107
      vertex 0.707107 0.707107 -0.707107
    endloop
  endfacet
  facet normal 0 0.757209 -0.653172
    outer loop
      vertex 3 0.740951 -0.671559
      vertex 0.77301 0.77301 -0.634393
      vertex 3 0.77301 -0.634393
    endloop
  endfacet
  facet normal 0 0.757209 -0.653172
    outer loop
      vertex 0.77301 0.77301 -0.634393
      vertex 3 0.740951 -0.671559
      vertex 0.740951 0.740951 -0.671559
    endloop
  endfacet
  facet normal 0 0.788346 -0.615232
    outer loop
      vertex 3 0.77301 -0.634393
      vertex 0.803208 0.803208 -0.595699
      vertex 3 0.803208 -0.595699
    endloop
  endfacet
  facet normal 0 0.788346 -0.615232
    outer loop
      vertex 0.803208 0.803208 -0.595699
      vertex 3 0.77301 -0.634393
      vertex 0.77301 0.77301 -0.634393
    endloop
  endfacet
  facet normal 0 0.817585 -0.575808
    outer loop
      vertex 3 0.803208 -0.595699
      vertex 0.83147 0.83147 -0.55557
      vertex 3 0.83147 -0.55557
    endloop
  endfacet
  facet normal 0 0.817585 -0.575808
    outer loop
      vertex 0.83147 0.83147 -0.55557
      vertex 3 0.803208 -0.595699
      vertex 0.803208 0.803208 -0.595699
    endloop
  endfacet
  facet normal 0 0.844853 -0.534998
    outer loop
      vertex 3 0.83147 -0.55557
      vertex 0.857729 0.857729 -0.514103
      vertex 3 0.857729 -0.514103
    endloop
  endfacet
  facet normal 0 0.844853 -0.534998
    outer loop
      vertex 0.857729 0.857729 -0.514103
      vertex 3 0.83147 -0.55557
      vertex 0.83147 0.83147 -0.55557
    endloop
  endfacet
  facet normal 0 0.870087 -0.492899
    outer loop
      vertex 3 0.857729 -0.514103
      vertex 0.881921 0.881921 -0.471397
      vertex 3 0.881921 -0.471397
    endloop
  endfacet
  facet normal 0 0.870087 -0.492899
    outer loop
      vertex 0.881921 0.881921 -0.471397
      vertex 3 0.857729 -0.514103
      vertex 0.857729 0.857729 -0.514103
    endloop
  endfacet
  facet normal 0 0.893224 -0.449611
    outer loop
      vertex 3 0.881921 -0.471397
      vertex 0.903989 0.903989 -0.427555
      vertex 3 0.903989 -0.427555
    endloop
  endfacet
  facet normal 0 0.893224 -0.449611
    outer loop
      vertex 0.903989 0.903989 -0.427555
      vertex 3 0.881921 -0.471397
      vertex 0.881921 0.881921 -0.471397
    endloop
  endfacet
  facet normal 0 0.91421 -0.40524
    outer loop
      vertex 3 0.903989 -0.427555
      vertex 0.92388 0.92388 -0.382683
      vertex 3 0.92388 -0.382683
    endloop
  endfacet
  facet normal 0 0.91421 -0.40524
    outer loop
      vertex 0.92388 0.92388 -0.382683
      vertex 3 0.903989 -0.427555
      vertex 0.903989 0.903989 -0.427555
    endloop
  endfacet
  facet normal 0 0.932993 -0.359895
    outer loop
      vertex 3 0.92388 -0.382683
      vertex 0.941544 0.941544 -0.33689
      vertex 3 0.941544 -0.33689
    endloop
  endfacet
  facet normal 0 0.932993 -0.359895
    outer loop
      vertex 0.941544 0.941544 -0.33689
      vertex 3 0.92388 -0.382683
      vertex 0.92388 0.92388 -0.382683
    endloop
  endfacet
  facet normal 0 0.949528 -0.313682
    outer loop
      vertex 3 0.941544 -0.33689
      vertex 0.95694 0.95694 -0.290285
      vertex 3 0.95694 -0.290285
    endloop
  endfacet
  facet normal 0 0.949528 -0.313682
    outer loop
      vertex 0.95694 0.95694 -0.290285
      vertex 3 0.941544 -0.33689
      vertex 0.941544 0.941544 -0.33689
    endloop
  endfacet
  facet normal 0 0.963776 -0.266713
    outer loop
      vertex 3 0.95694 -0.290285
      vertex 0.970031 0.970031 -0.24298
      vertex 3 0.970031 -0.24298
    endloop
  endfacet
  facet normal 0 0.963776 -0.266713
    outer loop
      vertex 0.970031 0.970031 -0.24298
      vertex 3 0.95694 -0.290285
      vertex 0.95694 0.95694 -0.290285
    endloop
  endfacet
  facet normal 0 0.975702 -0.219101
    outer loop
      vertex 3 0.970031 -0.24298
      vertex 0.980785 0.980785 -0.19509
      vertex 3 0.980785 -0.19509
    endloop
  endfacet
  facet normal 0 0.975702 -0.219101
    outer loop
      vertex 0.980785 0.980785 -0.19509
      vertex 3 0.970031 -0.24298
      vertex 0.970031 0.970031 -0.24298
    endloop
  endfacet
  facet normal 0 0.985278 -0.170962
    outer loop
      vertex 3 0.980785 -0.19509
      vertex 0.989177 0.989177 -0.14673
      vertex 3 0.989177 -0.14673
    endloop
  endfacet
  facet normal 0 0.985278 -0.170962
    outer loop
      vertex 0.989177 0.989177 -0.14673
      vertex 3 0.980785 -0.19509
      vertex 0.980785 0.980785 -0.19509
    endloop
  endfacet
  facet normal 0 0.99248 -0.122411
    outer loop
      vertex 3 0.989177 -0.14673
      vertex 0.995185 0.995185 -0.0980171
      vertex 3 0.995185 -0.0980171
    endloop
  endfacet
  facet normal 0 0.99248 -0.122411
    outer loop
      vertex 0.995185 0.995185 -0.0980171
      vertex 3 0.989177 -0.14673
      vertex 0.989177 0.989177 -0.14673
    endloop
  endfacet
  facet normal 0 0.99729 -0.0735646
    outer loop
      vertex 3 0.995185 -0.0980171
      vertex 0.998795 0.998795 -0.0490677
      vertex 3 0.998795 -0.0490677
    endloop
  endfacet
  facet normal 0 0.99729 -0.0735646
    outer loop
      vertex 0.998795 0.998795 -0.0490677
      vertex 3 0.995185 -0.0980171
      vertex 0.995185 0.995185 -0.0980171
    endloop
  endfacet
  facet normal 0.999699 0 0.0245414
    outer loop
      vertex 0.998795 4 0.0490677
      vertex 1 1 0
      vertex 1 4 0
    endloop
  endfacet
  facet normal 0.999699 0 0.0245414
    outer loop
      vertex 1 1 0
      vertex 0.998795 4 0.0490677
      vertex 0.998795 0.998795 0.0490677
    endloop
  endfacet
  facet normal 0.99729 0 0.0735646
    outer loop
      vertex 0.995185 4 0.0980171
      vertex 0.998795 0.998795 0.0490677
      vertex 0.998795 4 0.0490677
    endloop
  endfacet
  facet normal 0.99729 0 0.0735646
    outer loop
      vertex 0.998795 0.998795 0.0490677
      vertex 0.995185 4 0.0980171
      vertex 0.995185 0.995185 0.0980171
    endloop
  endfacet
  facet normal 0.99248 0 0.122411
    outer loop
      vertex 0.989177 4 0.14673
      vertex 0.995185 0.995185 0.0980171
      vertex 0.995185 4 0.0980171
    endloop
  endfacet
  facet normal 0.99248 0 0.122411
    outer loop
      vertex 0.995185 0.995185 0.0980171
      vertex 0.989177 4 0.14673
      vertex 0.989177 0.989177 0.14673
    endloop
  endfacet
  facet normal 0.985278 0 0.170962
    outer loop
      vertex 0.980785 4 0.19509
      vertex 0.989177 0.989177 0.14673
      vertex 0.989177 4 0.14673
    endloop
  endfacet
  facet normal 0.985278 0 0.170962
    outer loop
      vertex 0.989177 0.989177 0.14673
      vertex 0.980785 4 0.19509
      vertex 0.980785 0.980785 0.19509
    endloop
  endfacet
  facet normal 0.975702 0 0.219101
    outer loop
      vertex 0.970031 4 0.24298
      vertex 0.980785 0.980785 0.19509
      vertex 0.980785 4 0.19509
    endloop
  endfacet
  facet normal 0.975702 0 0.219101
    outer loop
      vertex 0.980785 0.980785 0.19509
      vertex 0.970031 4 0.24298
      vertex 0.970031 0.970031 0.24298
    endloop
  endfacet
  facet normal 0.963776 0 0.266713
    outer loop
      vertex 0.95694 4 0.290285
      vertex 0.970031 0.970031 0.24298
      vertex 0.970031 4 0.24298
    endloop
  endfacet
  facet normal 0.963776 0 0.266713
    outer loop
      vertex 0.970031 0.970031 0.24298
      vertex 0.95694 4 0.290285
      vertex 0.95694 0.95694 0.290285
    endloop
  endfacet
  facet normal 0.949528 0 0.313682
    outer loop
      vertex 0.941544 4 0.33689
      vertex 0.95694 0.95694 0.290285
      vertex 0.95694 4 0.290285
    endloop
  endfacet
  facet normal 0.949528 0 0.313682
    outer loop
      vertex 0.95694 0.95694 0.290285
      vertex 0.941544 4 0.33689
      vertex 0.941544 0.941544 0.33689
    endloop
  endfacet
  facet normal 0.932993 0 0.359895
    outer loop
      vertex 0.92388 4 0.382683
      vertex 0.941544 0.941544 0.33689
      vertex 0.941544 4 0.33689
    endloop
  endfacet
  facet normal 0.932993 0 0.359895
    outer loop
      vertex 0.941544 0.941544 0.33689
      vertex 0.92388 4 0.382683
      vertex 0.92388 0.92388 0.382683
    endloop
  endfacet
  facet normal 0.91421 0 0.40524
    outer loop
      vertex 0.903989 4 0.427555
      vertex 0.92388 0.92388 0.382683
      vertex 0.92388 4 0.382683
    endloop
  endfacet
  facet normal 0.91421 0 0.40524
    outer loop
      vertex 0.92388 0.92388 0.382683
      vertex 0.903989 4 0.427555
      vertex 0.903989 0.903989 0.427555
    endloop
  endfacet
  facet normal 0.893224 0 0.449611
    outer loop
      vertex 0.881921 4 0.471397
      vertex 0.903989 0.903989 0.427555
      vertex 0.903989 4 0.427555
    endloop
  endfacet
  facet normal 0.893224 0 0.449611
    outer loop
      vertex 0.903989 0.903989 0.427555
      vertex 0.881921 4 0.471397
      vertex 0.881921 0.881921 0.471397
    endloop
  endfacet
  facet normal 0.870087 0 0.492899
    outer loop
      vertex 0.857729 4 0.514103
      vertex 0.881921 0.881921 0.471397
      vertex 0.881921 4 0.471397
    endloop
  endfacet
  facet normal 0.870087 0 0.492899
    outer loop
      vertex 0.881921 0.881921 0.471397
      vertex 0.857729 4 0.514103
      vertex 0.857729 0.857729 0.514103
    endloop
  endfacet
  facet normal 0.844853 0 0.534998
    outer loop
      vertex 0.83147 4 0.55557
      vertex 0.857729 0.857729 0.514103
      vertex 0.857729 4 0.514103
    endloop
  endfacet
  facet normal 0.844853 0 0.534998
    outer loop
      vertex 0.857729 0.857729 0.514103
      vertex 0.83147 4 0.55557
      vertex 0.83147 0.83147 0.55557
    endloop
  endfacet
  facet normal 0.817585 0 0.575808
    outer loop
      vertex 0.803208 4 0.595699
      vertex 0.83147 0.83147 0.55557
      vertex 0.83147 4 0.55557
    endloop
  endfacet
  facet normal 0.817585 0 0.575808
    outer loop
      vertex 0.83147 0.83147 0.55557
      vertex 0.803208 4 0.595699
      vertex 0.803208 0.803208 0.595699
    endloop
  endfacet
  facet normal 0.788346 0 0.615232
    outer loop
      vertex 0.77301 4 0.634393
      vertex 0.803208 0.803208 0.595699
      vertex 0.803208 4 0.595699
    endloop
  endfacet
  facet normal 0.788346 0 0.615232
    outer loop
      vertex 0.803208 0.803208 0.595699
      vertex 0.77301 4 0.634393
      vertex 0.77301 0.77301 0.634393
    endloop
  endfacet
  facet normal 0.757209 0 0.653172
    outer loop
      vertex 0.740951 4 0.671559
      vertex 0.77301 0.77301 0.634393
      vertex 0.77301 4 0.634393
    endloop
  endfacet
  facet normal 0.757209 0 0.653172
    outer loop
      vertex 0.77301 0.77301 0.634393
      vertex 0.740951 4 0.671559
      vertex 0.740951 0.740951 0.671559
    endloop
  endfacet
  facet normal 0.724247 0 0.689541
    outer loop
      vertex 0.707107 4 0.707107
      vertex 0.740951 0.740951 0.671559
      vertex 0.740951 4 0.671559
    endloop
  endfacet
  facet normal 0.724247 0 0.689541
    outer loop
      vertex 0.740951 0.740951 0.671559
      vertex 0.707107 4 0.707107
      vertex 0.707107 0.707107 0.707107
    endloop
  endfacet
  facet normal 0.689541 0 0.724247
    outer loop
      vertex 0.671559 4 0.740951
      vertex 0.707107 0.707107 0.707107
      vertex 0.707107 4 0.707107
    endloop
  endfacet
  facet normal 0.689541 0 0.724247
    outer loop
      vertex 0.707107 0.707107 0.707107
      vertex 0.671559 4 0.740951
      vertex 0.671559 0.671559 0.740951
    endloop
  endfacet
  facet normal 0.653172 0 0.757209
    outer loop
      vertex 0.634393 4 0.77301
      vertex 0.671559 0.671559 0.740951
      vertex 0.671559 4 0.740951
    endloop
  endfacet
  facet normal 0.653172 0 0.757209
    outer loop
      vertex 0.671559 0.671559 0.740951
      vertex 0.634393 4 0.77301
      vertex 0.634393 0.634393 0.77301
    endloop
  endfacet
  facet normal 0.615232 0 0.788346
    outer loop
      vertex 0.595699 4 0.803208
      vertex 0.634393 0.634393 0.77301
      vertex 0.634393 4 0.77301
    endloop
  endfacet
  facet normal 0.615232 0 0.788346
    outer loop
      vertex 0.634393 0.634393 0.77301
      vertex 0.595699 4 0.803208
      vertex 0.595699 0.595699 0.803208
    endloop
  endfacet
  facet normal 0.575808 0 0.817585
    outer loop
      vertex 0.55557 4 0.83147
      vertex 0.595699 0.595699 0.803208
      vertex 0.595699 4 0.803208
    endloop
  endfacet
  facet normal 0.575808 0 0.817585
    outer loop
      vertex 0.595699 0.595699 0.803208
      vertex 0.55557 4 0.83147
      vertex 0.55557 0.55557 0.83147
    endloop
  endfacet
  facet normal 0.534998 0 0.844853
    outer loop
      vertex 0.514103 4 0.857729
      vertex 0.55557 0.55557 0.83147
      vertex 0.55557 4 0.83147
    endloop
  endfacet
  facet normal 0.534998 0 0.844853
    outer loop
      vertex 0.55557 0.55557 0.83147
      vertex 0.514103 4 0.857729
      vertex 0.514103 0.514103 0.857729
    endloop
  endfacet
  facet normal 0.492899 0 0.870087
    outer loop
      vertex 0.471397 4 0.881921
      vertex 0.514103 0.514103 0.857729
      vertex 0.514103 4 0.857729
    endloop
  endfacet
  facet normal 0.492899 0 0.870087
    outer loop
      vertex 0.514103 0.514103 0.857729
      vertex 0.471397 4 0.881921
      vertex 0.471397 0.471397 0.881921
    endloop
  endfacet
  facet normal 0.449611 0 0.893224
    outer loop
      vertex 0.427555 4 0.903989
      vertex 0.471397 0.471397 0.881921
      vertex 0.471397 4 0.881921
    endloop
  endfacet
  facet normal 0.449611 0 0.893224
    outer loop
      vertex 0.471397 0.471397 0.881921
      vertex 0.427555 4 0.903989
      vertex 0.427555 0.427555 0.903989
    endloop
  endfacet
  facet normal 0.40524 0 0.91421
    outer loop
      vertex 0.382683 4 0.92388
      vertex 0.427555 0.427555 0.903989
      vertex 0.427555 4 0.903989
    endloop
  endfacet
  facet normal 0.40524 0 0.91421
    outer loop
      vertex 0.427555 0.427555 0.903989
      vertex 0.382683 4 0.92388
      vertex 0.382683 0.382683 0.92388
    endloop
  endfacet
  facet normal 0.359895 0 0.932993
    outer loop
      vertex 0.33689 4 0.941544
      vertex 0.382683 0.382683 0.92388
      vertex 0.382683 4 0.92388
    endloop
  endfacet
  facet normal 0.359895 0 0.932993
    outer loop
      vertex 0.382683 0.382683 0.92388
      vertex 0.33689 4 0.941544
      vertex 0.33689 0.33689 0.941544
    endloop
  endfacet
  facet normal 0.313682 0 0.949528
    outer loop
      vertex 0.290285 4 0.95694
      vertex 0.33689 0.33689 0.941544
      vertex 0.33689 4 0.941544
    endloop
  endfacet
  facet normal 0.313682 0 0.949528
    outer loop
      vertex 0.33689 0.33689 0.941544
      vertex 0.290285 4 0.95694
      vertex 0.290285 0.290285 0.95694
    endloop
  endfacet
  facet normal 0.266713 0 0.963776
    outer loop
      vertex 0.24298 4 0.970031
      vertex 0.290285 0.290285 0.95694
      vertex 0.290285 4 0.95694
    endloop
  endfacet
  facet normal 0.266713 0 0.963776
    outer loop
      vertex 0.290285 0.290285 0.95694
      vertex 0.24298 4 0.970031
      vertex 0.24298 0.24298 0.970031
    endloop
  endfacet
  facet normal 0.219101 0 0.975702
    outer loop
      vertex 0.19509 4 0.980785
      vertex 0.24298 0.24298 0.970031
      vertex 0.24298 4 0.970031
    endloop
  endfacet
  facet normal 0.219101 0 0.975702
    outer loop
      vertex 0.24298 0.24298 0.970031
      vertex 0.19509 4 0.980785
      vertex 0.19509 0.19509 0.980785
    endloop
  endfacet
  facet normal 0.170962 0 0.985278
    outer loop
      vertex 0.14673 4 0.989177
      vertex 0.19509 0.19509 0.980785
      vertex 0.19509 4 0.980785
    endloop
  endfacet
  facet normal 0.170962 0 0.985278
    outer loop
      vertex 0.19509 0.19509 0.980785
      vertex 0.14673 4 0.989177
      vertex 0.14673 0.14673 0.989177
    endloop
  endfacet
  facet normal 0.122411 0 0.99248
    outer loop
      vertex 0.0980171 4 0.995185
      vertex 0.14673 0.14673 0.989177
      vertex 0.14673 4 0.989177
    endloop
  endfacet
  facet normal 0.122411 0 0.99248
    outer loop
      vertex 0.14673 0.14673 0.989177
      vertex 0.0980171 4 0.995185
      vertex 0.0980171 0.0980171 0.995185
    endloop
  endfacet
  facet normal 0.0735646 0 0.99729
    outer loop
      vertex 0.0490677 4 0.998795
      vertex 0.0980171 0.0980171 0.995185
      vertex 0.0980171 4 0.995185
    endloop
  endfacet
  facet normal 0.0735646 0 0.99729
    outer loop
      vertex 0.0980171 0.0980171 0.995185
      vertex 0.0490677 4 0.998795
      vertex 0.0490677 0.0490677 0.998795
    endloop
  endfacet
  facet normal 0.0245414 0 0.999699
    outer loop
      vertex 0 4 1
      vertex 0.0490677 0.0490677 0.998795
      vertex 0.0490677 4 0.998795
    endloop
  endfacet
  facet normal 0.0245414 0 0.999699
    outer loop
      vertex 0.0490677 0.0490677 0.998795
      vertex 0 4 1
      vertex 0 0 1
    endloop
  endfacet
  facet normal -0.0245414 0 0.999699
    outer loop
      vertex -0.0490677 4 0.998795
      vertex 0 0 1
      vertex 0 4 1
    endloop
  endfacet
  facet normal -0.0245414 0 0.999699
    outer loop
      vertex 0 0 1
      vertex -0.0490677 4 0.998795
      vertex -0.0490677 -0.0490677 0.998795
    endloop
  endfacet
  facet normal -0.0735646 0 0.99729
    outer loop
      vertex -0.0980171 4 0.995185
      vertex -0.0490677 -0.0490677 0.998795
      vertex -0.0490677 4 0.998795
    endloop
  endfacet
  facet normal -0.0735646 0 0.99729
    outer loop
      vertex -0.0490677 -0.0490677 0.998795
      vertex -0.0980171 4 0.995185
      vertex -0.0980171 -0.0980171 0.995185
    endloop
  endfacet
  facet normal -0.122411 0 0.99248
    outer loop
      vertex -0.14673 4 0.989177
      vertex -0.0980171 -0.0980171 0.995185
      vertex -0.0980171 4 0.995185
    endloop
  endfacet
  facet normal -0.122411 0 0.99248
    outer loop
      vertex -0.0980171 -0.0980171 0.995185
      vertex -0.14673 4 0.989177
      vertex -0.14673 -0.14673 0.989177
    endloop
  endfacet
  facet normal -0.170962 0 0.985278
    outer loop
      vertex -0.19509 4 0.980785
      vertex -0.14673 -0.14673 0.989177
      vertex -0.14673 4 0.989177
    endloop
  endfacet
  facet normal -0.170962 0 0.985278
    outer loop
      vertex -0.14673 -0.14673 0.989177
      vertex -0.19509 4 0.980785
      vertex -0.19509 -0.19509 0.980785
    endloop
  endfacet
  facet normal -0.219101 0 0.975702
    outer loop
      vertex -0.24298 4 0.970031
      vertex -0.19509 -0.19509 0.980785
      vertex -0.19509 4 0.980785
    endloop
  endfacet
  facet normal -0.219101 0 0.975702
    outer loop
      vertex -0.19509 -0.19509 0.980785
      vertex -0.24298 4 0.970031
      vertex -0.24298 -0.24298 0.970031
    endloop
  endfacet
  facet normal -0.266713 0 0.963776
    outer loop
      vertex -0.290285 4 0.95694
      vertex -0.24298 -0.24298 0.970031
      vertex -0.24298 4 0.970031
    endloop
  endfacet
  facet normal -0.266713 0 0.963776
    outer loop
      vertex -0.24298 -0.24298 0.970031
      vertex -0.290285 4 0.95694
      vertex -0.290285 -0.290285 0.95694
    endloop
  endfacet
  facet normal -0.313682 0 0.949528
    outer loop
      vertex -0.33689 4 0.941544
      vertex -0.290285 -0.290285 0.95694
      vertex -0.290285 4 0.95694
    endloop
  endfacet
  facet normal -0.313682 0 0.949528
    outer loop
      vertex -0.290285 -0.290285 0.95694
      vertex -0.33689 4 0.941544
      vertex -0.33689 -0.33689 0.941544
    endloop
  endfacet
  facet normal -0.359895 0 0.932993
    outer loop
      vertex -0.382683 4 0.92388
      vertex -0.33689 -0.33689 0.941544
      vertex -0.33689 4 0.941544
    endloop
  endfacet
  facet normal -0.359895 0 0.932993
    outer loop
      vertex -0.33689 -0.33689 0.941544
      vertex -0.382683 4 0.92388
      vertex -0.382683 -0.382683 0.92388
    endloop
  endfacet
  facet normal -0.40524 0 0.91421
    outer loop
      vertex -0.427555 4 0.903989
      vertex -0.382683 -0.382683 0.92388
      vertex -0.382683 4 0.92388
    endloop
  endfacet
  facet normal -0.40524 0 0.91421
    outer loop
      vertex -0.382683 -0.382683 0.92388
      vertex -0.427555 4 0.903989
      vertex -0.427555 -0.427555 0.903989
    endloop
  endfacet
  facet normal -0.449611 0 0.893224
    outer loop
      vertex -0.471397 4 0.881921
      vertex -0.427555 -0.427555 0.903989
      vertex -0.427555 4 0.903989
    endloop
  endfacet
  facet normal -0.449611 0 0.893224
    outer loop
      vertex -0.427555 -0.427555 0.903989
      vertex -0.471397 4 0.881921
      vertex -0.471397 -0.471397 0.881921
    endloop
  endfacet
  facet normal -0.492899 0 0.870087
    outer loop
      vertex -0.514103 4 0.857729
      vertex -0.471397 -0.471397 0.881921
      vertex -0.471397 4 0.881921
    endloop
  endfacet
  facet normal -0.492899 0 0.870087
    outer loop
      vertex -0.471397 -0.471397 0.881921
      vertex -0.514103 4 0.857729
      vertex -0.514103 -0.514103 0.857729
    endloop
  endfacet
  facet normal -0.534998 0 0.844853
    outer loop
      vertex -0.55557 4 0.83147
      vertex -0.514103 -0.514103 0.857729
      vertex -0.514103 4 0.857729
    endloop
  endfacet
  facet normal -0.534998 0 0.844853
    outer loop
      vertex -0.514103 -0.514103 0.857729
      vertex -0.55557 4 0.83147
      vertex -0.55557 -0.55557 0.83147
    endloop
  endfacet
  facet normal -0.575808 0 0.817585
    outer loop
      vertex -0.595699 4 0.803208
      vertex -0.55557 -0.55557 0.83147
      vertex -0.55557 4 0.83147
    endloop
  endfacet
  facet normal -0.575808 0 0.817585
    outer loop
      vertex -0.55557 -0.55557 0.83147
      vertex -0.595699 4 0.803208
      vertex -0.595699 -0.595699 0.803208
    endloop
  endfacet
  facet normal -0.615232 0 0.788346
    outer loop
      vertex -0.634393 4 0.77301
      vertex -0.595699 -0.595699 0.803208
      vertex -0.595699 4 0.803208
    endloop
  endfacet
  facet normal -0.615232 0 0.788346
    outer loop
      vertex -0.595699 -0.595699 0.803208
      vertex -0.634393 4 0.77301
      vertex -0.634393 -0.634393 0.77301
    endloop
  endfacet
  facet normal -0.653172 0 0.757209
    outer loop
      vertex -0.671559 4 0.740951
      vertex -0.634393 -0.634393 0.77301
      vertex -0.634393 4 0.77301
    endloop
  endfacet
  facet normal -0.653172 0 0.757209
    outer loop
      vertex -0.634393 -0.634393 0.77301
      vertex -0.671559 4 0.740951
      vertex -0.671559 -0.671559 0.740951
    endloop
  endfacet
  facet normal -0.689541 0 0.724247
    outer loop
      vertex -0.707107 4 0.707107
      vertex -0.671559 -0.671559 0.740951
      vertex -0.671559 4 0.740951
    endloop
  endfacet
  facet normal -0.689541 0 0.724247
    outer loop
      vertex -0.671559 -0.671559 0.740951
      vertex -0.707107 4 0.707107
      vertex -0.707107 -0.707107 0.707107
    endloop
  endfacet
  facet normal -0.724247 0 0.689541
    outer loop
      vertex -0.740951 4 0.671559
      vertex -0.707107 -0.707107 0.707107
      vertex -0.707107 4 0.707107
    endloop
  endfacet
  facet normal -0.724247 0 0.689541
    outer loop
      vertex -0.707107 -0.707107 0.707107
      vertex -0.740951 4 0.671559
      vertex -0.740951 -0.740951 0.671559
    endloop
  endfacet
  facet normal -0.757209 0 0.653172
    outer loop
      vertex -0.77301 4 0.634393
      vertex -0.740951 -0.740951 0.671559
      vertex -0.740951 4 0.671559
    endloop
  endfacet
  facet normal -0.757209 0 0.653172
    outer loop
      vertex -0.740951 -0.740951 0.671559
      vertex -0.77301 4 0.634393
      vertex -0.77301 -0.77301 0.634393
    endloop
  endfacet
  facet normal -0.788346 0 0.615232
    outer loop
      vertex -0.803208 4 0.595699
      vertex -0.77301 -0.77301 0.634393
      vertex -0.77301 4 0.634393
    endloop
  endfacet
  facet normal -0.788346 0 0.615232
    outer loop
      vertex -0.77301 -0.77301 0.634393
      vertex -0.803208 4 0.595699
      vertex -0.803208 -0.803208 0.595699
    endloop
  endfacet
  facet normal -0.817585 0 0.575808
    outer loop
      vertex -0.83147 4 0.55557
      vertex -0.803208 -0.803208 0.595699
      vertex -0.803208 4 0.595699
    endloop
  endfacet
  facet normal -0.817585 0 0.575808
    outer loop
      vertex -0.803208 -0.803208 0.595699
      vertex -0.83147 4 0.55557
      vertex -0.83147 -0.83147 0.55557
    endloop
  endfacet
  facet normal -0.844853 0 0.534998
    outer loop
      vertex -0.857729 4 0.514103
      vertex -0.83147 -0.83147 0.55557
      vertex -0.83147 4 0.55557
    endloop
  endfacet
  facet normal -0.844853 0 0.534998
    outer loop
      vertex -0.83147 -0.83147 0.55557
      vertex -0.857729 4 0.514103
      vertex -0.857729 -0.857729 0.514103
    endloop
  endfacet
  facet normal -0.870087 0 0.492899
    outer loop
      vertex -0.881921 4 0.471397
      vertex -0.857729 -0.857729 0.514103
      vertex -0.857729 4 0.514103
    endloop
  endfacet
  facet normal -0.870087 0 0.492899
    outer loop
      vertex -0.857729 -0.857729 0.514103
      vertex -0.881921 4 0.471397
      vertex -0.881921 -0.881921 0.471397
    endloop
  endfacet
  facet normal -0.893224 0 0.449611
    outer loop
      vertex -0.903989 4 0.427555
      vertex -0.881921 -0.881921 0.471397
      vertex -0.881921 4 0.471397
    endloop
  endfacet
  facet normal -0.893224 0 0.449611
    outer loop
      vertex -0.881921 -0.881921 0.471397
      vertex -0.903989 4 0.427555
      vertex -0.903989 -0.903989 0.427555
    endloop
  endfacet
  facet normal -0.91421 0 0.40524
    outer loop
      vertex -0.92388 4 0.382683
      vertex -0.903989 -0.903989 0.427555
      vertex -0.903989 4 0.427555
    endloop
  endfacet
  facet normal -0.91421 0 0.40524
    outer loop
      vertex -0.903989 -0.903989 0.427555
      vertex -0.92388 4 0.382683
      vertex -0.92388 -0.92388 0.382683
    endloop
  endfacet
  facet normal -0.932993 0 0.359895
    outer loop
      vertex -0.941544 4 0.33689
      vertex -0.92388 -0.92388 0.382683
      vertex -0.92388 4 0.382683
    endloop
  endfacet
  facet normal -0.932993 0 0.359895
    outer loop
      vertex -0.92388 -0.92388 0.382683
      vertex -0.941544 4 0.33689
      vertex -0.941544 -0.941544 0.33689
    endloop
  endfacet
  facet normal -0.949528 0 0.313682
    outer loop
      vertex -0.95694 4 0.290285
      vertex -0.941544 -0.941544 0.33689
      vertex -0.941544 4 0.33689
    endloop
  endfacet
  facet normal -0.949528 0 0.313682
    outer loop
      vertex -0.941544 -0.941544 0.33689
      vertex -0.95694 4 0.290285
      vertex -0.95694 -0.95694 0.290285
    endloop
  endfacet
  facet normal -0.963776 0 0.266713
    outer loop
      vertex -0.970031 4 0.24298
      vertex -0.95694 -0.95694 0.290285
      vertex -0.95694 4 0.290285
    endloop
  endfacet
  facet normal -0.963776 0 0.266713
    outer loop
      vertex -0.95694 -0.95694 0.290285
      vertex -0.970031 4 0.24298
      vertex -0.970031 -0.970031 0.24298
    endloop
  endfacet
  facet normal -0.975702 0 0.219101
    outer loop
      vertex -0.980785 4 0.19509
      vertex -0.970031 -0.970031 0.24298
      vertex -0.970031 4 0.24298
    endloop
  endfacet
  facet normal -0.975702 0 0.219101
    outer loop
      vertex -0.970031 -0.970031 0.24298
      vertex -0.980785 4 0.19509
      vertex -0.980785 -0.980785 0.19509
    endloop
  endfacet
  facet normal -0.985278 0 0.170962
    outer loop
      vertex -0.989177 4 0.14673
      vertex -0.980785 -0.980785 0.19509
      vertex -0.980785 4 0.19509
    endloop
  endfacet
  facet normal -0.985278 0 0.170962
    outer loop
      vertex -0.980785 -0.980785 0.19509
      vertex -0.989177 4 0.14673
      vertex -0.989177 -0.989177 0.14673
    endloop
  endfacet
  facet normal -0.99248 0 0.122411
    outer loop
      vertex -0.995185 4 0.0980171
      vertex -0.989177 -0.989177 0.14673
      vertex -0.989177 4 0.14673
    endloop
  endfacet
  facet normal -0.99248 0 0.122411
    outer loop
      vertex -0.989177 -0.989177 0.14673
      vertex -0.995185 4 0.0980171
      vertex -0.995185 -0.995185 0.0980171
    endloop
  endfacet
  facet normal -0.99729 0 0.0735646
    outer loop
      vertex -0.998795 4 0.0490677
      vertex -0.995185 -0.995185 0.0980171
      vertex -0.995185 4 0.0980171
    endloop
  endfacet
  facet normal -0.99729 0 0.0735646
    outer loop
      vertex -0.995185 -0.995185 0.0980171
      vertex -0.998795 4 0.0490677
      vertex -0.998795 -0.998795 0.0490677
    endloop
  endfacet
  facet normal -0.999699 0 0.0245414
    outer loop
      vertex -1 4 -0
      vertex -0.998795 -0.998795 0.0490677
      vertex -0.998795 4 0.0490677
    endloop
  endfacet
  facet normal -0.999699 0 0.0245414
    outer loop
      vertex -0.998795 -0.998795 0.0490677
      vertex -1 4 -0
      vertex -1 -1 -0
    endloop
  endfacet
  facet normal -0.999699 0 -0.0245414
    outer loop
      vertex -0.998795 -0.998795 -0.0490677
      vertex -1 4 -0
      vertex -0.998795 4 -0.0490677
    endloop
  endfacet
  facet normal -0.999699 -0 -0.0245414
    outer loop
      vertex -1 4 -0
      vertex -0.998795 -0.998795 -0.0490677
      vertex -1 -1 -0
    endloop
  endfacet
  facet normal -0.99729 0 -0.0735646
    outer loop
      vertex -0.995185 -0.995185 -0.0980171
      vertex -0.998795 4 -0.0490677
      vertex -0.995185 4 -0.0980171
    endloop
  endfacet
  facet normal -0.99729 -0 -0.0735646
    outer loop
      vertex -0.998795 4 -0.0490677
      vertex -0.995185 -0.995185 -0.0980171
      vertex -0.998795 -0.998795 -0.0490677
    endloop
  endfacet
  facet normal -0.99248 0 -0.122411
    outer loop
      vertex -0.989177 -0.989177 -0.14673
      vertex -0.995185 4 -0.0980171
      vertex -0.989177 4 -0.14673
    endloop
  endfacet
  facet normal -0.99248 -0 -0.122411
    outer loop
      vertex -0.995185 4 -0.0980171
      vertex -0.989177 -0.989177 -0.14673
      vertex -0.995185 -0.995185 -0.0980171
    endloop
  endfacet
  facet normal -0.985278 0 -0.170962
    outer loop
      vertex -0.980785 -0.980785 -0.19509
      vertex -0.989177 4 -0.14673
      vertex -0.980785 4 -0.19509
    endloop
  endfacet
  facet normal -0.985278 -0 -0.170962
    outer loop
      vertex -0.989177 4 -0.14673
      vertex -0.980785 -0.980785 -0.19509
      vertex -0.989177 -0.989177 -0.14673
    endloop
  endfacet
  facet normal -0.975702 0 -0.219101
    outer loop
      vertex -0.970031 -0.970031 -0.24298
      vertex -0.980785 4 -0.19509
      vertex -0.970031 4 -0.24298
    endloop
  endfacet
  facet normal -0.975702 -0 -0.219101
    outer loop
      vertex -0.980785 4 -0.19509
      vertex -0.970031 -0.970031 -0.24298
      vertex -0.980785 -0.980785 -0.19509
    endloop
  endfacet
  facet normal -0.963776 0 -0.266713
    outer loop
      vertex -0.95694 -0.95694 -0.290285
      vertex -0.970031 4 -0.24298
      vertex -0.95694 4 -0.290285
    endloop
  endfacet
  facet normal -0.963776 -0 -0.266713
    outer loop
      vertex -0.970031 4 -0.24298
      vertex -0.95694 -0.95694 -0.290285
      vertex -0.970031 -0.970031 -0.24298
    endloop
  endfacet
  facet normal -0.949528 0 -0.313682
    outer loop
      vertex -0.941544 -0.941544 -0.33689
      vertex -0.95694 4 -0.290285
      vertex -0.941544 4 -0.33689
    endloop
  endfacet
  facet normal -0.949528 -0 -0.313682
    outer loop
      vertex -0.95694 4 -0.290285
      vertex -0.941544 -0.941544 -0.33689
      vertex -0.95694 -0.95694 -0.290285
    endloop
  endfacet
  facet normal -0.932993 0 -0.359895
    outer loop
      vertex -0.92388 -0.92388 -0.382683
      vertex -0.941544 4 -0.33689
      vertex -0.92388 4 -0.382683
    endloop
  endfacet
  facet normal -0.932993 -0 -0.359895
    outer loop
      vertex -0.941544 4 -0.33689
      vertex -0.92388 -0.92388 -0.382683
      vertex -0.941544 -0.941544 -0.33689
    endloop
  endfacet
  facet normal -0.91421 0 -0.40524
    outer loop
      vertex -0.903989 -0.903989 -0.427555
      vertex -0.92388 4 -0.382683
      vertex -0.903989 4 -0.427555
    endloop
  endfacet
  facet normal -0.91421 -0 -0.40524
    outer loop
      vertex -0.92388 4 -0.382683
      vertex -0.903989 -0.903989 -0.427555
      vertex -0.92388 -0.92388 -0.382683
    endloop
  endfacet
  facet normal -0.893224 0 -0.449611
    outer loop
      vertex -0.881921 -0.881921 -0.471397
      vertex -0.903989 4 -0.427555
      vertex -0.881921 4 -0.471397
    endloop
  endfacet
  facet normal -0.893224 -0 -0.449611
    outer loop
      vertex -0.903989 4 -0.427555
      vertex -0.881921 -0.881921 -0.471397
      vertex -0.903989 -0.903989 -0.427555
    endloop
  endfacet
  facet normal -0.870087 0 -0.492899
    outer loop
      vertex -0.857729 -0.857729 -0.514103
      vertex -0.881921 4 -0.471397
      vertex -0.857729 4 -0.514103
    endloop
  endfacet
  facet normal -0.870087 -0 -0.492899
    outer loop
      vertex -0.881921 4 -0.471397
      vertex -0.857729 -0.857729 -0.514103
      vertex -0.881921 -0.881921 -0.471397
    endloop
  endfacet
  facet normal -0.844853 0 -0.534998
    outer loop
      vertex -0.83147 -0.83147 -0.55557
      vertex -0.857729 4 -0.514103
      vertex -0.83147 4 -0.55557
    endloop
  endfacet
  facet normal -0.844853 -0 -0.534998
    outer loop
      vertex -0.857729 4 -0.514103
      vertex -0.83147 -0.83147 -0.55557
      vertex -0.857729 -0.857729 -0.514103
    endloop
  endfacet
  facet normal -0.817585 0 -0.575808
    outer loop
      vertex -0.803208 -0.803208 -0.595699
      vertex -0.83147 4 -0.55557
      vertex -0.803208 4 -0.595699
    endloop
  endfacet
  facet normal -0.817585 -0 -0.575808
    outer loop
      vertex -0.83147 4 -0.55557
      vertex -0.803208 -0.803208 -0.595699
      vertex -0.83147 -0.83147 -0.55557
    endloop
  endfacet
  facet normal -0.788346 0 -0.615232
    outer loop
      vertex -0.77301 -0.77301 -0.634393
      vertex -0.803208 4 -0.595699
      vertex -0.77301 4 -0.634393
    endloop
  endfacet
  facet normal -0.788346 -0 -0.615232
    outer loop
      vertex -0.803208 4 -0.595699
      vertex -0.77301 -0.77301 -0.634393
      vertex -0.803208 -0.803208 -0.595699
    endloop
  endfacet
  facet normal -0.757209 0 -0.653172
    outer loop
      vertex -0.740951 -0.740951 -0.671559
      vertex -0.77301 4 -0.634393
      vertex -0.740951 4 -0.671559
    endloop
  endfacet
  facet normal -0.757209 -0 -0.653172
    outer loop
      vertex -0.77301 4 -0.634393
      vertex -0.740951 -0.740951 -0.671559
      vertex -0.77301 -0.77301 -0.634393
    endloop
  endfacet
  facet normal -0.724247 0 -0.689541
    outer loop
      vertex -0.707107 -0.707107 -0.707107
      vertex -0.740951 4 -0.671559
      vertex -0.707107 4 -0.707107
    endloop
  endfacet
  facet normal -0.724247 -0 -0.689541
    outer loop
      vertex -0.740951 4 -0.671559
      vertex -0.707107 -0.707107 -0.707107
      vertex -0.740951 -0.740951 -0.671559
    endloop
  endfacet
  facet normal -0.689541 -0 -0.724247
    outer loop
      vertex -0.707107 4 -0.707107
      vertex -0.671559 -0.671559 -0.740951
      vertex -0.707107 -0.707107 -0.707107
    endloop
  endfacet
  facet normal -0.689541 0 -0.724247
    outer loop
      vertex -0.671559 -0.671559 -0.740951
      vertex -0.707107 4 -0.707107
      vertex -0.671559 4 -0.740951
    endloop
  endfacet
  facet normal -0.653172 -0 -0.757209
    outer loop
      vertex -0.671559 4 -0.740951
      vertex -0.634393 -0.634393 -0.77301
      vertex -0.671559 -0.671559 -0.740951
    endloop
  endfacet
  facet normal -0.653172 0 -0.757209
    outer loop
      vertex -0.634393 -0.634393 -0.77301
      vertex -0.671559 4 -0.740951
      vertex -0.634393 4 -0.77301
    endloop
  endfacet
  facet normal -0.615232 -0 -0.788346
    outer loop
      vertex -0.634393 4 -0.77301
      vertex -0.595699 -0.595699 -0.803208
      vertex -0.634393 -0.634393 -0.77301
    endloop
  endfacet
  facet normal -0.615232 0 -0.788346
    outer loop
      vertex -0.595699 -0.595699 -0.803208
      vertex -0.634393 4 -0.77301
      vertex -0.595699 4 -0.803208
    endloop
  endfacet
  facet normal -0.575808 -0 -0.817585
    outer loop
      vertex -0.595699 4 -0.803208
      vertex -0.55557 -0.55557 -0.83147
      vertex -0.595699 -0.595699 -0.803208
    endloop
  endfacet
  facet normal -0.575808 0 -0.817585
    outer loop
      vertex -0.55557 -0.55557 -0.83147
      vertex -0.595699 4 -0.803208
      vertex -0.55557 4 -0.83147
    endloop
  endfacet
  facet normal -0.534998 -0 -0.844853
    outer loop
      vertex -0.55557 4 -0.83147
      vertex -0.514103 -0.514103 -0.857729
      vertex -0.55557 -0.55557 -0.83147
    endloop
  endfacet
  facet normal -0.534998 0 -0.844853
    outer loop
      vertex -0.514103 -0.514103 -0.857729
      vertex -0.55557 4 -0.83147
      vertex -0.514103 4 -0.857729
    endloop
  endfacet
  facet normal -0.492899 -0 -0.870087
    outer loop
      vertex -0.514103 4 -0.857729
      vertex -0.471397 -0.471397 -0.881921
      vertex -0.514103 -0.514103 -0.857729
    endloop
  endfacet
  facet normal -0.492899 0 -0.870087
    outer loop
      vertex -0.471397 -0.471397 -0.881921
      vertex -0.514103 4 -0.857729
      vertex -0.471397 4 -0.881921
    endloop
  endfacet
  facet normal -0.449611 -0 -0.893224
    outer loop
      vertex -0.471397 4 -0.881921
      vertex -0.427555 -0.427555 -0.903989
      vertex -0.471397 -0.471397 -0.881921
    endloop
  endfacet
  facet normal -0.449611 0 -0.893224
    outer loop
      vertex -0.427555 -0.427555 -0.903989
      vertex -0.471397 4 -0.881921
      vertex -0.427555 4 -0.903989
    endloop
  endfacet
  facet normal -0.40524 -0 -0.91421
    outer loop
      vertex -0.427555 4 -0.903989
      vertex -0.382683 -0.382683 -0.92388
      vertex -0.427555 -0.427555 -0.903989
    endloop
  endfacet
  facet normal -0.40524 0 -0.91421
    outer loop
      vertex -0.382683 -0.382683 -0.92388
      vertex -0.427555 4 -0.903989
      vertex -0.382683 4 -0.92388
    endloop
  endfacet
  facet normal -0.359895 -0 -0.932993
    outer loop
      vertex -0.382683 4 -0.92388
      vertex -0.33689 -0.33689 -0.941544
      vertex -0.382683 -0.382683 -0.92388
    endloop
  endfacet
  facet normal -0.359895 0 -0.932993
    outer loop
      vertex -0.33689 -0.33689 -0.941544
      vertex -0.382683 4 -0.92388
      vertex -0.33689 4 -0.941544
    endloop
  endfacet
  facet normal -0.313682 -0 -0.949528
    outer loop
      vertex -0.33689 4 -0.941544
      vertex -0.290285 -0.290285 -0.95694
      vertex -0.33689 -0.33689 -0.941544
    endloop
  endfacet
  facet normal -0.313682 0 -0.949528
    outer loop
      vertex -0.290285 -0.290285 -0.95694
      vertex -0.33689 4 -0.941544
      vertex -0.290285 4 -0.95694
    endloop
  endfacet
  facet normal -0.266713 -0 -0.963776
    outer loop
      vertex -0.290285 4 -0.95694
      vertex -0.24298 -0.24298 -0.970031
      vertex -0.290285 -0.290285 -0.95694
    endloop
  endfacet
  facet normal -0.266713 0 -0.963776
    outer loop
      vertex -0.24298 -0.24298 -0.970031
      vertex -0.290285 4 -0.95694
      vertex -0.24298 4 -0.970031
    endloop
  endfacet
  facet normal -0.219101 -0 -0.975702
    outer loop
      vertex -0.24298 4 -0.970031
      vertex -0.19509 -0.19509 -0.980785
      vertex -0.24298 -0.24298 -0.970031
    endloop
  endfacet
  facet normal -0.219101 0 -0.975702
    outer loop
      vertex -0.19509 -0.19509 -0.980785
      vertex -0.24298 4 -0.970031
      vertex -0.19509 4 -0.980785
    endloop
  endfacet
  facet normal -0.170962 -0 -0.985278
    outer loop
      vertex -0.19509 4 -0.980785
      vertex -0.14673 -0.14673 -0.989177
      vertex -0.19509 -0.19509 -0.980785
    endloop
  endfacet
  facet normal -0.170962 0 -0.985278
    outer loop
      vertex -0.14673 -0.14673 -0.989177
      vertex -0.19509 4 -0.980785
      vertex -0.14673 4 -0.989177
    endloop
  endfacet
  facet normal -0.122411 -0 -0.99248
    outer loop
      vertex -0.14673 4 -0.989177
      vertex -0.0980171 -0.0980171 -0.995185
      vertex -0.14673 -0.14673 -0.989177
    endloop
  endfacet
  facet normal -0.122411 0 -0.99248
    outer loop
      vertex -0.0980171 -0.0980171 -0.995185
      vertex -0.14673 4 -0.989177
      vertex -0.0980171 4 -0.995185
    endloop
  endfacet
  facet normal -0.0735646 -0 -0.99729
    outer loop
      vertex -0.0980171 4 -0.995185
      vertex -0.0490677 -0.0490677 -0.998795
      vertex -0.0980171 -0.0980171 -0.995185
    endloop
  endfacet
  facet normal -0.0735646 0 -0.99729
    outer loop
      vertex -0.0490677 -0.0490677 -0.998795
      vertex -0.0980171 4 -0.995185
      vertex -0.0490677 4 -0.998795
    endloop
  endfacet
  facet normal -0.0245414 -0 -0.999699
    outer loop
      vertex -0.0490677 4 -0.998795
      vertex -0 -0 -1
      vertex -0.0490677 -0.0490677 -0.998795
    endloop
  endfacet
  facet normal -0.0245414 0 -0.999699
    outer loop
      vertex -0 -0 -1
      vertex -0.0490677 4 -0.998795
      vertex -0 4 -1
    endloop
  endfacet
  facet normal 0.0245414 0 -0.999699
    outer loop
      vertex -0 4 -1
      vertex 0.0490677 0.0490677 -0.998795
      vertex -0 -0 -1
    endloop
  endfacet
  facet normal 0.0245414 0 -0.999699
    outer loop
      vertex 0.0490677 0.0490677 -0.998795
      vertex -0 4 -1
      vertex 0.0490677 4 -0.998795
    endloop
  endfacet
  facet normal 0.0735646 0 -0.99729
    outer loop
      vertex 0.0490677 4 -0.998795
      vertex 0.0980171 0.0980171 -0.995185
      vertex 0.0490677 0.0490677 -0.998795
    endloop
  endfacet
  facet normal 0.0735646 0 -0.99729
    outer loop
      vertex 0.0980171 0.0980171 -0.995185
      vertex 0.0490677 4 -0.998795
      vertex 0.0980171 4 -0.995185
    endloop
  endfacet
  facet normal 0.122411 0 -0.99248
    outer loop
      vertex 0.0980171 4 -0.995185
      vertex 0.14673 0.14673 -0.989177
      vertex 0.0980171 0.0980171 -0.995185
    endloop
  endfacet
  facet normal 0.122411 0 -0.99248
    outer loop
      vertex 0.14673 0.14673 -0.989177
      vertex 0.0980171 4 -0.995185
      vertex 0.14673 4 -0.989177
    endloop
  endfacet
  facet normal 0.170962 0 -0.985278
    outer loop
      vertex 0.14673 4 -0.989177
      vertex 0.19509 0.19509 -0.980785
      vertex 0.14673 0.14673 -0.989177
    endloop
  endfacet
  facet normal 0.170962 0 -0.985278
    outer loop
      vertex 0.19509 0.19509 -0.980785
      vertex 0.14673 4 -0.989177
      vertex 0.19509 4 -0.980785
    endloop
  endfacet
  facet normal 0.219101 0 -0.975702
    outer loop
      vertex 0.19509 4 -0.980785
      vertex 0.24298 0.24298 -0.970031
      vertex 0.19509 0.19509 -0.980785
    endloop
  endfacet
  facet normal 0.219101 0 -0.975702
    outer loop
      vertex 0.24298 0.24298 -0.970031
      vertex 0.19509 4 -0.980785
      vertex 0.24298 4 -0.970031
    endloop
  endfacet
  facet normal 0.266713 0 -0.963776
    outer loop
      vertex 0.24298 4 -0.970031
      vertex 0.290285 0.290285 -0.95694
      vertex 0.24298 0.24298 -0.970031
    endloop
  endfacet
  facet normal 0.266713 0 -0.963776
    outer loop
      vertex 0.290285 0.290285 -0.95694
      vertex 0.24298 4 -0.970031
      vertex 0.290285 4 -0.95694
    endloop
  endfacet
  facet normal 0.313682 0 -0.949528
    outer loop
      vertex 0.290285 4 -0.95694
      vertex 0.33689 0.33689 -0.941544
      vertex 0.290285 0.290285 -0.95694
    endloop
  endfacet
  facet normal 0.313682 0 -0.949528
    outer loop
      vertex 0.33689 0.33689 -0.941544
      vertex 0.290285 4 -0.95694
      vertex 0.33689 4 -0.941544
    endloop
  endfacet
  facet normal 0.359895 0 -0.932993
    outer loop
      vertex 0.33689 4 -0.941544
      vertex 0.382683 0.382683 -0.92388
      vertex 0.33689 0.33689 -0.941544
    endloop
  endfacet
  facet normal 0.359895 0 -0.932993
    outer loop
      vertex 0.382683 0.382683 -0.92388
      vertex 0.33689 4 -0.941544
      vertex 0.382683 4 -0.92388
    endloop
  endfacet
  facet normal 0.40524 0 -0.91421
    outer loop
      vertex 0.382683 4 -0.92388
      vertex 0.427555 0.427555 -0.903989
      vertex 0.382683 0.382683 -0.92388
    endloop
  endfacet
  facet normal 0.40524 0 -0.91421
    outer loop
      vertex 0.427555 0.427555 -0.903989
      vertex 0.382683 4 -0.92388
      vertex 0.427555 4 -0.903989
    endloop
  endfacet
  facet normal 0.449611 0 -0.893224
    outer loop
      vertex 0.427555 4 -0.903989
      vertex 0.471397 0.471397 -0.881921
      vertex 0.427555 0.427555 -0.903989
    endloop
  endfacet
  facet normal 0.449611 0 -0.893224
    outer loop
      vertex 0.471397 0.471397 -0.881921
      vertex 0.427555 4 -0.903989
      vertex 0.471397 4 -0.881921
    endloop
  endfacet
  facet normal 0.492899 0 -0.870087
    outer loop
      vertex 0.471397 4 -0.881921
      vertex 0.514103 0.514103 -0.857729
      vertex 0.471397 0.471397 -0.881921
    endloop
  endfacet
  facet normal 0.492899 0 -0.870087
    outer loop
      vertex 0.514103 0.514103 -0.857729
      vertex 0.471397 4 -0.881921
      vertex 0.514103 4 -0.857729
    endloop
  endfacet
  facet normal 0.534998 0 -0.844853
    outer loop
      vertex 0.514103 4 -0.857729
      vertex 0.55557 0.55557 -0.83147
      vertex 0.514103 0.514103 -0.857729
    endloop
  endfacet
  facet normal 0.534998 0 -0.844853
    outer loop
      vertex 0.55557 0.55557 -0.83147
      vertex 0.514103 4 -0.857729
      vertex 0.55557 4 -0.83147
    endloop
  endfacet
  facet normal 0.575808 0 -0.817585
    outer loop
      vertex 0.55557 4 -0.83147
      vertex 0.595699 0.595699 -0.803208
      vertex 0.55557 0.55557 -0.83147
    endloop
  endfacet
  facet normal 0.575808 0 -0.817585
    outer loop
      vertex 0.595699 0.595699 -0.803208
      vertex 0.55557 4 -0.83147
      vertex 0.595699 4 -0.803208
    endloop
  endfacet
  facet normal 0.615232 0 -0.788346
    outer loop
      vertex 0.595699 4 -0.803208
      vertex 0.634393 0.634393 -0.77301
      vertex 0.595699 0.595699 -0.803208
    endloop
  endfacet
  facet normal 0.615232 0 -0.788346
    outer loop
      vertex 0.634393 0.634393 -0.77301
      vertex 0.595699 4 -0.803208
      vertex 0.634393 4 -0.77301
    endloop
  endfacet
  facet normal 0.653172 0 -0.757209
    outer loop
      vertex 0.634393 4 -0.77301
      vertex 0.671559 0.671559 -0.740951
      vertex 0.634393 0.634393 -0.77301
    endloop
  endfacet
  facet normal 0.653172 0 -0.757209
    outer loop
      vertex 0.671559 0.671559 -0.740951
      vertex 0.634393 4 -0.77301
      vertex 0.671559 4 -0.740951
    endloop
  endfacet
  facet normal 0.689541 0 -0.724247
    outer loop
      vertex 0.671559 4 -0.740951
      vertex 0.707107 0.707107 -0.707107
      vertex 0.671559 0.671559 -0.740951
    endloop
  endfacet
  facet normal 0.689541 0 -0.724247
    outer loop
      vertex 0.707107 0.707107 -0.707107
      vertex 0.671559 4 -0.740951
      vertex 0.707107 4 -0.707107
    endloop
  endfacet
  facet normal 0.724247 0 -0.689541
    outer loop
      vertex 0.740951 0.740951 -0.671559
      vertex 0.707107 4 -0.707107
      vertex 0.740951 4 -0.671559
    endloop
  endfacet
  facet normal 0.724247 0 -0.689541
    outer loop
      vertex 0.707107 4 -0.707107
      vertex 0.740951 0.740951 -0.671559
      vertex 0.707107 0.707107 -0.707107
    endloop
  endfacet
  facet normal 0.757209 0 -0.653172
    outer loop
      vertex 0.77301 0.77301 -0.634393
      vertex 0.740951 4 -0.671559
      vertex 0.77301 4 -0.634393
    endloop
  endfacet
  facet normal 0.757209 0 -0.653172
    outer loop
      vertex 0.740951 4 -0.671559
      vertex 0.77301 0.77301 -0.634393
      vertex 0.740951 0.740951 -0.671559
    endloop
  endfacet
  facet normal 0.788346 0 -0.615232
    outer loop
      vertex 0.803208 0.803208 -0.595699
      vertex 0.77301 4 -0.634393
      vertex 0.803208 4 -0.595699
    endloop
  endfacet
  facet normal 0.788346 0 -0.615232
    outer loop
      vertex 0.77301 4 -0.634393
      vertex 0.803208 0.803208 -0.595699
      vertex 0.77301 0.77301 -0.634393
    endloop
  endfacet
  facet normal 0.817585 0 -0.575808
    outer loop
      vertex 0.83147 0.83147 -0.55557
      vertex 0.803208 4 -0.595699
      vertex 0.83147 4 -0.55557
    endloop
  endfacet
  facet normal 0.817585 0 -0.575808
    outer loop
      vertex 0.803208 4 -0.595699
      vertex 0.83147 0.83147 -0.55557
      vertex 0.803208 0.803208 -0.595699
    endloop
  endfacet
  facet normal 0.844853 0 -0.534998
    outer loop
      vertex 0.857729 0.857729 -0.514103
      vertex 0.83147 4 -0.55557
      vertex 0.857729 4 -0.514103
    endloop
  endfacet
  facet normal 0.844853 0 -0.534998
    outer loop
      vertex 0.83147 4 -0.55557
      vertex 0.857729 0.857729 -0.514103
      vertex 0.83147 0.83147 -0.55557
    endloop
  endfacet
  facet normal 0.870087 0 -0.492899
    outer loop
      vertex 0.881921 0.881921 -0.471397
      vertex 0.857729 4 -0.514103
      vertex 0.881921 4 -0.471397
    endloop
  endfacet
  facet normal 0.870087 0 -0.492899
    outer loop
      vertex 0.857729 4 -0.514103
      vertex 0.881921 0.881921 -0.471397
      vertex 0.857729 0.857729 -0.514103
    endloop
  endfacet
  facet normal 0.893224 0 -0.449611
    outer loop
      vertex 0.903989 0.903989 -0.427555
      vertex 0.881921 4 -0.471397
      vertex 0.903989 4 -0.427555
    endloop
  endfacet
  facet normal 0.893224 0 -0.449611
    outer loop
      vertex 0.881921 4 -0.471397
      vertex 0.903989 0.903989 -0.427555
      vertex 0.881921 0.881921 -0.471397
    endloop
  endfacet
  facet normal 0.91421 0 -0.40524
    outer loop
      vertex 0.92388 0.92388 -0.382683
      vertex 0.903989 4 -0.427555
      vertex 0.92388 4 -0.382683
    endloop
  endfacet
  facet normal 0.91421 0 -0.40524
    outer loop
      vertex 0.903989 4 -0.427555
      vertex 0.92388 0.92388 -0.382683
      vertex 0.903989 0.903989 -0.427555
    endloop
  endfacet
  facet normal 0.932993 0 -0.359895
    outer loop
      vertex 0.941544 0.941544 -0.33689
      vertex 0.92388 4 -0.382683
      vertex 0.941544 4 -0.33689
    endloop
  endfacet
  facet normal 0.932993 0 -0.359895
    outer loop
      vertex 0.92388 4 -0.382683
      vertex 0.941544 0.941544 -0.33689
      vertex 0.92388 0.92388 -0.382683
    endloop
  endfacet
  facet normal 0.949528 0 -0.313682
    outer loop
      vertex 0.95694 0.95694 -0.290285
      vertex 0.941544 4 -0.33689
      vertex 0.95694 4 -0.290285
    endloop
  endfacet
  facet normal 0.949528 0 -0.313682
    outer loop
      vertex 0.941544 4 -0.33689
      vertex 0.95694 0.95694 -0.290285
      vertex 0.941544 0.941544 -0.33689
    endloop
  endfacet
  facet normal 0.963776 0 -0.266713
    outer loop
      vertex 0.970031 0.970031 -0.24298
      vertex 0.95694 4 -0.290285
      vertex 0.970031 4 -0.24298
    endloop
  endfacet
  facet normal 0.963776 0 -0.266713
    outer loop
      vertex 0.95694 4 -0.290285
      vertex 0.970031 0.970031 -0.24298
      vertex 0.95694 0.95694 -0.290285
    endloop
  endfacet
  facet normal 0.975702 0 -0.219101
    outer loop
      vertex 0.980785 0.980785 -0.19509
      vertex 0.970031 4 -0.24298
      vertex 0.980785 4 -0.19509
    endloop
  endfacet
  facet normal 0.975702 0 -0.219101
    outer loop
      vertex 0.970031 4 -0.24298
      vertex 0.980785 0.980785 -0.19509
      vertex 0.970031 0.970031 -0.24298
    endloop
  endfacet
  facet normal 0.985278 0 -0.170962
    outer loop
      vertex 0.989177 0.989177 -0.14673
      vertex 0.980785 4 -0.19509
      vertex 0.989177 4 -0.14673
    endloop
  endfacet
  facet normal 0.985278 0 -0.170962
    outer loop
      vertex 0.980785 4 -0.19509
      vertex 0.989177 0.989177 -0.14673
      vertex 0.980785 0.980785 -0.19509
    endloop
  endfacet
  facet normal 0.99248 0 -0.122411
    outer loop
      vertex 0.995185 0.995185 -0.0980171
      vertex 0.989177 4 -0.14673
      vertex 0.995185 4 -0.0980171
    endloop
  endfacet
  facet normal 0.99248 0 -0.122411
    outer loop
      vertex 0.989177 4 -0.14673
      vertex 0.995185 0.995185 -0.0980171
      vertex 0.989177 0.989177 -0.14673
    endloop
  endfacet
  facet normal 0.99729 0 -0.0735646
    outer loop
      vertex 0.998795 0.998795 -0.0490677
      vertex 0.995185 4 -0.0980171
      vertex 0.998795 4 -0.0490677
    endloop
  endfacet
  facet normal 0.99729 0 -0.0735646
    outer loop
      vertex 0.995185 4 -0.0980171
      vertex 0.998795 0.998795 -0.0490677
      vertex 0.995185 0.995185 -0.0980171
    endloop
  endfacet
endsolid OpenSCAD_Model
